<?xml version="1.0" encoding="UTF-8"?>
<svg xmlns="http://www.w3.org/2000/svg" xmlns:xlink="http://www.w3.org/1999/xlink" width="1360.63pt" height="935.433pt" viewBox="0 0 1360.63 935.433" version="1.1">
<g id="surface1">
<path style="fill:none;stroke-width:0.25;stroke-linecap:butt;stroke-linejoin:miter;stroke:rgb(13.729858%,12.159729%,12.548828%);stroke-opacity:1;stroke-miterlimit:4;" d="M -0.0015 0.00149375 L -0.0015 -14.174287 " transform="matrix(1,0,0,-1,48.189,56.6929)"/>
<path style="fill:none;stroke-width:0.25;stroke-linecap:butt;stroke-linejoin:miter;stroke:rgb(13.729858%,12.159729%,12.548828%);stroke-opacity:1;stroke-miterlimit:4;" d="M -0.0015 0.00049375 L -0.0015 -14.171381 " transform="matrix(1,0,0,-1,48.189,864.5669)"/>
<path style="fill:none;stroke-width:0.25;stroke-linecap:butt;stroke-linejoin:miter;stroke:rgb(13.729858%,12.159729%,12.548828%);stroke-opacity:1;stroke-miterlimit:4;" d="M 0.000675 0.00149375 L 0.000675 -14.174287 " transform="matrix(1,0,0,-1,189.9212,56.6929)"/>
<path style="fill:none;stroke-width:0.25;stroke-linecap:butt;stroke-linejoin:miter;stroke:rgb(13.729858%,12.159729%,12.548828%);stroke-opacity:1;stroke-miterlimit:4;" d="M 0.000675 0.00049375 L 0.000675 -14.171381 " transform="matrix(1,0,0,-1,189.9212,864.5669)"/>
<path style="fill:none;stroke-width:0.25;stroke-linecap:butt;stroke-linejoin:miter;stroke:rgb(13.729858%,12.159729%,12.548828%);stroke-opacity:1;stroke-miterlimit:4;" d="M -0.00115625 0.00149375 L -0.00115625 -14.174287 " transform="matrix(1,0,0,-1,331.6535,56.6929)"/>
<path style="fill:none;stroke-width:0.25;stroke-linecap:butt;stroke-linejoin:miter;stroke:rgb(13.729858%,12.159729%,12.548828%);stroke-opacity:1;stroke-miterlimit:4;" d="M -0.00115625 0.00049375 L -0.00115625 -14.171381 " transform="matrix(1,0,0,-1,331.6535,864.5669)"/>
<path style="fill:none;stroke-width:0.25;stroke-linecap:butt;stroke-linejoin:miter;stroke:rgb(13.729858%,12.159729%,12.548828%);stroke-opacity:1;stroke-miterlimit:4;" d="M 0.00101875 0.00149375 L 0.00101875 -14.174287 " transform="matrix(1,0,0,-1,473.3857,56.6929)"/>
<path style="fill:none;stroke-width:0.25;stroke-linecap:butt;stroke-linejoin:miter;stroke:rgb(13.729858%,12.159729%,12.548828%);stroke-opacity:1;stroke-miterlimit:4;" d="M 0.00101875 0.00049375 L 0.00101875 -14.171381 " transform="matrix(1,0,0,-1,473.3857,864.5669)"/>
<path style="fill:none;stroke-width:0.25;stroke-linecap:butt;stroke-linejoin:miter;stroke:rgb(13.729858%,12.159729%,12.548828%);stroke-opacity:1;stroke-miterlimit:4;" d="M -0.0008125 0.00149375 L -0.0008125 -14.174287 " transform="matrix(1,0,0,-1,615.118,56.6929)"/>
<path style="fill:none;stroke-width:0.25;stroke-linecap:butt;stroke-linejoin:miter;stroke:rgb(13.729858%,12.159729%,12.548828%);stroke-opacity:1;stroke-miterlimit:4;" d="M -0.0008125 0.00049375 L -0.0008125 -14.171381 " transform="matrix(1,0,0,-1,615.118,864.5669)"/>
<path style="fill:none;stroke-width:0.25;stroke-linecap:butt;stroke-linejoin:miter;stroke:rgb(13.729858%,12.159729%,12.548828%);stroke-opacity:1;stroke-miterlimit:4;" d="M 0.0012625 0.00149375 L 0.0012625 -14.174287 " transform="matrix(1,0,0,-1,756.8503,56.6929)"/>
<path style="fill:none;stroke-width:0.25;stroke-linecap:butt;stroke-linejoin:miter;stroke:rgb(13.729858%,12.159729%,12.548828%);stroke-opacity:1;stroke-miterlimit:4;" d="M 0.0012625 0.00049375 L 0.0012625 -14.171381 " transform="matrix(1,0,0,-1,756.8503,864.5669)"/>
<path style="fill:none;stroke-width:0.25;stroke-linecap:butt;stroke-linejoin:miter;stroke:rgb(13.729858%,12.159729%,12.548828%);stroke-opacity:1;stroke-miterlimit:4;" d="M -0.00056875 0.00149375 L -0.00056875 -14.174287 " transform="matrix(1,0,0,-1,898.5826,56.6929)"/>
<path style="fill:none;stroke-width:0.25;stroke-linecap:butt;stroke-linejoin:miter;stroke:rgb(13.729858%,12.159729%,12.548828%);stroke-opacity:1;stroke-miterlimit:4;" d="M -0.00056875 0.00049375 L -0.00056875 -14.171381 " transform="matrix(1,0,0,-1,898.5826,864.5669)"/>
<path style="fill:none;stroke-width:0.25;stroke-linecap:butt;stroke-linejoin:miter;stroke:rgb(13.729858%,12.159729%,12.548828%);stroke-opacity:1;stroke-miterlimit:4;" d="M 0.00150625 0.00149375 L 0.00150625 -14.174287 " transform="matrix(1,0,0,-1,1040.3149,56.6929)"/>
<path style="fill:none;stroke-width:0.25;stroke-linecap:butt;stroke-linejoin:miter;stroke:rgb(13.729858%,12.159729%,12.548828%);stroke-opacity:1;stroke-miterlimit:4;" d="M 0.00150625 0.00049375 L 0.00150625 -14.171381 " transform="matrix(1,0,0,-1,1040.3149,864.5669)"/>
<path style="fill:none;stroke-width:0.25;stroke-linecap:butt;stroke-linejoin:miter;stroke:rgb(13.729858%,12.159729%,12.548828%);stroke-opacity:1;stroke-miterlimit:4;" d="M -0.000325 0.00149375 L -0.000325 -14.174287 " transform="matrix(1,0,0,-1,1182.0472,56.6929)"/>
<path style="fill:none;stroke-width:0.25;stroke-linecap:butt;stroke-linejoin:miter;stroke:rgb(13.729858%,12.159729%,12.548828%);stroke-opacity:1;stroke-miterlimit:4;" d="M -0.000325 0.00049375 L -0.000325 -14.171381 " transform="matrix(1,0,0,-1,1182.0472,864.5669)"/>
<path style="fill:none;stroke-width:0.25;stroke-linecap:butt;stroke-linejoin:miter;stroke:rgb(13.729858%,12.159729%,12.548828%);stroke-opacity:1;stroke-miterlimit:4;" d="M -0.00056875 0.00149375 L -0.00056875 -14.174287 " transform="matrix(1,0,0,-1,178.5826,56.6929)"/>
<path style="fill:none;stroke-width:0.25;stroke-linecap:butt;stroke-linejoin:miter;stroke:rgb(13.729858%,12.159729%,12.548828%);stroke-opacity:1;stroke-miterlimit:4;" d="M -0.00056875 0.00049375 L -0.00056875 -14.171381 " transform="matrix(1,0,0,-1,178.5826,864.5669)"/>
<path style="fill:none;stroke-width:0.25;stroke-linecap:butt;stroke-linejoin:miter;stroke:rgb(13.729858%,12.159729%,12.548828%);stroke-opacity:1;stroke-miterlimit:4;" d="M 0.00150625 0.00149375 L 0.00150625 -14.174287 " transform="matrix(1,0,0,-1,320.3149,56.6929)"/>
<path style="fill:none;stroke-width:0.25;stroke-linecap:butt;stroke-linejoin:miter;stroke:rgb(13.729858%,12.159729%,12.548828%);stroke-opacity:1;stroke-miterlimit:4;" d="M 0.00150625 0.00049375 L 0.00150625 -14.171381 " transform="matrix(1,0,0,-1,320.3149,864.5669)"/>
<path style="fill:none;stroke-width:0.25;stroke-linecap:butt;stroke-linejoin:miter;stroke:rgb(13.729858%,12.159729%,12.548828%);stroke-opacity:1;stroke-miterlimit:4;" d="M -0.000325 0.00149375 L -0.000325 -14.174287 " transform="matrix(1,0,0,-1,462.0472,56.6929)"/>
<path style="fill:none;stroke-width:0.25;stroke-linecap:butt;stroke-linejoin:miter;stroke:rgb(13.729858%,12.159729%,12.548828%);stroke-opacity:1;stroke-miterlimit:4;" d="M -0.000325 0.00049375 L -0.000325 -14.171381 " transform="matrix(1,0,0,-1,462.0472,864.5669)"/>
<path style="fill:none;stroke-width:0.25;stroke-linecap:butt;stroke-linejoin:miter;stroke:rgb(13.729858%,12.159729%,12.548828%);stroke-opacity:1;stroke-miterlimit:4;" d="M 0.00175 0.00149375 L 0.00175 -14.174287 " transform="matrix(1,0,0,-1,603.7795,56.6929)"/>
<path style="fill:none;stroke-width:0.25;stroke-linecap:butt;stroke-linejoin:miter;stroke:rgb(13.729858%,12.159729%,12.548828%);stroke-opacity:1;stroke-miterlimit:4;" d="M 0.00175 0.00049375 L 0.00175 -14.171381 " transform="matrix(1,0,0,-1,603.7795,864.5669)"/>
<path style="fill:none;stroke-width:0.25;stroke-linecap:butt;stroke-linejoin:miter;stroke:rgb(13.729858%,12.159729%,12.548828%);stroke-opacity:1;stroke-miterlimit:4;" d="M 0.00001875 0.00149375 L 0.00001875 -14.174287 " transform="matrix(1,0,0,-1,745.5117,56.6929)"/>
<path style="fill:none;stroke-width:0.25;stroke-linecap:butt;stroke-linejoin:miter;stroke:rgb(13.729858%,12.159729%,12.548828%);stroke-opacity:1;stroke-miterlimit:4;" d="M 0.00001875 0.00049375 L 0.00001875 -14.171381 " transform="matrix(1,0,0,-1,745.5117,864.5669)"/>
<path style="fill:none;stroke-width:0.25;stroke-linecap:butt;stroke-linejoin:miter;stroke:rgb(13.729858%,12.159729%,12.548828%);stroke-opacity:1;stroke-miterlimit:4;" d="M -0.0019125 0.00149375 L -0.0019125 -14.174287 " transform="matrix(1,0,0,-1,887.2441,56.6929)"/>
<path style="fill:none;stroke-width:0.25;stroke-linecap:butt;stroke-linejoin:miter;stroke:rgb(13.729858%,12.159729%,12.548828%);stroke-opacity:1;stroke-miterlimit:4;" d="M -0.0019125 0.00049375 L -0.0019125 -14.171381 " transform="matrix(1,0,0,-1,887.2441,864.5669)"/>
<path style="fill:none;stroke-width:0.25;stroke-linecap:butt;stroke-linejoin:miter;stroke:rgb(13.729858%,12.159729%,12.548828%);stroke-opacity:1;stroke-miterlimit:4;" d="M 0.0002625 0.00149375 L 0.0002625 -14.174287 " transform="matrix(1,0,0,-1,1028.9763,56.6929)"/>
<path style="fill:none;stroke-width:0.25;stroke-linecap:butt;stroke-linejoin:miter;stroke:rgb(13.729858%,12.159729%,12.548828%);stroke-opacity:1;stroke-miterlimit:4;" d="M 0.0002625 0.00049375 L 0.0002625 -14.171381 " transform="matrix(1,0,0,-1,1028.9763,864.5669)"/>
<path style="fill:none;stroke-width:0.25;stroke-linecap:butt;stroke-linejoin:miter;stroke:rgb(13.729858%,12.159729%,12.548828%);stroke-opacity:1;stroke-miterlimit:4;" d="M -0.00156875 0.00149375 L -0.00156875 -14.174287 " transform="matrix(1,0,0,-1,1170.7086,56.6929)"/>
<path style="fill:none;stroke-width:0.25;stroke-linecap:butt;stroke-linejoin:miter;stroke:rgb(13.729858%,12.159729%,12.548828%);stroke-opacity:1;stroke-miterlimit:4;" d="M -0.00156875 0.00049375 L -0.00156875 -14.171381 " transform="matrix(1,0,0,-1,1170.7086,864.5669)"/>
<path style="fill:none;stroke-width:0.25;stroke-linecap:butt;stroke-linejoin:miter;stroke:rgb(13.729858%,12.159729%,12.548828%);stroke-opacity:1;stroke-miterlimit:4;" d="M 0.00050625 0.00149375 L 0.00050625 -14.174287 " transform="matrix(1,0,0,-1,1312.4409,56.6929)"/>
<path style="fill:none;stroke-width:0.25;stroke-linecap:butt;stroke-linejoin:miter;stroke:rgb(13.729858%,12.159729%,12.548828%);stroke-opacity:1;stroke-miterlimit:4;" d="M 0.00050625 0.00049375 L 0.00050625 -14.171381 " transform="matrix(1,0,0,-1,1312.4409,864.5669)"/>
<path style="fill:none;stroke-width:0.25;stroke-linecap:butt;stroke-linejoin:miter;stroke:rgb(13.729858%,12.159729%,12.548828%);stroke-opacity:1;stroke-miterlimit:4;" d="M 0.00125625 0.00024375 L 14.173131 0.00024375 " transform="matrix(1,0,0,-1,28.3464,76.5354)"/>
<path style="fill:none;stroke-width:0.25;stroke-linecap:butt;stroke-linejoin:miter;stroke:rgb(13.729858%,12.159729%,12.548828%);stroke-opacity:1;stroke-miterlimit:4;" d="M -0.001025 0.00024375 L 14.174756 0.00024375 " transform="matrix(1,0,0,-1,1318.1104,76.5354)"/>
<path style="fill:none;stroke-width:0.25;stroke-linecap:butt;stroke-linejoin:miter;stroke:rgb(13.729858%,12.159729%,12.548828%);stroke-opacity:1;stroke-miterlimit:4;" d="M 0.00125625 -0.0004375 L 14.173131 -0.0004375 " transform="matrix(1,0,0,-1,28.3464,274.9605)"/>
<path style="fill:none;stroke-width:0.25;stroke-linecap:butt;stroke-linejoin:miter;stroke:rgb(13.729858%,12.159729%,12.548828%);stroke-opacity:1;stroke-miterlimit:4;" d="M -0.001025 -0.0004375 L 14.174756 -0.0004375 " transform="matrix(1,0,0,-1,1318.1104,274.9605)"/>
<path style="fill:none;stroke-width:0.25;stroke-linecap:butt;stroke-linejoin:miter;stroke:rgb(13.729858%,12.159729%,12.548828%);stroke-opacity:1;stroke-miterlimit:4;" d="M 0.00125625 -0.00101875 L 14.173131 -0.00101875 " transform="matrix(1,0,0,-1,28.3464,473.3857)"/>
<path style="fill:none;stroke-width:0.25;stroke-linecap:butt;stroke-linejoin:miter;stroke:rgb(13.729858%,12.159729%,12.548828%);stroke-opacity:1;stroke-miterlimit:4;" d="M -0.001025 -0.00101875 L 14.174756 -0.00101875 " transform="matrix(1,0,0,-1,1318.1104,473.3857)"/>
<path style="fill:none;stroke-width:0.25;stroke-linecap:butt;stroke-linejoin:miter;stroke:rgb(13.729858%,12.159729%,12.548828%);stroke-opacity:1;stroke-miterlimit:4;" d="M 0.00125625 -0.0015 L 14.173131 -0.0015 " transform="matrix(1,0,0,-1,28.3464,671.811)"/>
<path style="fill:none;stroke-width:0.25;stroke-linecap:butt;stroke-linejoin:miter;stroke:rgb(13.729858%,12.159729%,12.548828%);stroke-opacity:1;stroke-miterlimit:4;" d="M -0.001025 -0.0015 L 14.174756 -0.0015 " transform="matrix(1,0,0,-1,1318.1104,671.811)"/>
<path style="fill:none;stroke-width:0.25;stroke-linecap:butt;stroke-linejoin:miter;stroke:rgb(13.729858%,12.159729%,12.548828%);stroke-opacity:1;stroke-miterlimit:4;" d="M 0.00125625 0.00090625 L 14.173131 0.00090625 " transform="matrix(1,0,0,-1,28.3464,263.622)"/>
<path style="fill:none;stroke-width:0.25;stroke-linecap:butt;stroke-linejoin:miter;stroke:rgb(13.729858%,12.159729%,12.548828%);stroke-opacity:1;stroke-miterlimit:4;" d="M -0.001025 0.00090625 L 14.174756 0.00090625 " transform="matrix(1,0,0,-1,1318.1104,263.622)"/>
<path style="fill:none;stroke-width:0.25;stroke-linecap:butt;stroke-linejoin:miter;stroke:rgb(13.729858%,12.159729%,12.548828%);stroke-opacity:1;stroke-miterlimit:4;" d="M 0.00125625 0.000325 L 14.173131 0.000325 " transform="matrix(1,0,0,-1,28.3464,462.0472)"/>
<path style="fill:none;stroke-width:0.25;stroke-linecap:butt;stroke-linejoin:miter;stroke:rgb(13.729858%,12.159729%,12.548828%);stroke-opacity:1;stroke-miterlimit:4;" d="M -0.001025 0.000325 L 14.174756 0.000325 " transform="matrix(1,0,0,-1,1318.1104,462.0472)"/>
<path style="fill:none;stroke-width:0.25;stroke-linecap:butt;stroke-linejoin:miter;stroke:rgb(13.729858%,12.159729%,12.548828%);stroke-opacity:1;stroke-miterlimit:4;" d="M 0.00125625 -0.00025625 L 14.173131 -0.00025625 " transform="matrix(1,0,0,-1,28.3464,660.4724)"/>
<path style="fill:none;stroke-width:0.25;stroke-linecap:butt;stroke-linejoin:miter;stroke:rgb(13.729858%,12.159729%,12.548828%);stroke-opacity:1;stroke-miterlimit:4;" d="M -0.001025 -0.00025625 L 14.174756 -0.00025625 " transform="matrix(1,0,0,-1,1318.1104,660.4724)"/>
<path style="fill:none;stroke-width:0.25;stroke-linecap:butt;stroke-linejoin:miter;stroke:rgb(13.729858%,12.159729%,12.548828%);stroke-opacity:1;stroke-miterlimit:4;" d="M 0.00125625 -0.0009375 L 14.173131 -0.0009375 " transform="matrix(1,0,0,-1,28.3464,858.8975)"/>
<path style="fill:none;stroke-width:0.25;stroke-linecap:butt;stroke-linejoin:miter;stroke:rgb(13.729858%,12.159729%,12.548828%);stroke-opacity:1;stroke-miterlimit:4;" d="M -0.001025 -0.0009375 L 14.174756 -0.0009375 " transform="matrix(1,0,0,-1,1318.1104,858.8975)"/>
<path style=" stroke:none;fill-rule:nonzero;fill:rgb(13.729858%,12.159729%,12.548828%);fill-opacity:1;" d="M 22.675781 31.179688 C 27.375 31.179688 31.179688 27.375 31.179688 22.675781 C 31.179688 17.980469 27.375 14.171875 22.675781 14.171875 C 17.980469 14.171875 14.171875 17.980469 14.171875 22.675781 C 14.171875 27.375 17.980469 31.179688 22.675781 31.179688 "/>
<path style=" stroke:none;fill-rule:nonzero;fill:rgb(13.729858%,12.159729%,12.548828%);fill-opacity:1;" d="M 22.675781 921.261719 C 27.375 921.261719 31.179688 917.453125 31.179688 912.753906 C 31.179688 908.058594 27.375 904.25 22.675781 904.25 C 17.980469 904.25 14.171875 908.058594 14.171875 912.753906 C 14.171875 917.453125 17.980469 921.261719 22.675781 921.261719 "/>
<path style=" stroke:none;fill-rule:nonzero;fill:rgb(13.729858%,12.159729%,12.548828%);fill-opacity:1;" d="M 1337.953125 31.179688 C 1342.648438 31.179688 1346.457031 27.375 1346.457031 22.675781 C 1346.457031 17.980469 1342.648438 14.171875 1337.953125 14.171875 C 1333.253906 14.171875 1329.449219 17.980469 1329.449219 22.675781 C 1329.449219 27.375 1333.253906 31.179688 1337.953125 31.179688 "/>
<path style=" stroke:none;fill-rule:nonzero;fill:rgb(13.729858%,12.159729%,12.548828%);fill-opacity:1;" d="M 1337.953125 921.261719 C 1342.648438 921.261719 1346.457031 917.453125 1346.457031 912.753906 C 1346.457031 908.058594 1342.648438 904.25 1337.953125 904.25 C 1333.253906 904.25 1329.449219 908.058594 1329.449219 912.753906 C 1329.449219 917.453125 1333.253906 921.261719 1337.953125 921.261719 "/>
</g>
</svg>
