<?xml version="1.0" encoding="UTF-8" standalone="no"?>
<!-- Created with Inkscape (http://www.inkscape.org/) -->

<svg
   xmlns:dc="http://purl.org/dc/elements/1.1/"
   xmlns:cc="http://creativecommons.org/ns#"
   xmlns:rdf="http://www.w3.org/1999/02/22-rdf-syntax-ns#"
   xmlns:svg="http://www.w3.org/2000/svg"
   xmlns="http://www.w3.org/2000/svg"
   xmlns:sodipodi="http://sodipodi.sourceforge.net/DTD/sodipodi-0.dtd"
   xmlns:inkscape="http://www.inkscape.org/namespaces/inkscape"
   width="99.547974mm"
   height="90.61396mm"
   viewBox="0 0 99.547974 90.61396"
   version="1.1"
   id="svg8"
   sodipodi:docname="CastleGreen.svg"
   inkscape:version="0.92.4 (5da689c313, 2019-01-14)">
  <defs
     id="defs2" />
  <sodipodi:namedview
     id="base"
     pagecolor="#ffffff"
     bordercolor="#666666"
     borderopacity="1.0"
     inkscape:pageopacity="0.0"
     inkscape:pageshadow="2"
     inkscape:zoom="1.979899"
     inkscape:cx="96.729974"
     inkscape:cy="162.88957"
     inkscape:document-units="mm"
     inkscape:current-layer="g4079"
     showgrid="false"
     inkscape:window-width="1920"
     inkscape:window-height="1017"
     inkscape:window-x="-8"
     inkscape:window-y="-8"
     inkscape:window-maximized="1"
     fit-margin-top="0.5"
     fit-margin-right="0.5"
     fit-margin-left="0.5"
     fit-margin-bottom="0.5" />
  <metadata
     id="metadata5">
    <rdf:RDF>
      <cc:Work
         rdf:about="">
        <dc:format>image/svg+xml</dc:format>
        <dc:type
           rdf:resource="http://purl.org/dc/dcmitype/StillImage" />
        <dc:title></dc:title>
      </cc:Work>
    </rdf:RDF>
  </metadata>
  <g
     inkscape:label="Ebene 1"
     inkscape:groupmode="layer"
     id="layer1"
     transform="translate(-59.170401,-21.05474)">
    <g
       id="g370"
       transform="matrix(0.26458333,0,0,0.26458333,58.113831,22.475893)">
      <g
         style="display:none"
         inkscape:label="ground"
         id="layer1-1" />
      <g
         style="display:inline"
         inkscape:label="base"
         id="layer2"
         transform="rotate(2,190,170)">
        <g
           id="g4438">
          <path
             style="fill:#747474;fill-opacity:1;fill-rule:nonzero;stroke:none"
             d="m 169.34375,235.34375 14.65625,92.5 12.70447,7.06494 42.46828,-3.28829 -4.7665,-16.02665 8.125,-57.96875 z"
             id="path3930"
             inkscape:connector-curvature="0"
             sodipodi:nodetypes="ccccccc" />
          <path
             style="fill:#000000;fill-opacity:0.09019608;fill-rule:nonzero;stroke:none"
             d="m 201.75,245.21875 -29.03125,11.40625 0.25,1.59375 31.21875,-12.28125 z m 7.09375,2.15625 -35.40625,13.90625 0.28125,1.59375 37.5625,-14.75 z m 7.34375,2.21875 -41.96875,16.5 0.25,1.59375 43.21875,-16.96875 -0.3125,-0.75 z m 2.59375,3.9375 -43.8125,17.21875 0.25,1.59375 L 219.34375,255 Z m 10.34375,0.40625 -1.46875,0.59375 11.5625,26.6875 0.4375,-3 z m 3.8125,0.75 7.5625,17.46875 0.40625,-2.96875 -6,-13.875 z m -8.09375,0.9375 -1.46875,0.59375 14.625,33.75 0.40625,-3 z m 13.84375,0.84375 3.03125,6.96875 0.40625,-3 -1.4375,-3.375 z m -17.96875,0.78125 -1.46875,0.59375 0.0937,0.1875 -2.78125,1.09375 -0.0937,-0.1875 -1.5,0.5625 0.0937,0.21875 -2.96875,1.15625 -0.0937,-0.1875 -1.46875,0.5625 0.0937,0.21875 -2.78125,1.09375 -0.0937,-0.21875 -1.5,0.59375 0.0937,0.21875 -2.78125,1.09375 -0.0937,-0.21875 -1.5,0.59375 0.0937,0.21875 -2.78125,1.09375 -0.0937,-0.21875 -1.5,0.5625 0.0937,0.21875 -2.9375,1.15625 -0.0937,-0.1875 -1.5,0.5625 0.0937,0.21875 -2.78125,1.09375 -0.0937,-0.21875 -1.5,0.59375 0.0937,0.21875 -13.40625,5.28125 0.25,1.59375 1.40625,-0.53125 1.1875,2.75 -2.09375,0.8125 0.25,1.625 2.46875,-0.96875 1.28125,2.90625 -2.8125,1.125 -0.71875,-1.625 1,6.25 0.0625,0.15625 h -0.0312 l 0.25,1.625 0.40625,-0.15625 1.21875,2.75 -1.15625,0.4375 0.28125,1.625 1.5,-0.59375 1.1875,2.75 -2.21875,0.875 0.25,1.625 2.625,-1.03125 1.25,2.90625 -2.65625,1.03125 -1.1875,-2.78125 1,6.375 0.53125,1.21875 -0.3125,0.125 0.25,1.625 0.71875,-0.28125 0.9375,2.15625 -1.28125,0.5 0.25,1.625 1.65625,-0.65625 1.1875,2.75 -2.34375,0.9375 0.25,1.59375 2.71875,-1.0625 1.28125,2.90625 -2.78125,1.09375 -1.1875,-2.6875 1,6.3125 0.53125,1.1875 -0.3125,0.125 0.25,1.625 v 0 c 22.22491,10.2707 44.86335,4.83601 51.2187,-2.0937 l -1.1875,-2.75 1.9375,-0.75 -0.375,-1.59375 -2.1875,0.875 -1.28125,-2.90625 2.75,-1.0625 -0.46875,-1.96875 0.34375,-2.4375 -0.1875,-0.4375 0.25,-0.0937 0.25,-1.8125 -1.125,0.4375 -1.125,-2.59375 2.71875,-1.0625 0.5,-3.53125 -0.59375,-1.375 0.8125,-0.3125 0.25,-1.8125 -1.6875,0.65625 -1.28125,-2.90625 2.78125,-1.09375 0.5,1.15625 0.4375,-3.03125 z m -0.75,2.25 1.1875,2.75 -2.78125,1.09375 -1.1875,-2.75 z m -4.28125,1.6875 1.21875,2.75 -3,1.15625 -1.1875,-2.71875 z m -4.4375,1.75 1.1875,2.75 -2.78125,1.09375 -1.1875,-2.75 z m 10.5625,0.8125 1.25,2.875 -2.78125,1.09375 -1.25,-2.875 z m -14.84375,0.875 1.1875,2.75 -2.78125,1.09375 -1.1875,-2.75 z m 10.5625,0.78125 1.25,2.90625 -2.96875,1.1875 -1.25,-2.90625 z m -14.84375,0.90625 1.1875,2.75 -2.78125,1.0625 -1.1875,-2.71875 z m 10.40625,0.84375 1.25,2.90625 -2.78125,1.09375 -1.25,-2.90625 z m -14.65625,0.8125 1.1875,2.75 -2.96875,1.15625 -1.1875,-2.75 z m 25.28125,0.15625 1.1875,2.75 -2.78125,1.09375 -1.1875,-2.75 z m -14.90625,0.71875 1.25,2.90625 -2.78125,1.09375 -1.25,-2.90625 z m -14.84375,0.875 1.21875,2.75 -2.78125,1.09375 -1.21875,-2.75 z m 25.46875,0.0937 1.1875,2.71875 -2.96875,1.1875 -1.1875,-2.75 z m -14.90625,0.71875 1.25,2.90625 -2.78125,1.09375 -1.25,-2.90625 z m -14.84375,0.875 1.1875,2.75 -2.1875,0.875 -1.1875,-2.75 z m 25.3125,0.125 1.1875,2.75 -2.78125,1.09375 -1.1875,-2.75 2.78125,-1.0937 z m -14.75,0.65625 1.25,2.9375 -2.9375,1.15625 -1.25,-2.90625 z m 25.28125,0.15625 1.1875,2.75 -2.78125,1.09375 -1.1875,-2.75 z m -39.5,0.5 1.1875,2.75 -2.8125,1.125 -1.1875,-2.75 z m 24.6875,0.375 1.1875,2.75 -2.78125,1.09375 -1.1875,-2.75 z m -14.90625,0.71875 1.25,2.9375 -2.78125,1.09375 -1.25,-2.9375 z M 221.25,274 l 1.1875,2.78125 -2.96875,1.15625 -1.1875,-2.75 z m -39.5,0.53125 1.1875,2.75 -2.96875,1.15625 -1.1875,-2.75 z m 24.6875,0.375 1.1875,2.75 -2.78125,1.09375 -1.1875,-2.75 z m -14.90625,0.71875 1.25,2.90625 -2.1875,0.875 L 189.3125,276.5 Z m 25.28125,0.125 1.1875,2.75 -2.78125,1.09375 -1.1875,-2.75 z m 10.5625,0.8125 1.1875,2.75 -2.78125,1.09375 -1.1875,-2.75 z m -25.21875,0.0312 1.1875,2.71875 -2.9375,1.15625 -1.21875,-2.71875 z m -14.3125,0.46875 1.28125,2.9375 -2.8125,1.09375 -1.28125,-2.90625 z m 24.6875,0.375 1.1875,2.75 -2.78125,1.09375 -1.1875,-2.75 z m 10.5625,0.8125 1.1875,2.71875 -2.96875,1.1875 -1.1875,-2.75 z m -25.375,0.0625 1.1875,2.75 -2.78125,1.09375 -1.1875,-2.75 z m -14.15625,0.4375 1.28125,2.9375 -2.96875,1.15625 -1.28125,-2.9375 z m 24.6875,0.375 1.1875,2.75 -2.78125,1.09375 -1.1875,-2.75 z m 10.40625,0.84375 1.1875,2.75 -2.78125,1.09375 -1.1875,-2.75 z M 193.4375,280 l 1.1875,2.75 -2.21875,0.875 -1.1875,-2.75 z m 35.75,0.78125 1.25,2.90625 -2.78125,1.09375 -1.25,-2.90625 z m -25.21875,0.0312 1.1875,2.75 -2.9375,1.15625 -1.1875,-2.75 z m -14.21875,0.625 1.1875,2.75 -2.8125,1.125 -1.1875,-2.75 z m 24.625,0.21875 1.1875,2.75 -2.78125,1.09375 -1.1875,-2.75 z m 10.53125,0.8125 1.28125,2.90625 -2.96875,1.15625 -1.28125,-2.90625 z m -25.375,0.0625 1.1875,2.75 -2.78125,1.09375 -1.1875,-2.75 z m -14.0625,0.59375 1.1875,2.75 -2.96875,1.15625 -1.1875,-2.75 z m 24.625,0.21875 1.1875,2.75 -2.78125,1.09375 -1.1875,-2.75 z m -14.84375,0.875 1.1875,2.75 -2.1875,0.875 -1.21875,-2.75 z m 25.21875,0 1.28125,2.875 -2.78125,1.09375 -1.28125,-2.875 z m -39.4375,0.65625 1.1875,2.75 -2.8125,1.09375 -1.1875,-2.75 z m 24.78125,0.15625 1.1875,2.75 -2.9375,1.15625 -1.1875,-2.75 z m 25.28125,0.125 1.1875,2.75 1.5625,3.625 -2.78125,1.09375 -0.90625,-2.15625 2.71875,-1.0625 -0.59375,-1.5 L 229.5,289 l -1.1875,-2.75 2.78125,-1.09375 z m -39.5,0.5 1.1875,2.75 -2.8125,1.125 -1.21875,-2.75 z m 24.59375,0.21875 1.28125,2.90625 -2.8125,1.09375 -1.25,-2.90625 z m -14.8125,0.90625 1.1875,2.71875 -2.78125,1.09375 -1.1875,-2.71875 z m 25.4375,0.0625 1.1875,2.75 -2.96875,1.15625 -1.1875,-2.75 z m -39.5,0.5 1.1875,2.75 -2.96875,1.1875 -1.1875,-2.75 z m 24.59375,0.21875 1.25,2.90625 -2.78125,1.09375 -1.25,-2.90625 z m -14.8125,0.875 1.1875,2.75 -2.21875,0.875 -1.1875,-2.75 z m 25.28125,0.15625 1.1875,2.75 -2.78125,1.0625 -1.1875,-2.71875 z m -39.53125,0.5 1.21875,2.75 -2.8125,1.09375 -1.1875,-2.75 z m 24.78125,0.15625 1.28125,2.90625 -2.96875,1.15625 -1.25,-2.90625 z m -14.21875,0.65625 1.1875,2.71875 -2.8125,1.125 -1.1875,-2.75 z m 24.6875,0.34375 1.1875,2.75 -2.78125,1.09375 -1.1875,-2.75 z M 203.1875,291 l 1.28125,2.90625 -2.78125,1.09375 -1.28125,-2.90625 z m 25.46875,0.0625 0.9375,2.15625 -2.96875,1.15625 -0.9375,-2.15625 z m -39.53125,0.53125 1.1875,2.71875 -2.96875,1.1875 -1.1875,-2.75 z m 24.6875,0.34375 1.1875,2.75 -2.78125,1.09375 -1.1875,-2.75 z m -14.90625,0.75 1.28125,2.875 -2.21875,0.875 -1.25,-2.90625 z m 25.3125,0.125 0.90625,2.15625 -2.78125,1.09375 -0.90625,-2.15625 z M 234.5,293 l 1.1875,2.75 -2.78125,1.09375 -1.1875,-2.75 z m -49.8125,0.3125 1.1875,2.75 -2.8125,1.09375 -1.1875,-2.71875 z m 24.84375,0.3125 1.1875,2.75 -2.9375,1.15625 -1.1875,-2.75 z m -14.28125,0.5 1.25,2.90625 -2.8125,1.09375 -1.25,-2.90625 z m 24.6875,0.375 0.9375,2.15625 -2.8125,1.09375 -0.90625,-2.15625 z m 10.28125,0.15625 1.1875,2.78125 -2.96875,1.15625 -1.1875,-2.75 z m -25.125,0.71875 1.1875,2.75 -2.78125,1.09375 -1.1875,-2.75 z m -14.125,0.4375 1.25,2.875 -2.96875,1.1875 -1.25,-2.90625 z m 24.6875,0.375 0.90625,2.125 -2.78125,1.09375 L 212.875,297.25 Z m 10.125,0.21875 1.1875,2.78125 -2.78125,1.09375 L 223,297.5 Z m -24.96875,0.65625 1.1875,2.71875 -2.21875,0.875 -1.1875,-2.75 z m -14.28125,0.46875 1.25,2.90625 -2.8125,1.125 -1.25,-2.90625 z m 24.84375,0.3125 0.9375,2.15625 -2.96875,1.15625 L 208.40625,299 Z m 10.125,0.25 1.1875,2.78125 -2.78125,1.09375 -1.1875,-2.78125 z m -24.375,0.40625 1.1875,2.75 -2.8125,1.09375 -1.1875,-2.75 z m 34.90625,0.40625 1.28125,2.90625 -2.96875,1.15625 -1.28125,-2.90625 z m -25.09375,0.6875 0.9375,2.15625 -2.78125,1.09375 -0.9375,-2.15625 z m 10.28125,0.1875 1.1875,2.78125 -2.78125,1.09375 -1.1875,-2.78125 z m -24.375,0.40625 1.1875,2.71875 -2.9375,1.1875 -1.21875,-2.75 z m 34.75,0.4375 1.28125,2.9375 -2.78125,1.09375 -1.28125,-2.9375 z m -24.9375,0.65625 0.90625,2.15625 -2.1875,0.875 -0.9375,-2.15625 z m 10.28125,0.1875 1.1875,2.75 -2.9375,1.15625 -1.21875,-2.75 z m -24.53125,0.4375 1.1875,2.75 -2.8125,1.125 -1.1875,-2.75 z m 34.90625,0.40625 1.28125,2.9375 -2.78125,1.09375 -1.28125,-2.9375 z m -24.34375,0.40625 0.9375,2.15625 -2.8125,1.09375 -0.9375,-2.15625 z m 9.53125,0.46875 1.1875,2.78125 -2.78125,1.09375 -1.1875,-2.78125 z m 25.4375,0.0937 1.1875,2.75 -2.9375,1.1875 -1.21875,-2.78125 z m -49.8125,0.3125 1.1875,2.75 -2.625,1.03125 -1.1875,-2.75 z m 34.90625,0.4063 1.28125,2.9375 -2.78125,1.09375 -1.28125,-2.9375 z m -24.34375,0.40625 0.9375,2.15625 -2.96875,1.15625 -0.9375,-2.15625 z m 9.53125,0.46875 1.1875,2.78125 -2.21875,0.875 L 202,305.75 Z m 25.28125,0.15625 1.1875,2.75 -2.78125,1.09375 -1.1875,-2.78125 z m -14.75,0.65625 1.28125,2.90625 -2.9375,1.15625 -1.28125,-2.90625 z m -24.5,0.46875 0.9375,2.15625 -2.8125,1.09375 -0.9375,-2.15625 z m 10.28125,0.15625 1.1875,2.78125 -2.8125,1.125 -1.1875,-2.78125 z m 24.6875,0.375 1.1875,2.78125 -2.78125,1.09375 -1.1875,-2.78125 z m -14.90625,0.75 1.28125,2.90625 -2.78125,1.09375 -1.28125,-2.9375 z m -24.34375,0.375 0.9375,2.15625 -2.65625,1.0625 -0.9375,-2.15625 z M 196.25,308 l 1.1875,2.78125 -2.9375,1.15625 -1.21875,-2.78125 z m 24.6875,0.375 1.1875,2.78125 -2.78125,1.09375 -1.1875,-2.78125 z m -14.90625,0.71875 1.28125,2.9375 -2.21875,0.875 -1.25,-2.9375 z m 25.28125,0.125 1.125,2.59375 -2.78125,1.09375 -1.125,-2.59375 z M 191.8125,309.75 193,312.53125 190.1875,313.625 189,310.84375 Z m 24.84375,0.3125 1.1875,2.78125 -2.9375,1.15625 -1.1875,-2.78125 z m -14.28125,0.5 1.25,2.90625 -2.8125,1.09375 -1.28125,-2.90625 z m 24.65625,0.34375 1.125,2.59375 -2.78125,1.09375 L 224.25,312 Z m -39.5,0.53125 1.1875,2.78125 -2.625,1.03125 -1.21875,-2.78125 z m 24.6875,0.375 1.1875,2.75 -2.78125,1.09375 -1.1875,-2.75 z m -14.125,0.40625 1.25,2.9375 -2.96875,1.15625 -1.25,-2.90625 z m 24.65625,0.375 1.125,2.59375 -2.78125,1.09375 -1.125,-2.59375 z m 10.34375,0.71875 1.1875,2.75 -2.78125,1.0625 -1.1875,-2.71875 z m -25.15625,0.15625 1.1875,2.78125 -2.1875,0.875 -1.21875,-2.78125 z m -14.3125,0.5 1.28125,2.9375 -2.8125,1.09375 -1.25,-2.9375 z m 24.875,0.3125 1.125,2.59375 -2.96875,1.15625 -1.125,-2.59375 z m -14.25,0.65625 1.21875,2.75 -2.8125,1.125 -1.21875,-2.78125 z m 24.5625,0.0312 1.1875,2.75 -2.78125,1.09375 -1.1875,-2.71875 z m -39.46875,0.6875 1.28125,2.90625 -2.625,1.0625 -1.28125,-2.9375 z m 24.6875,0.375 1.15625,2.59375 -2.78125,1.09375 -1.15625,-2.59375 z m -14.0625,0.5625 1.21875,2.78125 -2.96875,1.15625 -1.21875,-2.75 z m 24.5625,0.0625 1.1875,2.75 -2.78125,1.09375 -1.1875,-2.75 z m -14.78125,1.03125 1.125,2.625 -2.1875,0.875 -1.125,-2.625 z m -14.21875,0.65625 1.21875,2.78125 -2.8125,1.09375 -1.21875,-2.75 z m 24.71875,0 1.1875,2.75 -2.9375,1.15625 -1.1875,-2.75 z m -14.15625,0.8125 1.125,2.59375 -2.8125,1.09375 -1.125,-2.59375 z m 24.5625,0.0625 1.25,2.90625 -2.78125,1.09375 -1.28125,-2.90625 z m -39.40625,0.8125 1.21875,2.78125 -2.65625,1.03125 -1.1875,-2.78125 z m 24.5625,0.0625 1.1875,2.75 -2.78125,1.09375 -1.1875,-2.75 z m -14,0.75 1.125,2.59375 -2.96875,1.15625 -1.125,-2.59375 z m 24.53125,0.0312 1.28125,2.90625 -2.78125,1.09375 -1.28125,-2.90625 z m -39.21875,0.78125 1.21875,2.78125 -2.78125,1.0625 -1.21875,-2.75 z m 24.40625,0.125 1.1875,2.75 -2.21875,0.84375 -1.1875,-2.75 z m -14.15625,0.78125 1.125,2.625 -2.8125,1.09375 -1.125,-2.59375 z m 24.71875,0 1.25,2.90625 -2.9375,1.15625 -1.28125,-2.90625 z m -14.25,0.65625 1.1875,2.75 -2.8125,1.09375 -1.1875,-2.75 z m 24.6875,0.375 1.1875,2.75 -2.78125,1.09375 -1.1875,-2.75 z m -39.4375,0.65625 1.125,2.625 -2.625,1.03125 -1.15625,-2.625 z m 24.53125,0.0625 1.28125,2.90625 -2.78125,1.09375 -1.28125,-2.90625 z m -14.0625,0.59375 1.1875,2.75 -2.96875,1.15625 -1.1875,-2.75 z m 24.6875,0.375 1.1875,2.71875 -2.78125,1.09375 -1.1875,-2.71875 z m -39.28125,0.59375 1.125,2.625 c -2.81892,1.33783 -2.74988,1.16694 -3.90625,-1.53125 z m 24.375,0.125 1.28125,2.90625 -2.21875,0.875 -1.25,-2.90625 z m -14.21875,0.65625 1.1875,2.71875 c -2.89528,1.40807 -2.80392,1.14487 -4,-1.625 z m 24.84375,0.28125 1.1875,2.75 -2.9375,1.15625 -1.1875,-2.75 z m -14.28125,0.5 1.25,2.90625 -2.8125,1.125 -1.25,-2.9375 z m 9.84375,1.25 1.1875,2.75 c -2.87961,1.38654 -2.78337,1.08884 -3.96875,-1.65625 z m -14.125,0.4375 c 2.48878,3.87307 -0.86164,6.10795 -2.96875,1.15625 z"
             id="rect3940"
             inkscape:connector-curvature="0"
             sodipodi:nodetypes="ccccccccccccccccccccccccccccccccccccccccccccccccccccccccccccccccccccccccccccccccccccccccccccccccccccccccccccccccccccccccccccccccccccccccccccccccccccccccccccccccccccccccccccccccccccccccccccccccccccccccccccccccccccccccccccccccccccccccccccccccccccccccccccccccccccccccccccccccccccccccccccccccccccccccccccccccccccccccccccccccccccccccccccccccccccccccccccccccccccccccccccccccccccccccccccccccccccccccccccccccccccccccccccccccccccccccccccccccccccccccccccccccccccccccccccccccccccccccccccccccccccccccccccccccccccccccccccccccccccccccccccccccccccccccccccccccccccccccccccccccccccccccccccccccccccccccccccccccccccccccccccccccccccccccccccccccccccccccccccccccccccccccccccccccccccccccccccccccccccccccccccccccccccccccccccccccccccccccccccccccccccccccccccccccccccccccccccccccccccccccccccccccccccccccccccccccccccccccccccccccccccccccccccccccccccccccccccccccccccccccccccccccccccccccccccccccccccccccccccccccccccccccccccccccccccccccccccccc" />
          <path
             style="fill:#000000;fill-opacity:0.43137255;fill-rule:nonzero;stroke:none"
             d="m 169.34375,235.34375 13.46875,84.9375 c 6.07658,-7.6166 18.01444,-12.8125 31.78125,-12.8125 7.55213,0 14.58194,1.55381 20.375,4.21875 l 7.5625,-54.0625 z"
             id="path3937"
             inkscape:connector-curvature="0"
             sodipodi:nodetypes="ccsccc" />
        </g>
        <path
           inkscape:connector-curvature="0"
           id="rect4421"
           d="m 226.00704,272.99556 v 43.9375 h 2.90625 v -43.9375 z m -6.4375,0.71875 v 43.90625 h 2.90625 v -43.90625 z m -6.65625,0.25 v 43.9375 h 2.9375 v -43.9375 z m -6.1875,0.53125 v 43.9375 h 2.9375 v -43.9375 z m -6.4375,0.53125 v 43.9375 h 2.90625 v -43.9375 z m -6.4375,0.71875 v 43.90625 h 2.90625 v -43.90625 z m -6.65625,0.25 v 43.9375 h 2.9375 v -43.9375 z"
           style="display:inline;fill:#000000;fill-opacity:1;fill-rule:nonzero;stroke:none" />
        <rect
           y="134.93903"
           x="81.317284"
           height="111.72287"
           width="229.1026"
           id="rect3926"
           style="fill:#604134;fill-opacity:1;fill-rule:nonzero;stroke:none" />
        <path
           inkscape:connector-curvature="0"
           id="path4380"
           d="m 81.3125,134.9375 v 20.34375 l 3.34375,0.90625 -1.125,4.25 -2.21875,-0.59375 v 4.25 l 1.15625,0.28125 -1.125,4.25 H 81.3125 v 15.65625 l 0.65625,-2.4375 4.1875,1.15625 -1.0625,3.78125 -3.78125,-1 v 4.25 l 2.75,0.75 -1.15625,4.34375 -1.59375,-0.4375 v 4.125 l 0.5625,0.15625 -0.5625,2.0625 v 16 l 0.15625,-0.5625 4.21875,1.125 -1.09375,4.15625 -3.28125,-0.9375 v 4.15625 l 2.25,0.625 -1.15625,4.34375 -1.09375,-0.3125 v 4.25 h 0.03125 L 81.3125,234 v 12.65625 h 0.90625 l 0.9375,-3.59375 4.09375,1.0625 -0.6875,2.53125 H 90.75 l 0.40625,-1.4375 4.3125,1.15625 -0.0625,0.28125 h 16.9375 l -3.71875,-1.03125 1.0625,-4.21875 4.34375,1.15625 -1.09375,4.09375 h 4.1875 l 0.78125,-3 3.90625,1 -0.5,2 h 4.25 l 0.25,-0.875 3.4375,0.875 h 15.5 l -1.59375,-0.40625 1.1875,-4.34375 4.3125,1.1875 -1,3.5625 h 4.21875 l 0.6875,-2.59375 4.59375,1.28125 -0.34375,1.3125 h 4.28125 l 0.0625,-0.28125 1.0625,0.28125 H 178.625 l 1.03125,-3.875 4.25,1.125 -0.71875,2.75 h 4.25 l 0.46875,-1.71875 3.84375,1.03125 -0.1875,0.6875 h 21.8125 l 0.875,-3.4375 4.34375,1.15625 -0.65625,2.28125 h 4.28125 l 0.3125,-1.21875 4.125,1.09375 -0.0312,0.125 h 16.28125 l -3.09375,-0.875 1.125,-4.125 4.1875,1.0625 -1.03125,3.9375 h 4.25 l 0.78125,-2.8125 4.21875,1.125 -0.4375,1.6875 h 4.25 L 257.3438,246 l 2.34375,0.65625 h 15.53125 l -0.75,-0.1875 1.15625,-4.34375 4.1875,1.0625 -0.9375,3.46875 h 4.1875 l 0.625,-2.375 4.34375,1.15625 -0.3125,1.21875 h 4.15625 l 0.0625,-0.21875 0.78125,0.21875 h 16.1875 l 1,-3.75 0.5,0.125 v -21.75 l -3.25,-0.875 1.125,-4.3125 2.125,0.59375 v -4.28125 l -1.03125,-0.28125 1.03125,-4 v -15.78125 l -0.53125,2 -3.65625,-0.96875 1.0625,-4.21875 3.125,0.90625 V 185.75 l -2.0625,-0.53125 1.15625,-4.25 0.90625,0.25 V 159.625 l -3.71875,-0.9375 1.09375,-4.21875 2.625,0.71875 V 151 l -1.53125,-0.40625 1.15625,-4.34375 0.375,0.0937 v -11.40625 h -10.4375 l 0.125,0.0312 -1.0938,4.15635 -4.34375,-1.15625 0.8125,-3.03125 H 291.25 l -0.53125,1.96875 -3.84375,-1.03125 0.25,-0.9375 h -21.78125 l -0.96875,3.6875 -4.3125,-1.09375 0.6875,-2.59375 h -4.21875 l -0.40625,1.53125 -4.15625,-1.125 0.0937,-0.40625 h -17.1875 l 3.875,1.03125 -1.0625,4.21875 -4.25,-1.125 1.15625,-4.125 h -4.1875 l -0.8125,3.09375 -4.34375,-1.1875 0.5,-1.90625 h -4.28125 l -0.25,0.84375 -3.15625,-0.84375 H 202.2187 l 1.96875,0.5 -1.15625,4.34375 -4.21875,-1.0625 1.03125,-3.78125 h -4.28125 l -0.71875,2.65625 -4.25,-1.15625 0.40625,-1.5 h -4.21875 l -0.125,0.46875 -1.71875,-0.46875 h -16.125 l -1,3.75 -4.1875,-1.0625 0.71875,-2.6875 h -4.28125 l -0.40625,1.625 -4.25,-1.1875 0.125,-0.4375 h -21.53125 l -0.875,3.28125 -4.1875,-1.0625 0.59375,-2.21875 h -4.1875 l -0.3125,1.125 -4.09375,-1.125 H 104.9062 l 2.75,0.75 -1.1875,4.15625 -4.21875,-1.125 1.03125,-3.78125 h -4.25 l -0.71875,2.71875 -4.15625,-1.09375 0.40625,-1.625 h -4.1875 l -0.15625,0.5625 -2.125,-0.5625 h -6.78125 z m 56.90625,0.0937 4.3125,1.15625 -1.125,4.25 -4.34375,-1.15625 z m 131.1875,0.34375 4.1875,1.15625 -1.15625,4.25 -4.1875,-1.0625 z m -96.65625,0.4688 4.34375,1.15625 -1.0625,3.9375 -4.34375,-1.15625 z m 131.28125,0.1875 4.1875,1.1875 -1.03125,4.09375 -4.25,-1.125 z M 208.125,136.5 l 4.28125,1.1875 -1.1875,4.28125 -4.25,-1.125 z m -96.53125,0.21875 4.15625,1.125 -1.1875,4.1875 -4.03125,-1.09375 z m 131.09375,0.3125 4.28125,1.21875 -1.09375,4.125 -4.25,-1.125 z M 146.5,137.25 l 3.84375,1.03125 -1.125,4.3125 -3.9375,-1.0625 z m 131.09375,0.3125 4.25,1.125 -1.1875,4.34375 -4.21875,-1.125 z m -96.625,0.53125 4.59375,1.1875 -1.0625,3.9375 -4.5625,-1.28125 z M 84.875,138.25 l 4.28125,1.1875 -1.125,4.25 -4.3125,-1.125 z m 131.46875,0.5 3.84375,1.03125 -1.15625,4.34375 -3.84375,-1.03125 z m -96.71875,0.1875 4.3125,1.09375 -1.09375,4.21875 -4.34375,-1.1875 z m 131.34375,0.3125 4.15625,1.125 -1.1875,4.15625 -4.125,-1.09375 z m -96.65625,0.15625 4.3125,1.09375 -1.21875,4.28125 -4.21875,-1.125 z m 131.46875,0.34375 3.9375,1.0625 -1.15625,4.34375 -3.9375,-1.0625 z m -96.21875,0.65625 4.21875,1.125 -1.03125,3.84375 -4.21875,-1.125 z m -96.5,0.0312 4.1875,1.15625 -1.15625,4.25 -4.1875,-1.0625 z m 131.09375,0.40625 4.3125,1.15625 -1.15625,4.34375 -4.28125,-1.21875 z m -96.28125,0.25 4.125,1.09375 -1.0625,4.21875 -4.25,-1.15625 z m 131.09375,0.3125 4.34375,1.15625 -1.125,4.125 -4.28125,-1.09375 z m -96.40625,0.15625 4.15625,1.15625 -1.125,4.25 -4.1875,-1.15625 z m 131.03125,0.34375 4.3125,1.09375 -1.15625,4.34375 -4.28125,-1.1875 z m -95.8125,0.65625 4.1875,1.15625 -1.09375,3.875 -4.125,-1.09375 z m -96.53125,0.0625 4.25,1.125 -1.1875,4.34375 -4.21875,-1.125 z m 131.125,0.375 4.1875,1.15625 -1.15625,4.34375 -4.1875,-1.15625 L 232.375,143 Z m -96.3125,0.28125 4.25,1.1875 -1.09375,4.15625 -4.34375,-1.15625 z m 131.1875,0.34375 4.125,1.09375 -1.0625,4.21875 -4.25,-1.15625 z m -96.59375,0.0937 4.3125,1.15625 -1.125,4.25 -4.34375,-1.15625 z m 131.28125,0.375 4.15625,1.09375 -1.1875,4.34375 -4.125,-1.09375 z m -96.03125,0.6875 4.3125,1.09375 -1.0625,3.9375 -4.28125,-1.1875 z m -96.46875,0.0312 4.125,1.125 -1.15625,4.3125 -4.125,-1.09375 z m 131.125,0.375 4.25,1.125 -1.15625,4.34375 -4.25,-1.125 z m -96.34375,0.28125 3.96875,1.0625 -1.1875,4.1875 -3.84375,-1.03125 z m 131.125,0.3125 4.25,1.1875 -1.09375,4.1564 -4.25,-1.125 1.09375,-4.21875 z m -96.46875,0.1875 4.59375,1.1875 -1.15625,4.25 -4.59375,-1.1875 z m -96.25,0.5 4.34375,1.15625 -1.25,4.625 -4.34375,-1.15625 z m 131.53125,0.46875 3.84375,1.03125 -1.0625,3.9375 -3.84375,-1.03125 z m -96.6875,0.0937 4.28125,1.09375 -1.15625,4.34375 -4.28125,-1.21875 z m 131.3125,0.40625 4.125,1.0625 -1.1875,4.3125 -4.125,-1.09375 z m -96.65625,0.15625 4.21875,1.125 -1.0625,4.21875 -4.25,-1.15625 z m 131.5,0.40645 3.84375,1.03125 -1.09375,4.21875 -3.9375,-1.0625 z m -96.1875,0.28125 4.25,1.125 -1.15625,4.25 -4.21875,-1.125 z m -96.53125,0.40625 4.15625,1.09375 -1.25,4.625 L 89.625,153.25 Z m 131.03125,0.34375 4.34375,1.15625 -1.0625,3.9375 -4.3125,-1.15625 z m -96.25,0.15625 4.1875,1.15625 -1.1875,4.28125 -4.15625,-1.125 z m 131.09375,0.40625 4.34375,1.15625 -1.1875,4.34375 -4.25,-1.21875 z m -96.4375,0.25 4.1875,1.0625 -1.15625,4.1875 -4.15625,-1.125 z m 131.0625,0.25 4.34375,1.15625 -1.1875,4.1875 -4.34375,-1.1875 z m -95.71875,0.34375 4.125,1.09375 -1.09375,4.3125 -4.1875,-1.15625 z M 99,150.84375 l 4.25,1.125 -1.1875,4.59375 -4.25,-1.125 z m 131.15625,0.4375 4.21875,1.0625 -1.0625,3.9375 -4.125,-1.09375 z m -96.28125,0.0937 4.28125,1.1875 -1.125,4.25 -4.3125,-1.125 z m 131.15625,0.375 4.15625,1.15625 -1.15625,4.34375 -4.1875,-1.1875 z m -96.59375,0.25 4.28125,1.09375 -1.0625,4.21875 -4.34375,-1.15625 z m 131.25,0.3125 4.1875,1.15625 -1.125,4.15625 -4.125,-1.125 z m -95.875,0.34375 4.28125,1.09375 -1.1875,4.28125 -4.25,-1.125 z m -96.53125,0.40625 4.03125,1.09375 -1.1875,4.59375 -4.125,-1.125 z m 131.0625,0.40625 4.25,1.125 -1.03125,3.84375 -4.25,-1.125 z m -96.28125,0.0937 3.9375,1.0625 -1.15625,4.3125 -3.9375,-1.03125 z m 131.15625,0.375 4.21875,1.125 -1.15625,4.34375 -4.25,-1.125 z m -96.5625,0.21875 4.65625,1.25 -1.1875,4.1875 -4.625,-1.25 z m 35.40625,0.65625 3.84375,1.03125 -1.15625,4.25 -3.84375,-1.03125 z m -96.8125,0.375 4.34375,1.1875 -1.25,4.625 -4.3125,-1.15625 z m 131.34375,0.4375 4.09375,1.15625 -1.03125,3.84375 -4.125,-1.0625 z m -96.625,0.0312 4.21875,1.15625 -1.15625,4.34375 -4.25,-1.15625 z m 131.46875,0.53125 3.90625,1 -1.1875,4.34375 -3.9375,-1.0625 z m -96.1875,0.28125 4.21875,1.125 -1.0625,4.21875 -4.34375,-1.1875 z m 34.59375,0.4375 4.34375,1.15625 -1.15625,4.25 L 218.75,161.2186 Z M 88.625,157.25 l 4.125,1.125 -1.125,4.21875 -4.21875,-1.0625 z m 34.84375,0.21875 4.21875,1.0625 -1.25,4.625 L 122.28125,162 Z m 131.125,0.28125 4.3125,1.1875 -1.03125,3.9375 -4.34375,-1.15625 z m -96.40625,0.1875 4.1875,1.0625 -1.15625,4.34375 -4.1875,-1.1875 z m 131.03125,0.34375 4.34375,1.15625 -1.21875,4.28125 -4.28125,-1.09375 z m -95.78125,0.375 4.21875,1.125 -1.15625,4.1875 -4.15625,-1.125 z m 34.6875,0.46875 4.125,1.125 -1.125,4.21875 -4.21875,-1.0625 z m -131.4375,0.28125 4.25,1.15625 -1.09375,4.28125 -4.28125,-1.1875 z m 34.9375,0.1875 4.34375,1.15625 -1.25,4.625 -4.28125,-1.1875 z m 131.1875,0.4375 4.1875,1.0625 -1.0625,3.9375 -4.15625,-1.15625 z m -96.5625,0.0625 4.3125,1.09375 -1.15625,4.34375 -4.28125,-1.1875 z M 297.5,160.5 l 4.1875,1.0625 -1.15625,4.34375 -4.1875,-1.0625 z m -95.875,0.34375 4.21875,1.125 -1.0625,4.21875 -4.25,-1.125 z m 34.625,0.5 4.21875,1.15625 -1.125,4.21875 -4.25,-1.125 z m -131.28125,0.28125 4.0625,1.09375 -1.125,4.3125 -4.0625,-1.15625 z m 34.9375,0.1875 3.84375,1.03125 -1.1875,4.59375 -3.9375,-1.0625 z M 271,162.21875 l 4.21875,1.125 -1.03125,3.84375 -4.21875,-1.125 z m -96.5,0.0312 4.625,1.25 -1.15625,4.3125 -4.625,-1.21875 L 174.5,162.25 Z m 131.0625,0.40625 4.34375,1.15625 -1.15625,4.34375 -4.28125,-1.1875 z m -95.71875,0.4375 3.84375,1.03125 -1.125,4.15625 -3.84375,-1.03125 z m 34.625,0.40625 4.09375,1.15625 -1.125,4.25 -4.09375,-1.15625 z m -131.5,0.28125 4.34375,1.15625 -1.15625,4.25 -4.34375,-1.1875 z m 34.8125,0.125 4.25,1.15625 -1.28125,4.5625 -4.21875,-1.125 z m 131.4375,0.46875 3.90625,1.09375 -1.03125,3.84375 -3.90625,-1 z m -96.125,0.15625 4.21875,1.15625 -1.15625,4.34375 -4.25,-1.15625 z m 34.59375,0.625 4.34375,1.15625 -1.1875,4.1875 L 216.5,169.3437 Z m -131.34375,0.3125 4.21875,1.0625 -1.125,4.25 -4.1875,-1.15625 z m 166.125,0.1875 4.34375,1.15625 -1.15625,4.25 -4.3125,-1.1875 z m -131.3125,0.3125 4.21875,1.125 -1.125,4.25 -4.1875,-1.0625 z m 34.8125,0.125 4.15625,1.125 -1.1875,4.59375 -4.1875,-1.0625 z m 131.0625,0.375 4.3125,1.15625 -1.03125,3.9375 -4.34375,-1.15625 z M 191.25,166.75 l 4.25,1.125 -1.15625,4.34375 -4.25,-1.15625 z m 34.625,0.59375 4.21875,1.125 -1.15625,4.1875 -4.15625,-1.09375 z m -131.34375,0.3125 4.25,1.15625 -1.125,4.125 -4.28125,-1.09375 z m 166.15625,0.25 4.21875,1.0625 -1.15625,4.25 -4.1875,-1.0625 z m -131.34375,0.25 4.3125,1.15625 -1.125,4.25 -4.34375,-1.15625 z m 34.71875,0.125 4.34375,1.15625 -1.25,4.625 -4.34375,-1.15625 z m 131.25,0.40625 4.15625,1.15625 -1.03125,3.84375 -4.1875,-1.0625 z m -95.875,0.25 4.25,1.125 -1.15625,4.34375 -4.25,-1.125 z m 34.59375,0.59375 4.25,1.15625 -1.0625,4.1875 -4.34375,-1.15625 z m -131.3125,0.3125 4.15625,1.125 -1.125,4.125 -4.09375,-1.03125 z m 166.125,0.1875 4.28125,1.1875 -1.15625,4.25 -4.21875,-1.125 z M 137.625,170.375 l 3.84375,1.03125 -1.15625,4.25 -3.84375,-1.03125 z m 34.625,0.0937 4.625,1.25 -1.25,4.625 -4.5625,-1.28125 z m 131.125,0.375 4.34375,1.15625 -1.0625,3.9375 -4.34375,-1.15625 z m -95.71875,0.34375 3.84375,1.03125 -1.125,4.25 -3.84375,-1.03125 z m 34.5625,0.53125 4.15625,1.125 -1.09375,4.1875 -4.125,-1.09375 z m -131.4375,0.25 4.25,1.1875 -1.0625,4.21875 -4.34375,-1.1875 z m 166.34375,0.2813 3.875,1.09375 -1.125,4.25 -3.90625,-1.09375 z m -131.625,0.25 4.25,1.125 -1.15625,4.25 -4.28125,-1.09375 z m 35.3125,0.25 4.34375,1.1875 -1.28125,4.5625 -4.21875,-1.125 z m 34.6875,0.5 4.28125,1.1875 -1.09375,4.3125 -4.34375,-1.1875 z m -131.34375,0.40625 4.21875,1.0625 -1.15625,4.25 -4.1875,-1.0625 z m 166.15625,0.25 4.28125,1.1875 -1.125,4.15625 -4.3125,-1.1875 z M 119,174.21875 l 4.125,1.09375 -1.0625,4.21875 -4.1875,-1.1875 z m 165.90625,0.125 4.34375,1.15625 -1.15625,4.25 -4.3125,-1.15625 z m -131.21875,0.34375 4.125,1.09375 -1.09375,4.3125 -4.1875,-1.15625 z m 35.40625,0.28125 4.15625,1.125 -1.1875,4.59375 -4.1875,-1.0625 z m 34.59375,0.46875 4.25,1.125 -1.15625,4.34375 -4.25,-1.125 z m -131.375,0.34375 4.28125,1.1875 -1.15625,4.25 -4.21875,-1.125 z m 166.1875,0.3125 4.1875,1.15625 -1.125,4.15625 -4.125,-1.125 z m -131.3125,0.3125 4.3125,1.15625 -1.15625,4.1875 L 126,180.59375 Z m 166,0.15625 4.1875,1.15625 -1.15625,4.25 -4.15625,-1.15625 z M 161.75,176.84375 166.09375,178 l -1.125,4.25 -4.34375,-1.15625 z m 35.53125,0.34375 4.25,1.125 L 200.25,182.875 196,181.75 Z m 34.59375,0.4375 4.25,1.125 -1.15625,4.34375 -4.25,-1.125 z M 100.59375,178 l 4.0625,1.15625 -1.125,4.21875 -4.125,-1.09375 z m 166.09375,0.28125 4.21875,1.125 -1.15625,4.1875 -4.25,-1.125 z m -131.34375,0.3125 3.96875,1.0625 -1.1875,4.1875 -3.84375,-1.03125 z m 165.9375,0.125 4.3125,1.15625 -1.125,4.25 -4.34375,-1.15625 z m -131.34375,0.3125 4.65625,1.25 -1.15625,4.25 -4.59375,-1.1875 z m 35.53125,0.34375 3.84375,1.03125 -1.25,4.625 L 204.21875,184 Z m 34.59375,0.4375 4.125,1.125 -1.15625,4.3125 -4.125,-1.09375 z m -131.46875,0.34375 4.3125,1.15625 -1.125,4.21875 -4.34375,-1.15625 z m 166.28125,0.3125 3.9375,1.0625 -1.1875,4.1875 -3.84375,-1.03125 z m -131.625,0.25 4.21875,1.125 -1.0625,4.21875 -4.28125,-1.21875 z m 35.28125,0.625 4.34375,1.15625 -1.21875,4.28125 -4.21875,-1.125 z m 34.71875,0.125 4.34375,1.15625 -1.25,4.625 -4.25,-1.1875 z m 34.90625,0.5 4.28125,1.21875 -1.15625,4.21875 -4.3125,-1.09375 z m -131.34375,0.4375 4.1875,1.0625 -1.125,4.25 -4.21875,-1.09375 z m 165.875,0.21875 4.3125,1.09375 -1.09375,4.21875 -4.34375,-1.1875 z m -131.1875,0.25 4.15625,1.15625 -1.09375,4.15625 -4.21875,-1.09375 z m 35.3125,0.6875 4.125,1.09375 -1.125,4.25 -4.15625,-1.09375 z m 34.71875,0.125 4.15625,1.09375 -1.25,4.625 L 220.25,188.25 Z m -131.375,0.34375 4.25,1.125 L 93.375,189 l -4.25,-1.125 z m 166.1875,0.15625 4.15625,1.15625 -1.125,4.25 -4.21875,-1.09375 z m -131.40625,0.34375 4.34375,1.15625 -1.125,4.25 -4.3125,-1.09375 z m 166.09375,0.28125 4.125,1.09375 -1.0625,4.21875 -4.25,-1.15625 z m -131.46875,0.21875 4.28125,1.1875 -1.0625,4.21875 -4.34375,-1.15625 z M 195,185.75 l 4.21875,1.125 -1.125,4.25 -4.3125,-1.09375 z m 34.625,0.0937 4.34375,1.15625 -1.28125,4.5625 -4.25,-1.125 z m -131.28125,0.375 4.125,1.125 -1.03125,3.84375 -4.125,-1.125 z M 264.5,186.375 l 4.25,1.125 -1.15625,4.34375 -4.25,-1.15625 z m -131.34375,0.40625 3.90625,1 -1.09375,4.28125 -3.9375,-1.03125 z m 165.96875,0.1875 4.25,1.1875 -1.09375,4.15625 -4.34375,-1.15625 z m -131.34375,0.3125 4.65625,1.25 -1.1875,4.1875 -4.5625,-1.28125 z m 35.40625,0.65625 3.84375,1.03125 -1.15625,4.25 -3.84375,-1.03125 z m 34.71875,0.125 4.125,1.09375 -1.25,4.59375 -4.125,-1.0625 z m -131.53125,0.375 4.3125,1.15625 -1.0625,3.78125 -4.21875,-1.15625 z m 166.3125,0.125 3.9375,1.0625 -1.15625,4.3125 -3.9375,-1.03125 z m -131.625,0.34375 4.28125,1.09375 -1.1875,4.28125 -4.25,-1.15625 z m 35.3125,0.6875 4.21875,1.125 -1.09375,4.15625 -4.25,-1.15625 z m 34.59375,0.4375 4.34375,1.15625 -1.15625,4.25 -4.34375,-1.15625 z m 34.9375,0.15625 4.3125,1.1875 L 249,196 l -4.34375,-1.15625 z m -131.3125,0.40625 4.1875,1.15625 -1.0625,3.78125 -4.15625,-1.09375 z m 165.9375,0.125 4.28125,1.09375 -1.15625,4.34375 -4.28125,-1.21875 z m -131.25,0.34375 4.1875,1.15625 -1.125,4.25 -4.1875,-1.1875 z m 35.28125,0.71875 4.21875,1.125 -1.15625,4.1875 -4.15625,-1.125 z M 88,191.84375 l 4.3125,1.09375 -1.15625,4.34375 -4.25,-1.125 z m 131.25,0.40625 4.125,1.125 -1.125,4.21875 -4.15625,-1.09375 z m 34.9375,0.15625 4.125,1.125 -1.25,4.625 L 252.90625,197 Z m -131.40625,0.375 4.28125,1.1875 -0.96875,3.8125 L 121.75,196.625 Z M 288.875,192.875 293,194 l -1.15625,4.34375 -4.15625,-1.125 z m -131.5,0.34375 4.34375,1.15625 -1.125,4.25 -4.34375,-1.15625 z m 35.34375,0.75 4.25,1.125 -1.0625,4.21875 -4.28125,-1.1875 z m -96.4375,0.0937 4.125,1.0625 -1.1875,4.34375 -4.125,-1.125 z m 131.03125,0.34375 4.34375,1.1875 -1.1875,4.25 -4.25,-1.125 z m 34.9375,0.1875 4.28125,1.1875 -1.21875,4.53125 -4.25,-1.125 z m -131.28125,0.375 3.9375,1.0625 -1.03125,3.84375 -3.9375,-1.0625 z m 165.96875,0.0937 4.28125,1.1875 -1.125,4.25 -4.3125,-1.09375 z m -131.34375,0.40625 4.59375,1.1875 -1.125,4.21875 -4.59375,-1.15625 z m 35.375,0.65625 3.78125,1.0625 -1.0625,4.21875 -3.84375,-1.03125 z m -96.6875,0.0937 4.34375,1.15625 -1.1875,4.34375 -4.3125,-1.15625 z m 131.3125,0.40625 4.15625,1.125 -1.1875,4.28125 -4.09375,-1.15625 z m 34.9375,0.1875 3.84375,1.03125 -1.15625,4.59375 -3.96875,-1.0625 z m -131.6875,0.25 4.25,1.15625 -1.03125,3.84375 -4.25,-1.125 z m 166.28125,0.1875 3.6875,1.03125 -1.125,4.25 -3.71875,-0.9375 z m -130.9375,0.53125 4.21875,1.125 -1.125,4.25 -4.25,-1.15625 z m 34.625,0.5 4.34375,1.15625 -1.1875,4.1875 -4.34375,-1.15625 z m -96.28125,0.0937 4.15625,1.15625 -1.15625,4.34375 -4.1875,-1.15625 z m 131.0625,0.40625 4.34375,1.15625 -1.15625,4.25 -4.3125,-1.1875 z m 34.71875,0.0937 4.34375,1.1875 -1.21875,4.625 -4.34375,-1.15625 z m -131.25,0.46875 4.21875,1.0625 -1.03125,3.84375 -4.21875,-1.0625 z m 35.34375,0.59375 4.15625,1.09375 -1.09375,4.3125 -4.1875,-1.1875 z m -96.5625,0.15625 4.25,1.125 -1.125,4.15625 -4.21875,-1.125 z M 217,200.4685 l 4.21875,1.125 -1.15625,4.1875 -4.15625,-1.09375 1.09375,-4.2185 z m -96.375,0.125 4.34375,1.15625 -1.15625,4.34375 -4.28125,-1.1875 z m 131.25,0.4065 4.125,1.09375 -1.125,4.25 -4.1875,-1.0625 z m 34.71875,0.0937 4.25,1.15625 -1.28125,4.5625 -4.1875,-1.0625 z m -131.4375,0.40625 4.3125,1.09375 -1.03125,3.84375 -4.25,-1.125 z m 35.375,0.65625 4.3125,1.09375 -1.1875,4.28125 -4.25,-1.125 z m -96.5,0.125 4.15625,1.125 -1.125,4.125 -4.125,-1.09375 z m 131.125,0.375 4.25,1.15625 -1.09375,4.125 -4.25,-1.125 z m -96.28125,0.0937 3.875,1.09375 -1.09375,4.3125 -3.9375,-1.0625 z m 131.09375,0.40625 4.21875,1.125 -1.09375,4.3125 -4.28125,-1.1875 z m 34.71875,0.125 4.34375,1.15625 -1.25,4.625 -4.34375,-1.15625 z m -131.28125,0.375 4.625,1.25 L 167,208.75 l -4.625,-1.25 1.03125,-3.84375 z m 35.375,0.65625 3.84375,1.03125 -1.125,4.25 -3.84375,-1.03125 z m -96.6875,0.0937 4.3125,1.15625 -1.125,4.21875 -4.34375,-1.15625 z m 131.25,0.4375 4.15625,1.125 -1.125,4.125 -4.09375,-1.03125 z m -96.5625,0.0312 4.25,1.1875 -1.1875,4.28125 -4.25,-1.125 z m 131.46875,0.5 3.84375,1.03125 -1.09375,4.3125 -3.90625,-1.09375 z m 34.71875,0.125 3.65625,0.96875 -1.25,4.625 -3.6875,-1.03125 z m -131,0.4375 4.25,1.15625 -1.03125,3.84375 -4.25,-1.125 z m 34.59375,0.46875 4.34375,1.15625 -1.125,4.25 -4.3125,-1.125 z m -96.25,0.25 4.1875,1.0625 -1.125,4.25 -4.1875,-1.1875 z m 131.125,0.375 4.3125,1.09375 -1.15625,4.25 -4.34375,-1.1875 z M 145,207.125 l 4.1875,1.0625 -1.15625,4.34375 -4.21875,-1.0625 z m 131.03125,0.34375 4.34375,1.15625 -1.15625,4.25 -4.3125,-1.15625 z m -95.875,0.6875 4.25,1.125 -1.03125,3.84375 -4.25,-1.125 z m -96.53125,0.0625 4.25,1.125 -1.125,4.3125 -4.25,-1.1875 z m 131.21875,0.40625 4.15625,1.09375 -1.125,4.25 -4.21875,-1.0625 z m -96.40625,0.15625 4.34375,1.15625 -1.125,4.25 -4.28125,-1.21875 z m 131.1875,0.4375 4.1875,1.0625 -1.125,4.25 -4.1875,-1.1875 z m -96.5625,0.0625 4.34375,1.15625 -1.15625,4.34375 -4.34375,-1.15625 z m 131.25,0.40625 4.25,1.125 -1.21875,4.28125 -4.15625,-1.15625 z m -95.96875,0.65625 4.25,1.125 -1.03125,3.84375 -4.25,-1.125 z m -96.4375,0.0937 4.03125,1.09375 -1.09375,4.28125 -4.0625,-1.125 z m 131.0625,0.40625 4.25,1.125 -1.125,4.25 -4.25,-1.125 z m -96.3125,0.1875 3.9375,1.0625 -1.09375,4.125 -3.9375,-1.03125 z m 131.15625,0.375 4.21875,1.125 -1.09375,4.15625 -4.3125,-1.09375 z m -96.5,0.0312 4.5625,1.28125 -1.15625,4.34375 -4.5625,-1.28125 z m 131.09375,0.40625 4.3125,1.15625 -1.125,4.25 -4.34375,-1.15625 z M 99.875,212.5625 l 4.34375,1.1875 -1.125,4.21875 L 98.75,216.8125 Z m 96.6875,0.0312 3.84375,1.03125 -1.0625,3.78125 -3.75,-1 z m 34.65625,0.4063 4.09375,1.15625 -1.15625,4.21875 -4.0625,-1.125 z m -96.65625,0.15625 4.21875,1.125 -1.09375,4.15625 -4.25,-1.15625 z m 131.4375,0.4375 3.9375,1.0625 -1.125,4.125 -3.90625,-0.96875 z m -96.09375,0.15625 4.21875,1.125 -1.15625,4.34375 -4.25,-1.125 z m 130.78125,0.3125 3.625,1 -1.125,4.21875 -3.71875,-0.9375 z m -96.28125,0.59375 4.28125,1.1875 -0.96875,3.8125 L 203.375,218.5 Z m -96.28125,0.0625 4.1875,1.1875 -1.125,4.25 -4.21875,-1.09375 z m 131.09375,0.4375 4.3125,1.15625 -1.125,4.21875 -4.34375,-1.15625 z m -96.4375,0.15625 4.1875,1.15625 -1.09375,4.15625 -4.21875,-1.09375 z m 131.0625,0.34375 4.28125,1.1875 -1.09375,4.21875 -4.34375,-1.1875 z M 178.125,216 l 4.125,1.09375 -1.09375,4.3125 -4.21875,-1.0625 z m 34.46875,0.84375 4.1875,1.15625 -0.96875,3.8125 -4.25,-1.125 z m -96.34375,0.125 4.34375,1.15625 -1.125,4.25 -4.34375,-1.1875 z m 131.1875,0.4375 4.1875,1.0625 -1.125,4.25 -4.21875,-1.09375 z m -96.5625,0.0625 4.34375,1.15625 -1.125,4.25 -4.34375,-1.15625 z m 131.28125,0.46875 4.125,1.09375 -1.09375,4.15625 -4.21875,-1.09375 z m -95.90625,0.1875 4.28125,1.1875 -1.1875,4.28125 -4.25,-1.125 z m -96.59375,0.53125 4.125,1.09375 -1.09375,4.15625 -4.09375,-1.15625 z m 131.125,0.375 4.25,1.125 L 224,224 l -4.25,-1.125 z m -96.25,0.15625 3.84375,1.03125 -1.125,4.21875 -3.84375,-1.03125 z m 131.0625,0.40625 4.25,1.125 -1.125,4.25 -4.25,-1.15625 z m -96.5,0.125 4.59375,1.1875 -1.125,4.25 L 158,223.875 Z m 131.15625,0.375 4.28125,1.09375 -1.125,4.25 -4.34375,-1.15625 z m -95.78125,0.28125 3.84375,1.03125 -1.15625,4.34375 -3.84375,-1.03125 z m -96.78125,0.375 4.28125,1.21875 -1.03125,4.09375 -4.34375,-1.15625 z m 131.28125,0.46875 4.125,1.125 -1.03125,3.84375 -4.125,-1.125 z m -96.5625,0.0625 4.25,1.15625 -1.125,4.21875 -4.3125,-1.09375 z m 131.4375,0.46875 3.90625,1.09375 -1.15625,4.21875 -3.9375,-1.03125 z m -96.15625,0.28125 4.21875,1.125 -1.09375,4.15625 -4.25,-1.15625 z m 130.71875,0.25 3.75,1 -1.15625,4.1875 -3.6875,-1.03125 z m -96.125,0.1875 4.3125,1.15625 -1.15625,4.34375 -4.28125,-1.1875 z m -96.375,0.53125 4.15625,1.125 -1.0625,4.09375 -4.1875,-1.0625 z m 131.15625,0.375 4.25,1.21875 -0.96875,3.8125 -4.3125,-1.1875 z m -96.46875,0.125 4.15625,1.09375 -1.09375,4.3125 -4.1875,-1.1875 z m 131.0625,0.34375 4.3125,1.15625 -1.125,4.21875 L 270.5,228.0625 Z m -95.71875,0.34375 4.15625,1.15625 L 179,229.5 l -4.21875,-1.09375 z m 130.1875,0.15625 4.21875,1.15625 -1.09375,4.125 -4.3125,-1.09375 z m -95.625,0.28125 4.1875,1.15625 -1.15625,4.34375 -4.1875,-1.15625 z m -96.40625,0.59375 4.3125,1.09375 -1.125,4.125 -4.34375,-1.15625 z m 131.125,0.375 4.1875,1.15625 -0.96875,3.8125 -4.21875,-1.125 z m -96.53125,0.0625 4.34375,1.15625 -1.15625,4.25 -4.3125,-1.15625 z m 131.25,0.40625 4.15625,1.15625 -1.125,4.25 -4.1875,-1.1875 z m -95.90625,0.34375 4.25,1.125 -1.09375,4.15625 -4.25,-1.125 z m -96.53125,0.25 4.15625,1.09375 -1.15625,4.34375 -4.15625,-1.125 z m 131.1875,0.15625 4.25,1.125 -1.15625,4.34375 -4.25,-1.125 z m -96.40625,0.59375 3.9375,1.0625 -1.15625,4.0625 -3.84375,-1.03125 z m 131.125,0.375 4.25,1.125 -1.03125,3.84375 -4.25,-1.125 z m -96.53125,0.0625 4.625,1.25 -1.125,4.21875 -4.59375,-1.15625 z m 131.125,0.375 4.34375,1.15625 -1.125,4.25 -4.34375,-1.15625 z m -95.71875,0.34375 3.84375,1.03125 -1.125,4.25 -3.84375,-1.03125 z m -96.75,0.28125 L 99.875,230 98.65625,234.28125 94.375,233.1875 Z m 131.375,0.21875 4.125,1.0625 -1.1875,4.34375 -4.09375,-1.0625 z m -96.75,0.4375 4.25,1.15625 -1.0625,4.09375 -4.28125,-1.09375 z m 131.4375,0.46875 3.9375,1.0625 -1.03125,3.84375 -3.9375,-1.0625 z m -96.15625,0.1875 4.34375,1.15625 -1.1875,4.28125 -4.25,-1.15625 z m 130.78125,0.3125 3.71875,0.9375 -1.125,4.25 -3.71875,-0.9375 z m -96.15625,0.1875 4.34375,1.15625 -1.125,4.25 L 199,234.84375 Z M 103.78125,231 l 4.15625,1.1875 -1.1875,4.25 -4.125,-1.09375 z m 131.125,0.21875 4.34375,1.15625 -1.1875,4.34375 -4.25,-1.21875 z m -96.5,0.4375 4.1875,1.1875 -1.125,4.125 -4.15625,-1.15625 z m 131.03125,0.46875 4.28125,1.09375 -1.03125,3.84375 -4.34375,-1.15625 z m -95.71875,0.25 4.15625,1.09375 -1.15625,4.25 -4.125,-1.125 z m 130.1875,0.15625 4.25,1.125 -1.125,4.25 -4.25,-1.125 z m -95.625,0.375 4.21875,1.0625 -1.125,4.25 -4.1875,-1.1875 z m -96.375,0.3125 4.3125,1.1875 -1.15625,4.3125 -4.28125,-1.1875 z m 131.25,0.15625 4.15625,1.15625 -1.15625,4.34375 -4.1875,-1.15625 z m -96.65625,0.46875 4.28125,1.1875 -1.0625,4.09375 -4.34375,-1.15625 z m 131.28125,0.4375 4.125,1.125 -1.03125,3.84375 -4.125,-1.09375 z m -95.875,0.28125 4.25,1.125 -1.125,4.25 -4.3125,-1.09375 z m -96.5625,0.3125 4.09375,1.15625 -1.125,4.15625 -4.125,-1.125 z m 131.125,0.21875 4.25,1.125 -1.125,4.15625 -4.21875,-1.125 z m -96.34375,0.28125 3.96875,1.0625 -1.1875,4.34375 -3.9375,-1.0625 z m 131.21875,0.1875 4.21875,1.125 -1.15625,4.34375 -4.25,-1.125 z m -96.625,0.53125 4.625,1.25 -1.15625,4.0625 -4.59375,-1.1875 z m 131.125,0.375 4.28125,1.1875 -1.0625,3.78125 -4.25,-1.125 z m -95.75,0.28125 3.84375,1.03125 -1.125,4.25 L 188.96875,241 Z m -96.75,0.28125 4.34375,1.15625 -1.1875,4.1875 -4.3125,-1.09375 z m 131.375,0.21875 4.09375,1.15625 -1.125,4.125 -4.09375,-1.03125 z m -96.6875,0.25 4.21875,1.125 -1.15625,4.34375 -4.21875,-1.125 z m 131.53125,0.3125 3.90625,1 -1.1875,4.34375 -3.9375,-1.0625 z m -96.28125,0.5625 4.25,1.15625 -1.125,4.125 -4.21875,-1.125 z m 130.75,0.28125 3.6875,1.03125 -0.96875,3.8125 -3.75,-1 z m -96.15625,0.1875 4.34375,1.15625 -1.125,4.25 -4.34375,-1.1875 z m -96.3125,0.4375 4.1875,1.0625 -1.125,4.25 -4.1875,-1.15625 z m 131.15625,0.125 4.3125,1.15625 -1.125,4.21875 -4.34375,-1.15625 z M 136.25,239.75 l 4.1875,1.0625 -1.15625,4.34375 -4.1875,-1.0625 z m 131.09375,0.15625 4.34375,1.15625 -1.21875,4.28125 -4.28125,-1.09375 z m -95.875,0.6875 4.25,1.125 -1.15625,4.0625 -4.125,-1.09375 z m 130.25,0.125 4.25,1.125 -1.03125,3.84375 -4.25,-1.125 z m -95.5625,0.34375 4.15625,1.09375 -1.15625,4.25 -4.125,-1.125 z"
           style="fill:#000000;fill-opacity:0.09411765;fill-rule:nonzero;stroke:none" />
        <path
           inkscape:connector-curvature="0"
           d="m 25.861,67.935 28.322,185.9 62.577,-11.94 5.43,29.13 183.78,-20.14 v -0.03 l 1.74,-10.71 43.06,-6.09 L 330.82,92.175 292.93,61.508 25.86,67.93 Z m 264.08,46.315 7.01,88.96 -180.19,23.06 -14.89,-120.73 166.67,-6.68 z"
           style="fill:#cccccc;fill-rule:evenodd;stroke:#000000;stroke-width:2;stroke-linejoin:round"
           sodipodi:nodetypes="ccccccccccccccccc"
           id="path3161" />
        <path
           inkscape:connector-curvature="0"
           d="m 362.83,232.34 -55.12,7.81 -1.74,10.74 -40.2,4.4 -1.08,-12.3 -23.34,2.33 -4.3,13.12 -17.23,1.89 -1.07,-12.31 -28.01,4.14 0.37,11.32 -22.97,2.51 -4.3,-14.55 -29.81,2.34 -0.35,15.99 -11.49,1.26 -5.43,-29.13 -73.214,13.98 12.351,83.12 77.723,-6.57 1.07,-15.26 48.66,3.57 c 0,0 -0.19,-28.36 4.85,-37.08 4.85,-8.41 34.68,-11.26 39.86,-2.29 6.04,10.46 6.45,35.44 6.45,35.44 l 61.39,-4.71 -2.66,16.23 53.94,-1.91 z"
           style="fill:#b3b3b3;fill-rule:evenodd;stroke:#000000;stroke-width:2;stroke-linejoin:round"
           sodipodi:nodetypes="ccccccccccccccccccccccccccccc"
           id="path4137" />
        <path
           inkscape:connector-curvature="0"
           d="m 267.27,152.15 -158.99,5.46 -5.9,-52.58 11.7,-0.56 0.92,-13.504 27.86,-0.925 0.46,13.009 17.54,-0.84 -0.16,-12.07 25.43,-0.283 -1.88,11.213 14.93,-0.92 0.82,-10.526 18.42,-0.103 0.92,9.856 23.4,-1.132 0.56,-8.831 19.31,-0.642 -0.24,8.655 6.43,1.338 z"
           style="fill:#b3b3b3;fill-rule:evenodd;stroke:#000000;stroke-width:2;stroke-linejoin:round"
           sodipodi:nodetypes="ccccccccccccccccccccc"
           id="path4139" />
        <path
           inkscape:connector-curvature="0"
           d="m 79.372,288.97 -1.016,-14.74 h 11.685 l 2.163,13.05 z"
           style="fill:#5f5f5f;fill-opacity:1;fill-rule:evenodd;stroke:#000000;stroke-width:2;stroke-linejoin:round"
           sodipodi:nodetypes="ccccc"
           id="path8237" />
        <path
           inkscape:connector-curvature="0"
           d="m 327.83,260.15 -0.43,13.83 11.04,-0.29 1.97,-14.22 z"
           style="fill:#5f5f5f;fill-opacity:1;fill-rule:evenodd;stroke:#000000;stroke-width:2;stroke-linejoin:round"
           sodipodi:nodetypes="ccccc"
           id="path8239" />
        <path
           inkscape:connector-curvature="0"
           d="m 278.02,313.91 7.28,-61.2 -24.98,-44.62 3.48,-11.79 43.57,44.22 -14.13,87.79 z"
           style="fill:#808080;fill-rule:evenodd;stroke:#000000;stroke-width:2"
           sodipodi:nodetypes="ccccccc"
           id="path4154" />
        <path
           inkscape:connector-curvature="0"
           d="m 116.77,241.9 10.69,-34.57 5.56,17.08 -2.16,43.72 7.71,49.07 -4.94,15.23 z"
           style="fill:#808080;fill-rule:evenodd;stroke:#000000;stroke-width:2"
           sodipodi:nodetypes="ccccccc"
           id="path4160" />
        <path
           inkscape:connector-curvature="0"
           d="M 103.62,85.532 102.6,106.37 31.989,110.94 22.337,82.991 Z"
           style="fill:#b3b3b3;fill-rule:evenodd;stroke:#000000;stroke-width:2;stroke-linejoin:round"
           sodipodi:nodetypes="ccccc"
           id="path4201" />
        <path
           inkscape:connector-curvature="0"
           d="M 55.481,92.875 58.721,109.2 74.55,107.84 73.171,92.152 Z"
           style="fill:#845340;fill-opacity:1;fill-rule:evenodd;stroke:#000000;stroke-width:2;stroke-linejoin:round"
           sodipodi:nodetypes="ccccc"
           id="path4262" />
        <path
           inkscape:connector-curvature="0"
           d="m 267.27,152.15 20.57,10.21 2.08,-48.25 -5.38,-3.87 2.64,-8.43 -15.02,-10.778 -0.85,9.678 -2.51,-1.818 z"
           style="fill:#b3b3b3;fill-rule:evenodd;stroke:#000000;stroke-width:2;stroke-linejoin:round"
           sodipodi:nodetypes="ccccccccc"
           id="path4290" />
        <path
           inkscape:connector-curvature="0"
           d="m 294.21,203.18 -6.37,-40.82 2.08,-48.25 1.02,13.48 1.65,-8.89 2.54,12.42 -3.14,10.21 1.12,14.7 3.36,-6.75 -0.13,10.66 -2.19,9.79 2.51,33.03 z"
           style="fill:#808080;fill-rule:evenodd;stroke:#000000;stroke-width:2;stroke-linejoin:round"
           sodipodi:nodetypes="ccccccccccccc"
           id="path4292" />
        <path
           inkscape:connector-curvature="0"
           d="m 270.31,223.83 6.86,13.21 2.67,-10.8 -3.94,-6.48 z"
           style="fill:#845340;fill-opacity:1;fill-rule:evenodd;stroke:#000000;stroke-width:2;stroke-linejoin:round"
           sodipodi:nodetypes="ccccc"
           id="path4256" />
        <path
           inkscape:connector-curvature="0"
           d="m 132.51,235.77 -0.51,11.94 -3.15,-10.68 0.86,-8.7 z"
           style="fill:#3f1300;fill-rule:evenodd;stroke:#000000;stroke-width:2;stroke-linejoin:round"
           sodipodi:nodetypes="ccccc"
           id="path4260" />
        <path
           inkscape:connector-curvature="0"
           id="path4071"
           d="m 234.4375,315.8125 -51.09375,3.9375 a 1.0001,1.0001 0 1 0 0.15625,1.96875 l 51.09375,-3.90625 a 1.0030471,1.0030471 0 1 0 -0.15625,-2 z"
           style="color:#000000;font-style:normal;font-variant:normal;font-weight:normal;font-stretch:normal;font-size:medium;line-height:normal;font-family:Sans;-inkscape-font-specification:Sans;text-indent:0;text-align:start;text-decoration:none;text-decoration-line:none;letter-spacing:normal;word-spacing:normal;text-transform:none;writing-mode:lr-tb;direction:ltr;baseline-shift:baseline;text-anchor:start;display:inline;overflow:visible;visibility:visible;fill:#000000;fill-opacity:1;fill-rule:nonzero;stroke:none;stroke-width:2;marker:none;enable-background:accumulate" />
        <g
           transform="matrix(2.2657429,0,0,2.2657429,-378.28197,-58.597711)"
           id="g4079">
          <path
             inkscape:connector-curvature="0"
             id="path4077"
             d="m 312.43307,43.688695 c 0,0 -2.61834,3.41003 -6.3024,-0.06227 -3.68406,-3.472301 -6.79331,-0.538901 -6.79331,-0.538901 l 2.15529,-9.353147 c 0,0 3.14538,-2.909314 6.8556,-0.13228 C 312.05847,36.379129 316.25,33.125 316.25,33.125 Z"
             style="fill:#19d000;fill-opacity:1;fill-rule:nonzero;stroke:#000000;stroke-width:0.88271272;stroke-linecap:round;stroke-linejoin:round;stroke-miterlimit:4;stroke-dasharray:none;stroke-dashoffset:0;stroke-opacity:1"
             sodipodi:nodetypes="czcczcc" />
          <path
             style="fill:#567b2b;fill-opacity:1;fill-rule:nonzero;stroke:#4d3025;stroke-width:0.88271272;stroke-linecap:round;stroke-linejoin:round;stroke-miterlimit:4;stroke-dasharray:none;stroke-dashoffset:0;stroke-opacity:1"
             d="m 296.80807,54.063695 4.68458,-20.32932"
             id="path4075"
             inkscape:connector-curvature="0" />
        </g>
      </g>
      <g
         style="display:inline"
         inkscape:label="baseteeth"
         id="layer9"
         transform="rotate(2,190,170)">
        <path
           inkscape:connector-curvature="0"
           d="m 178.81,205.21 6.09,9.15 -1.78,10.93 -6.35,-6.61 z"
           style="fill:#808080;fill-rule:evenodd;stroke:#000000;stroke-width:2;stroke-linejoin:round"
           sodipodi:nodetypes="ccccc"
           id="path4218" />
        <path
           inkscape:connector-curvature="0"
           d="m 178.55,205.21 6.1,9.91 26.29,-3.43 1.9,-9.14 z"
           style="fill:#cccccc;fill-rule:evenodd;stroke:#000000;stroke-width:2;stroke-linejoin:round"
           sodipodi:nodetypes="ccccc"
           id="path4220" />
        <path
           inkscape:connector-curvature="0"
           d="m 183.12,225.29 1.27,-10.42 26.55,-3.18 -0.13,12.2 z"
           style="fill:#b3b3b3;fill-rule:evenodd;stroke:#000000;stroke-width:2;stroke-linejoin:round"
           sodipodi:nodetypes="ccccc"
           id="path4224" />
        <path
           inkscape:connector-curvature="0"
           d="m 214.37,213.85 -3.18,9.53 -0.25,-11.69 1.9,-9.4 z"
           style="fill:#808080;fill-rule:evenodd;stroke:#000000;stroke-width:2;stroke-linejoin:round"
           sodipodi:nodetypes="ccccc"
           id="path4226" />
        <path
           inkscape:connector-curvature="0"
           d="m 225.79,212.25 2.16,8.8 4.67,-10.06 -4.85,-11.68 z"
           style="fill:#808080;fill-rule:evenodd;stroke:#000000;stroke-width:2;stroke-linejoin:round"
           id="path4228" />
        <path
           inkscape:connector-curvature="0"
           d="m 251.84,197.87 4.49,11.32 -23.71,1.8 -4.85,-11.68 z"
           style="fill:#cccccc;fill-rule:evenodd;stroke:#000000;stroke-width:2;stroke-linejoin:round"
           sodipodi:nodetypes="ccccc"
           id="path4230" />
        <path
           inkscape:connector-curvature="0"
           d="m 255.43,217.64 0.9,-8.45 -23.71,1.8 -4.31,10.06 z"
           style="fill:#b3b3b3;fill-rule:evenodd;stroke:#000000;stroke-width:2;stroke-linejoin:round"
           sodipodi:nodetypes="ccccc"
           id="path4232" />
        <path
           inkscape:connector-curvature="0"
           d="m 161.67,209.37 3.95,9.34 -27.3,1.98 -3.05,-12.04 z"
           style="fill:#cccccc;fill-rule:evenodd;stroke:#000000;stroke-width:2;stroke-linejoin:round"
           sodipodi:nodetypes="ccccc"
           id="path4234" />
        <path
           inkscape:connector-curvature="0"
           d="m 135.27,223.03 0.18,-14.74 2.87,12.4 v 13.66 z"
           style="fill:#808080;fill-rule:evenodd;stroke:#000000;stroke-width:2;stroke-linejoin:round"
           sodipodi:nodetypes="ccccc"
           id="path4238" />
        <path
           inkscape:connector-curvature="0"
           d="m 157.46,82.335 3.4,7.574 25.39,0.163 -3.66,-7.89 z"
           style="fill:#cccccc;fill-rule:evenodd;stroke:#000000;stroke-width:2;stroke-linejoin:round"
           sodipodi:nodetypes="ccccc"
           id="path4264" />
        <path
           inkscape:connector-curvature="0"
           d="m 157.46,82.335 3.4,7.574 0.25,12.201 -5.1,-6.272 z"
           style="fill:#808080;fill-rule:evenodd;stroke:#000000;stroke-width:2;stroke-linejoin:round"
           sodipodi:nodetypes="ccccc"
           id="path4266" />
        <path
           inkscape:connector-curvature="0"
           d="m 195.89,84.312 4.3,5.238 -0.83,10.58 -5.1,-6.268 z"
           style="fill:#808080;fill-rule:evenodd;stroke:#000000;stroke-width:2;stroke-linejoin:round"
           sodipodi:nodetypes="ccccc"
           id="path4268" />
        <path
           inkscape:connector-curvature="0"
           d="m 111.48,83.413 3.22,7.934 -0.47,12.563 -4.38,-7.174 z"
           style="fill:#808080;fill-rule:evenodd;stroke:#000000;stroke-width:2;stroke-linejoin:round"
           sodipodi:nodetypes="ccccc"
           id="path4270" />
        <path
           inkscape:connector-curvature="0"
           d="m 195.89,84.312 4.3,5.238 18.03,-0.196 -2.76,-5.195 z"
           style="fill:#cccccc;fill-rule:evenodd;stroke:#000000;stroke-width:2;stroke-linejoin:round"
           sodipodi:nodetypes="ccccc"
           id="path4272" />
        <path
           inkscape:connector-curvature="0"
           d="m 111.48,83.413 3.22,7.934 28.27,-1.275 -1.87,-5.194 z"
           style="fill:#cccccc;fill-rule:evenodd;stroke:#000000;stroke-width:2;stroke-linejoin:round"
           sodipodi:nodetypes="ccccc"
           id="path4274" />
        <path
           inkscape:connector-curvature="0"
           d="m 241.43,84.222 1.69,4.609 19.11,0.253 2.08,-5.644 z"
           style="fill:#cccccc;fill-rule:evenodd;stroke:#000000;stroke-width:2;stroke-linejoin:round"
           sodipodi:nodetypes="ccccc"
           id="path4276" />
        <path
           inkscape:connector-curvature="0"
           d="m 265.31,92.128 -2.7,5.328 -0.02,-8.372 2.08,-5.644 z"
           style="fill:#808080;fill-rule:evenodd;stroke:#000000;stroke-width:2;stroke-linejoin:round"
           sodipodi:nodetypes="ccccc"
           id="path4278" />
        <path
           inkscape:connector-curvature="0"
           d="m 241.43,84.222 1.69,4.609 0.07,9.596 -3.13,-5.284 z"
           style="fill:#808080;fill-rule:evenodd;stroke:#000000;stroke-width:2;stroke-linejoin:round"
           sodipodi:nodetypes="ccccc"
           id="path4280" />
        <path
           inkscape:connector-curvature="0"
           d="m 213.36,234.1 5.39,13.92 -28.01,4.14 -3.94,-13.48 z"
           style="fill:#cccccc;fill-rule:evenodd;stroke:#000000;stroke-width:2;stroke-linejoin:round"
           sodipodi:nodetypes="ccccc"
           id="path8253" />
        <path
           inkscape:connector-curvature="0"
           d="m 167.42,239.76 -3.58,11.68 -29.81,2.34 6.83,-11.68 z"
           style="fill:#cccccc;fill-rule:evenodd;stroke:#000000;stroke-width:2;stroke-linejoin:round"
           sodipodi:nodetypes="ccccc"
           id="path8255" />
        <path
           inkscape:connector-curvature="0"
           d="m 261.1,227.98 3.59,15.01 -23.34,2.33 -4.3,-15.63 z"
           style="fill:#cccccc;fill-rule:evenodd;stroke:#000000;stroke-width:2;stroke-linejoin:round"
           sodipodi:nodetypes="ccccc"
           id="path8257" />
        <path
           inkscape:connector-curvature="0"
           d="m 233.44,246.31 3.95,10.69 3.96,-11.68 -4.3,-15.63 z"
           style="fill:#808080;fill-rule:evenodd;stroke:#000000;stroke-width:2;stroke-linejoin:round"
           sodipodi:nodetypes="ccccc"
           id="path8259" />
        <path
           inkscape:connector-curvature="0"
           d="m 186.06,254.94 5.39,8.17 -0.71,-10.95 -3.94,-13.48 z"
           style="fill:#808080;fill-rule:evenodd;stroke:#000000;stroke-width:2;stroke-linejoin:round"
           sodipodi:nodetypes="ccccc"
           id="path8261" />
        <path
           inkscape:connector-curvature="0"
           d="m 167.42,239.76 -3.58,11.68 4.32,14.55 3.96,-9.88 z"
           style="fill:#808080;fill-rule:evenodd;stroke:#000000;stroke-width:2;stroke-linejoin:round"
           sodipodi:nodetypes="ccccc"
           id="path8263" />
        <path
           inkscape:connector-curvature="0"
           d="m 164.19,227.7 1.43,-8.99 -27.3,1.98 v 13.66 z"
           style="fill:#b3b3b3;fill-rule:evenodd;stroke:#000000;stroke-width:2;stroke-linejoin:round"
           sodipodi:nodetypes="ccccc"
           id="path4236" />
        <path
           inkscape:connector-curvature="0"
           d="m 31.246,113.58 3.402,16.2 11.741,-1.99 -0.07,-15.08 z"
           style="fill:#cccccc;fill-rule:evenodd;stroke:#000000;stroke-width:2;stroke-linejoin:round"
           sodipodi:nodetypes="ccccc"
           id="path4305" />
        <path
           inkscape:connector-curvature="0"
           d="m 36.634,140.18 -1.986,-10.4 11.741,-1.99 1.726,13.31 z"
           style="fill:#b3b3b3;fill-rule:evenodd;stroke:#000000;stroke-width:2;stroke-linejoin:round"
           sodipodi:nodetypes="ccccc"
           id="path4307" />
        <path
           inkscape:connector-curvature="0"
           d="m 49.566,125.8 -1.986,14.76 -1.191,-12.77 -0.07,-15.08 z"
           style="fill:#808080;fill-rule:evenodd;stroke:#000000;stroke-width:2;stroke-linejoin:round"
           sodipodi:nodetypes="ccccc"
           id="path4309" />
        <path
           inkscape:connector-curvature="0"
           d="m 40.537,166.95 -1.987,-10.4 12.101,0.89 1.366,10.43 z"
           style="fill:#b3b3b3;fill-rule:evenodd;stroke:#000000;stroke-width:2;stroke-linejoin:round"
           sodipodi:nodetypes="ccccc"
           id="path4311" />
        <path
           inkscape:connector-curvature="0"
           d="m 98.012,174.49 -1.986,-10.39 11.744,-1.99 3.16,12.59 z"
           style="fill:#cccccc;fill-rule:evenodd;stroke:#000000;stroke-width:2;stroke-linejoin:round"
           sodipodi:nodetypes="ccccc"
           id="path4313" />
        <path
           inkscape:connector-curvature="0"
           d="m 91.546,132.81 0.528,-10.4 13.176,1.96 0.29,9.36 z"
           style="fill:#b3b3b3;fill-rule:evenodd;stroke:#000000;stroke-width:2;stroke-linejoin:round"
           sodipodi:nodetypes="ccccc"
           id="path4315" />
        <path
           inkscape:connector-curvature="0"
           d="m 96.216,153.65 -0.909,-8.6 13.533,-0.19 -1.14,9.72 z"
           style="fill:#b3b3b3;fill-rule:evenodd;stroke:#000000;stroke-width:2;stroke-linejoin:round"
           sodipodi:nodetypes="ccccc"
           id="path4317" />
        <path
           inkscape:connector-curvature="0"
           d="m 43.41,186.71 -1.627,-9.31 9.586,-1.28 3.522,11.52 z"
           style="fill:#b3b3b3;fill-rule:evenodd;stroke:#000000;stroke-width:2;stroke-linejoin:round"
           sodipodi:nodetypes="ccccc"
           id="path4319" />
        <path
           inkscape:connector-curvature="0"
           d="m 36.944,143.95 1.606,12.6 12.101,0.89 -2.945,-15.8 z"
           style="fill:#cccccc;fill-rule:evenodd;stroke:#000000;stroke-width:2;stroke-linejoin:round"
           sodipodi:nodetypes="ccccc"
           id="path4323" />
        <path
           inkscape:connector-curvature="0"
           d="m 40.537,166.2 1.246,11.2 9.586,-1.28 1.261,-10.58 z"
           style="fill:#cccccc;fill-rule:evenodd;stroke:#000000;stroke-width:2;stroke-linejoin:round"
           sodipodi:nodetypes="ccccc"
           id="path4327" />
        <path
           inkscape:connector-curvature="0"
           d="m 55.265,176.65 -0.55,10.09 -3.346,-10.62 1.261,-10.32 z"
           style="fill:#808080;fill-rule:evenodd;stroke:#000000;stroke-width:2;stroke-linejoin:round"
           sodipodi:nodetypes="ccccc"
           id="path4329" />
        <path
           inkscape:connector-curvature="0"
           d="m 98.012,174.49 0.169,9.73 12.819,2.68 -0.07,-12.56 z"
           style="fill:#b3b3b3;fill-rule:evenodd;stroke:#000000;stroke-width:2;stroke-linejoin:round"
           sodipodi:nodetypes="ccccc"
           id="path4331" />
        <path
           inkscape:connector-curvature="0"
           d="m 98.012,174.49 -1.986,-10.39 -0.832,9.87 3.163,10.07 z"
           style="fill:#808080;fill-rule:evenodd;stroke:#000000;stroke-width:2;stroke-linejoin:round"
           sodipodi:nodetypes="ccccc"
           id="path4333" />
        <path
           inkscape:connector-curvature="0"
           d="m 95.497,135.68 -0.19,9.37 13.533,-0.19 -2.58,-8.97 z"
           style="fill:#cccccc;fill-rule:evenodd;stroke:#000000;stroke-width:2;stroke-linejoin:round"
           sodipodi:nodetypes="ccccc"
           id="path4337" />
        <path
           inkscape:connector-curvature="0"
           d="m 88.672,110.17 3.402,12.24 13.176,1.96 -1.51,-14.71 z"
           style="fill:#cccccc;fill-rule:evenodd;stroke:#000000;stroke-width:2;stroke-linejoin:round"
           sodipodi:nodetypes="ccccc"
           id="path4341" />
        <path
           inkscape:connector-curvature="0"
           d="M 88.672,110.17 92.074,122.41 91.602,133 88.298,120.08 Z"
           style="fill:#808080;fill-rule:evenodd;stroke:#000000;stroke-width:2;stroke-linejoin:round"
           sodipodi:nodetypes="ccccc"
           id="path4343" />
        <path
           inkscape:connector-curvature="0"
           d="m 274.32,53.81 3.22,5.756 14.81,-0.474 8.67,6.308 6.57,-1.255 -11.01,-10.308 z"
           style="fill:#cccccc;fill-rule:evenodd;stroke:#000000;stroke-width:2;stroke-linejoin:round"
           sodipodi:nodetypes="ccccccc"
           id="path3768" />
        <path
           inkscape:connector-curvature="0"
           d="m 277.56,66.27 -0.02,-6.704 14.81,-0.474 -0.31,6.899 z"
           style="fill:#b3b3b3;fill-rule:evenodd;stroke:#000000;stroke-width:2;stroke-linejoin:round"
           sodipodi:nodetypes="ccccc"
           id="path3772" />
        <path
           inkscape:connector-curvature="0"
           d="m 292.35,59.092 8.67,6.308 -0.25,7.183 -8.6,-6.211 z"
           style="fill:#b3b3b3;fill-rule:evenodd;stroke:#000000;stroke-width:2;stroke-linejoin:round"
           sodipodi:nodetypes="ccccc"
           id="path3774" />
        <path
           inkscape:connector-curvature="0"
           d="m 307.47,63.942 -6.45,1.458 -0.25,7.183 5.11,-0.621 z"
           style="fill:#b3b3b3;fill-rule:evenodd;stroke:#000000;stroke-width:2;stroke-linejoin:round"
           sodipodi:nodetypes="ccccc"
           id="path3776" />
        <path
           inkscape:connector-curvature="0"
           d="m 277.56,66.27 -0.02,-6.704 -3.52,-5.946 0.87,8.051 z"
           style="fill:#808080;fill-rule:evenodd;stroke:#000000;stroke-width:2;stroke-linejoin:round"
           sodipodi:nodetypes="ccccc"
           id="path3778" />
        <path
           inkscape:connector-curvature="0"
           d="m 318.32,76.201 -5.05,2.341 12.85,10.916 0.04,10.622 5.86,-0.539 L 331.6,86 Z"
           style="fill:#cccccc;fill-rule:evenodd;stroke:#000000;stroke-width:2;stroke-linejoin:round"
           sodipodi:nodetypes="ccccccc"
           id="path3780" />
        <path
           inkscape:connector-curvature="0"
           d="m 313.34,86.517 -0.19,-7.72 12.97,10.661 -2.06,5.885 z"
           style="fill:#b3b3b3;fill-rule:evenodd;stroke:#000000;stroke-width:2;stroke-linejoin:round"
           sodipodi:nodetypes="ccccc"
           id="path3782" />
        <path
           inkscape:connector-curvature="0"
           d="m 325.33,104.3 0.88,-4.307 -0.09,-10.535 -2.06,5.885 z"
           style="fill:#808080;fill-rule:evenodd;stroke:#000000;stroke-width:2;stroke-linejoin:round"
           sodipodi:nodetypes="ccccc"
           id="path3784" />
        <path
           inkscape:connector-curvature="0"
           d="m 325.15,104.66 1.06,-4.667 5.48,-0.653 0.99,6.42 z"
           style="fill:#b3b3b3;fill-rule:evenodd;stroke:#000000;stroke-width:2;stroke-linejoin:round"
           sodipodi:nodetypes="ccccc"
           id="path3786" />
        <path
           inkscape:connector-curvature="0"
           d="m 190.49,58.597 -1.52,6.099 20.82,-0.763 2.16,-5.844 z"
           style="fill:#cccccc;stroke:#000000;stroke-width:2;stroke-linecap:round;stroke-linejoin:round"
           sodipodi:nodetypes="ccccc"
           id="path3788" />
        <path
           inkscape:connector-curvature="0"
           d="m 250.94,59.232 14.48,-0.127 -1.27,-4.701 h -14.98 z"
           style="fill:#cccccc;stroke:#000000;stroke-width:2;stroke-linecap:round;stroke-linejoin:round"
           sodipodi:nodetypes="ccccc"
           id="path3792" />
        <path
           inkscape:connector-curvature="0"
           d="m 250.94,59.232 14.48,-0.127 -0.25,5.845 -14.61,0.762 z"
           style="fill:#b3b3b3;stroke:#000000;stroke-width:2;stroke-linecap:round;stroke-linejoin:round"
           sodipodi:nodetypes="ccccc"
           id="path3794" />
        <path
           inkscape:connector-curvature="0"
           d="m 250.94,59.232 -1.77,-4.955 -0.51,7.623 1.9,3.812 z"
           style="fill:#808080;stroke:#000000;stroke-width:2;stroke-linecap:round;stroke-linejoin:round"
           sodipodi:nodetypes="ccccc"
           id="path3796" />
        <path
           inkscape:connector-curvature="0"
           d="m 189.47,69.778 -0.5,-5.082 20.82,-0.763 -0.25,5.591 z"
           style="fill:#b3b3b3;stroke:#000000;stroke-width:2;stroke-linecap:round;stroke-linejoin:round"
           sodipodi:nodetypes="ccccc"
           id="path3798" />
        <path
           inkscape:connector-curvature="0"
           d="m 212.72,63.679 -2.54,5.717 -0.39,-5.463 2.16,-5.844 z"
           style="fill:#808080;stroke:#000000;stroke-width:2;stroke-linecap:round;stroke-linejoin:round"
           sodipodi:nodetypes="ccccc"
           id="path3800" />
        <path
           inkscape:connector-curvature="0"
           d="m 223.89,61.011 15.75,-0.508 -1.27,-4.701 -14.86,0.635 z"
           style="fill:#cccccc;stroke:#000000;stroke-width:2;stroke-linecap:round;stroke-linejoin:round"
           sodipodi:nodetypes="ccccc"
           id="path3802" />
        <path
           inkscape:connector-curvature="0"
           d="m 223.89,61.011 15.75,-0.508 0.25,4.828 -16,1.524 z"
           style="fill:#b3b3b3;stroke:#000000;stroke-width:2;stroke-linecap:round;stroke-linejoin:round"
           sodipodi:nodetypes="ccccc"
           id="path3804" />
        <path
           inkscape:connector-curvature="0"
           d="m 223.89,61.011 -0.38,-4.574 -0.51,6.353 0.89,4.065 z"
           style="fill:#808080;stroke:#000000;stroke-width:2;stroke-linecap:round;stroke-linejoin:round"
           sodipodi:nodetypes="ccccc"
           id="path3806" />
        <path
           inkscape:connector-curvature="0"
           d="m 291.93,141.39 2.59,-10.4 7.53,0.88 1.36,10.44 z"
           style="fill:#b3b3b3;fill-rule:evenodd;stroke:#000000;stroke-width:2;stroke-linejoin:round"
           sodipodi:nodetypes="ccccc"
           id="path3808" />
        <path
           inkscape:connector-curvature="0"
           d="m 330.86,152.49 -1.98,-10.39 10.22,0.54 2.14,10.06 z"
           style="fill:#cccccc;fill-rule:evenodd;stroke:#000000;stroke-width:2;stroke-linejoin:round"
           sodipodi:nodetypes="ccccc"
           id="path3810" />
        <path
           inkscape:connector-curvature="0"
           d="m 327.29,131.14 1.79,-8.6 8.55,0.06 -1.15,9.72 z"
           style="fill:#b3b3b3;fill-rule:evenodd;stroke:#000000;stroke-width:2;stroke-linejoin:round"
           sodipodi:nodetypes="ccccc"
           id="path3812" />
        <path
           inkscape:connector-curvature="0"
           d="m 294.55,170.04 1.43,-9.94 5.26,-0.9 -0.11,10.5 z"
           style="fill:#b3b3b3;fill-rule:evenodd;stroke:#000000;stroke-width:2;stroke-linejoin:round"
           sodipodi:nodetypes="ccccc"
           id="path3814" />
        <path
           inkscape:connector-curvature="0"
           d="m 292.91,118.64 1.61,12.61 7.53,0.62 -2.95,-15.79 z"
           style="fill:#cccccc;fill-rule:evenodd;stroke:#000000;stroke-width:2;stroke-linejoin:round"
           sodipodi:nodetypes="ccccc"
           id="path3816" />
        <path
           inkscape:connector-curvature="0"
           d="m 296.62,149.18 -0.64,10.92 5.4,0.13 0.36,-10.85 z"
           style="fill:#cccccc;fill-rule:evenodd;stroke:#000000;stroke-width:2;stroke-linejoin:round"
           sodipodi:nodetypes="ccccc"
           id="path3818" />
        <path
           inkscape:connector-curvature="0"
           d="m 330.86,153 -0.08,9.73 10.53,2.17 -0.07,-12.56 z"
           style="fill:#b3b3b3;fill-rule:evenodd;stroke:#000000;stroke-width:2;stroke-linejoin:round"
           sodipodi:nodetypes="ccccc"
           id="path3822" />
        <path
           inkscape:connector-curvature="0"
           d="m 330.36,152.49 -1.99,-10.39 -0.83,9.86 3.16,10.08 z"
           style="fill:#808080;fill-rule:evenodd;stroke:#000000;stroke-width:2;stroke-linejoin:round"
           sodipodi:nodetypes="ccccc"
           id="path3824" />
        <path
           inkscape:connector-curvature="0"
           d="m 326.83,113.42 2.14,9.02 8.66,0.16 -2.58,-8.97 z"
           style="fill:#cccccc;fill-rule:evenodd;stroke:#000000;stroke-width:2;stroke-linejoin:round"
           sodipodi:nodetypes="ccccc"
           id="path3826" />
        <path
           inkscape:connector-curvature="0"
           d="m 327.29,131.14 1.79,-8.6 -2.22,-9.28 -1.33,8.1 z"
           style="fill:#808080;fill-rule:evenodd;stroke:#000000;stroke-width:2;stroke-linejoin:round"
           sodipodi:nodetypes="ccccc"
           id="path3830" />
        <path
           inkscape:connector-curvature="0"
           d="m 104.63,66.22 3.31,8.64 0.25,-12.451 -3.05,-4.32 z"
           style="fill:#808080;stroke:#000000;stroke-width:2;stroke-linecap:round;stroke-linejoin:round"
           sodipodi:nodetypes="ccccc"
           id="path2787" />
        <path
           inkscape:connector-curvature="0"
           d="m 129.27,73.081 -21.33,1.779 -0.26,-10.927 21.85,-1.016 z"
           style="fill:#b3b3b3;stroke:#000000;stroke-width:2;stroke-linecap:round;stroke-linejoin:round"
           sodipodi:nodetypes="ccccc"
           id="path3758" />
        <path
           inkscape:connector-curvature="0"
           d="m 125.46,58.089 3.56,4.32 -21.08,1.27 -2.8,-5.59 z"
           style="fill:#cccccc;stroke:#000000;stroke-width:2;stroke-linecap:round;stroke-linejoin:round"
           sodipodi:nodetypes="ccccc"
           id="path3760" />
        <path
           inkscape:connector-curvature="0"
           d="m 174.74,58.724 1.02,5.717 -22.48,-0.635 -1.78,-5.971 z"
           style="fill:#cccccc;stroke:#000000;stroke-width:2;stroke-linecap:round;stroke-linejoin:round"
           sodipodi:nodetypes="ccccc"
           id="path3762" />
        <path
           inkscape:connector-curvature="0"
           d="m 150.48,64.823 3.18,5.463 -0.38,-6.48 -1.78,-5.971 z"
           style="fill:#808080;stroke:#000000;stroke-width:2;stroke-linecap:round;stroke-linejoin:round"
           sodipodi:nodetypes="ccccc"
           id="path3764" />
        <path
           inkscape:connector-curvature="0"
           d="m 176.01,70.286 h -22.35 l -0.38,-6.48 22.35,0.508 z"
           style="fill:#b3b3b3;stroke:#000000;stroke-width:2;stroke-linecap:round;stroke-linejoin:round"
           sodipodi:nodetypes="ccccc"
           id="path3766" />
        <path
           inkscape:connector-curvature="0"
           d="m 278.12,86.803 -5.84,4.065 14.99,10.162 5.08,-6.858 z"
           style="fill:#cccccc;stroke:#000000;stroke-width:2;stroke-linecap:round;stroke-linejoin:round"
           sodipodi:nodetypes="ccccc"
           id="path4345" />
        <path
           inkscape:connector-curvature="0"
           d="m 291.84,105.86 -7.11,4.57 2.54,-9.4 5.08,-6.858 z"
           style="fill:#b3b3b3;stroke:#000000;stroke-width:2;stroke-linecap:round;stroke-linejoin:round"
           sodipodi:nodetypes="ccccc"
           id="path4347" />
      </g>
      <g
         style="display:inline"
         inkscape:label="stairs"
         id="layer5"
         transform="rotate(2,190,170)">
        <path
           inkscape:connector-curvature="0"
           d="m 244.46,168.8 3.2,-45.39 -20.36,1.16 -1.45,3.42 -10.62,0.07 -2.03,7.42 -8.29,0.73 -1.17,6.11 -9.89,0.29 -1.74,6.11 -9.67,1.46 -1.09,5.67 -9.09,1.89 -0.8,4.37 -7.86,1.74 -0.29,7.86 z"
           style="fill:#b3b3b3;fill-rule:evenodd;stroke:#000000;stroke-width:2"
           sodipodi:nodetypes="ccccccccccccccccc"
           id="path5184" />
        <path
           inkscape:connector-curvature="0"
           d="m 239.52,99.549 8.14,23.861 -20.36,1.16 -6.4,-24.73 z"
           style="fill:#cccccc;fill-rule:evenodd;stroke:#000000;stroke-width:2"
           sodipodi:nodetypes="ccccc"
           id="path5186" />
        <path
           inkscape:connector-curvature="0"
           d="m 220.61,110.9 5.24,16.87 1.45,-3.2 -6.4,-24.73 z"
           style="fill:#808080;fill-rule:evenodd;stroke:#000000;stroke-width:2;stroke-linejoin:round"
           sodipodi:nodetypes="ccccc"
           id="path5188" />
        <path
           inkscape:connector-curvature="0"
           d="m 220.61,110.9 5.24,16.87 -10.47,0.29 -1.46,-16 z"
           style="fill:#cccccc;fill-rule:evenodd;stroke:#000000;stroke-width:2;stroke-linejoin:round"
           sodipodi:nodetypes="ccccc"
           id="path5190" />
        <path
           inkscape:connector-curvature="0"
           d="m 212.18,119.63 0.87,15.71 2.33,-7.28 -1.46,-16 z"
           style="fill:#808080;fill-rule:evenodd;stroke:#000000;stroke-width:2"
           sodipodi:nodetypes="ccccc"
           id="path5192" />
        <path
           inkscape:connector-curvature="0"
           d="m 212.18,119.63 0.87,15.71 -8.73,0.29 -1.74,-14.84 z"
           style="fill:#cccccc;fill-rule:evenodd;stroke:#000000;stroke-width:2"
           sodipodi:nodetypes="ccccc"
           id="path5194" />
        <path
           inkscape:connector-curvature="0"
           d="m 200.54,128.36 3.49,13.96 0.29,-6.69 -1.74,-14.84 z"
           style="fill:#808080;fill-rule:evenodd;stroke:#000000;stroke-width:2"
           sodipodi:nodetypes="ccccc"
           id="path5196" />
        <path
           inkscape:connector-curvature="0"
           d="m 200.54,128.36 3.49,13.96 -10.18,0.58 -0.29,-13.67 z"
           style="fill:#cccccc;fill-rule:evenodd;stroke:#000000;stroke-width:2"
           sodipodi:nodetypes="ccccc"
           id="path5198" />
        <path
           inkscape:connector-curvature="0"
           d="m 190.65,137.96 1.46,10.76 1.74,-5.82 -0.29,-13.67 z"
           style="fill:#808080;fill-rule:evenodd;stroke:#000000;stroke-width:2"
           sodipodi:nodetypes="ccccc"
           id="path5200" />
        <path
           inkscape:connector-curvature="0"
           d="m 190.65,137.96 1.46,10.76 -9.89,1.46 0.29,-11.93 z"
           style="fill:#cccccc;fill-rule:evenodd;stroke:#000000;stroke-width:2"
           sodipodi:nodetypes="ccccc"
           id="path5202" />
        <path
           inkscape:connector-curvature="0"
           d="m 179.89,146.69 1.46,9.31 0.87,-5.82 0.29,-11.93 z"
           style="fill:#808080;fill-rule:evenodd;stroke:#000000;stroke-width:2"
           sodipodi:nodetypes="ccccc"
           id="path5204" />
        <path
           inkscape:connector-curvature="0"
           d="m 179.89,146.69 1.46,9.31 -9.31,1.74 v -12.51 z"
           style="fill:#cccccc;fill-rule:evenodd;stroke:#000000;stroke-width:2"
           sodipodi:nodetypes="ccccc"
           id="path5206" />
        <path
           inkscape:connector-curvature="0"
           d="m 169.42,153.67 2.04,7.86 0.58,-3.79 v -12.51 z"
           style="fill:#808080;fill-rule:evenodd;stroke:#000000;stroke-width:2"
           sodipodi:nodetypes="ccccc"
           id="path5208" />
        <path
           inkscape:connector-curvature="0"
           d="m 169.42,153.67 1.45,8.15 -7.56,2.33 -1.74,-9.32 z"
           style="fill:#cccccc;fill-rule:evenodd;stroke:#000000;stroke-width:2"
           sodipodi:nodetypes="ccccc"
           id="path5210" />
        <path
           inkscape:connector-curvature="0"
           d="m 161.88,164.09 1.45,7.43 -0.02,-7.37 -1.74,-9.32 z"
           style="fill:#808080;fill-rule:evenodd;stroke:#000000;stroke-width:2"
           sodipodi:nodetypes="ccccc"
           id="path5212" />
        <path
           inkscape:connector-curvature="0"
           d="m 237.48,95.111 1.72,7.299 -16.11,1.22 -2.24,-8.024 z"
           style="fill:#cccccc;fill-rule:evenodd"
           sodipodi:nodetypes="ccccc"
           id="path2249" />
      </g>
      <g
         style="display:inline"
         inkscape:label="towers"
         id="layer6"
         transform="rotate(2,190,170)">
        <path
           inkscape:connector-curvature="0"
           d="M 16.248,72.692 54.505,74.488 71.928,72.692 87.554,72.332 109.65,71.973 107.67,14.117 3.32,15.554 Z"
           style="fill:#cccccc;fill-rule:evenodd;stroke:#000000;stroke-width:2;stroke-linejoin:round"
           id="path8145" />
        <path
           inkscape:connector-curvature="0"
           d="M 18.018,91.376 C 17.256,87.819 15.478,60.884 15.478,60.884 L 40.117,60.63 40.879,74.097 54.85,74.86 57.136,63.171 h 14.732 l 0.254,9.148 h 15.24 l -3.048,-14.738 27.436,2.032 -2.54,34.05 z"
           style="fill:#b3b3b3;fill-rule:evenodd;stroke:#000000;stroke-width:2;stroke-linejoin:round"
           sodipodi:nodetypes="ccccccccccccc"
           id="path8133" />
        <path
           inkscape:connector-curvature="0"
           d="M 18.018,91.376 C 17.256,87.819 15.478,60.884 15.478,60.884 L 12.038,46.485 11.583,55.014 10.008,48.048 10.049,39.825 7.3343,29.296 5.8906,34.68 4.7163,27.891 4.6196,18.766 1,4.727 3.5401,48.941 18.0181,91.376 Z"
           style="fill:#808080;fill-rule:evenodd;stroke:#000000;stroke-width:2;stroke-linejoin:round"
           sodipodi:nodetypes="ccccccccccccc"
           id="path8135" />
        <path
           inkscape:connector-curvature="0"
           d="m 25.813,38.346 -15.764,1.479 0.339,10.673 13.823,-4.319 z"
           style="fill:#cccccc;fill-rule:evenodd;stroke:#000000;stroke-width:2;stroke-linejoin:round"
           sodipodi:nodetypes="ccccc"
           id="path8153" />
        <path
           inkscape:connector-curvature="0"
           d="M 15.478,60.884 40.117,60.63 31.719,46.427 12.102,46.471 c 4.948,30.179 6.644,62.819 3.376,14.413 z"
           style="fill:#cccccc;fill-rule:evenodd;stroke:#000000;stroke-width:2;stroke-linejoin:round"
           sodipodi:nodetypes="ccccc"
           id="path8139" />
        <path
           inkscape:connector-curvature="0"
           d="m 52.694,49.705 4.442,13.466 h 14.732 l -1.183,-14.57 z"
           style="fill:#b3b3b3;fill-rule:evenodd;stroke:#000000;stroke-width:2;stroke-linejoin:round"
           sodipodi:nodetypes="ccccc"
           id="path8141" />
        <path
           inkscape:connector-curvature="0"
           d="m 93.66,48.615 -0.179,-8.086 18.319,0.18 -0.54,9.343 z"
           style="fill:#b3b3b3;fill-rule:evenodd;stroke:#000000;stroke-width:2;stroke-linejoin:round"
           sodipodi:nodetypes="ccccc"
           id="path8181" />
        <path
           inkscape:connector-curvature="0"
           d="m 25.813,38.346 -15.764,1.479 -2.7147,-10.529 13.105,-1.803 5.374,10.853 z"
           style="fill:#cccccc;fill-rule:evenodd;stroke:#000000;stroke-width:2;stroke-linejoin:round"
           sodipodi:nodetypes="ccccc"
           id="path8147" />
        <path
           inkscape:connector-curvature="0"
           d="M 20.702,14.595 4.62,18.766 1,4.727 19.346,4.7403 Z"
           style="fill:#cccccc;fill-rule:evenodd;stroke:#000000;stroke-width:2;stroke-linejoin:round"
           sodipodi:nodetypes="ccccc"
           id="path8149" />
        <path
           inkscape:connector-curvature="0"
           d="m 20.702,14.595 -16.082,4.171 1.4091,8.601 11.7,-1.964 2.973,-10.808 z"
           style="fill:#cccccc;fill-rule:evenodd;stroke:#000000;stroke-width:2;stroke-linejoin:round"
           sodipodi:nodetypes="ccccc"
           id="path8151" />
        <path
           inkscape:connector-curvature="0"
           d="m 52.694,49.705 4.442,13.466 -2.151,11.32 -7.11,-10.258 z"
           style="fill:#808080;fill-rule:evenodd;stroke:#000000;stroke-width:2;stroke-linejoin:round"
           sodipodi:nodetypes="ccccc"
           id="path8157" />
        <path
           inkscape:connector-curvature="0"
           d="m 84.13,48.601 0.184,8.98 2.647,14.43 -5.414,-8.174 z"
           style="fill:#808080;fill-rule:evenodd;stroke:#000000;stroke-width:2;stroke-linejoin:round"
           sodipodi:nodetypes="ccccc"
           id="path8159" />
        <path
           inkscape:connector-curvature="0"
           d="m 36.365,4.2342 5.568,11.14 11.495,0.18 1.975,-12.757 -19.038,1.4372 z"
           style="fill:#cccccc;fill-rule:evenodd;stroke:#000000;stroke-width:2;stroke-linejoin:round"
           id="path8161" />
        <path
           inkscape:connector-curvature="0"
           d="m 66.719,1.7187 v 10.062 L 79.83,11.4207 81.986,2.4371 66.719,1.7184 Z"
           style="fill:#cccccc;fill-rule:evenodd;stroke:#000000;stroke-width:2;stroke-linejoin:round"
           id="path8163" />
        <path
           inkscape:connector-curvature="0"
           d="m 90.787,1 2.873,16.53 19.22,0.899 -3.41,-16.71 z"
           style="fill:#cccccc;fill-rule:evenodd;stroke:#000000;stroke-width:2;stroke-linejoin:round"
           id="path8165" />
        <path
           inkscape:connector-curvature="0"
           d="M 93.66,48.615 93.481,40.529 92.403,28.131 91.326,36.756 Z"
           style="fill:#808080;fill-rule:evenodd;stroke:#000000;stroke-width:2;stroke-linejoin:round"
           sodipodi:nodetypes="ccccc"
           id="path8183" />
        <path
           inkscape:connector-curvature="0"
           d="m 84.13,48.601 0.184,8.98 27.436,2.032 0.33,-11.768 z"
           style="fill:#b3b3b3;fill-rule:evenodd;stroke:#000000;stroke-width:2;stroke-linejoin:round"
           sodipodi:nodetypes="ccccc"
           id="path8143" />
        <path
           inkscape:connector-curvature="0"
           d="m 92.224,27.952 1.257,12.577 18.319,0.18 0.18,-13.476 z"
           style="fill:#cccccc;fill-rule:evenodd;stroke:#000000;stroke-width:2;stroke-linejoin:round"
           id="path8167" />
        <path
           inkscape:connector-curvature="0"
           d="m 36.365,4.2342 5.568,11.14 -0.898,7.547 -5.568,-5.75 z"
           style="fill:#808080;fill-rule:evenodd;stroke:#000000;stroke-width:2;stroke-linejoin:round"
           sodipodi:nodetypes="ccccc"
           id="path8169" />
        <path
           inkscape:connector-curvature="0"
           d="m 53.428,15.554 -11.495,-0.18 -0.898,7.547 12.393,-1.797 z"
           style="fill:#b3b3b3;fill-rule:evenodd;stroke:#000000;stroke-width:2;stroke-linejoin:round"
           sodipodi:nodetypes="ccccc"
           id="path8171" />
        <path
           inkscape:connector-curvature="0"
           d="m 67.617,21.124 -0.898,-9.343 13.111,-0.36 -0.538,8.086 z"
           style="fill:#b3b3b3;fill-rule:evenodd;stroke:#000000;stroke-width:2;stroke-linejoin:round"
           sodipodi:nodetypes="ccccc"
           id="path8173" />
        <path
           inkscape:connector-curvature="0"
           d="M 82.165,14.476 V 2.437 l -2.335,8.984 -0.538,8.086 z"
           style="fill:#808080;fill-rule:evenodd;stroke:#000000;stroke-width:2;stroke-linejoin:round"
           sodipodi:nodetypes="ccccc"
           id="path8175" />
        <path
           inkscape:connector-curvature="0"
           d="m 90.787,1 2.873,16.53 -1.796,7.188 -1.796,-5.211 z"
           style="fill:#808080;fill-rule:evenodd;stroke:#000000;stroke-width:2;stroke-linejoin:round"
           sodipodi:nodetypes="ccccc"
           id="path8177" />
        <path
           inkscape:connector-curvature="0"
           d="m 92.224,25.077 1.436,-7.547 19.22,0.899 -1.8,5.929 z"
           style="fill:#b3b3b3;fill-rule:evenodd;stroke:#000000;stroke-width:2;stroke-linejoin:round"
           sodipodi:nodetypes="ccccc"
           id="path8179" />
        <path
           inkscape:connector-curvature="0"
           d="m 120.38,235.2 -83.057,13.72 -20.321,-51.84 107.7,-18.29 -4.32,56.41 z"
           style="fill:#cccccc;fill-rule:evenodd;stroke:#000000;stroke-width:2;stroke-linejoin:round"
           sodipodi:nodetypes="ccccc"
           id="path8207" />
        <path
           inkscape:connector-curvature="0"
           d="m 63.295,205.02 4.318,15.76 22.48,-3.18 -0.127,-14.74 z"
           style="fill:#845340;fill-opacity:1;fill-rule:evenodd;stroke:#000000;stroke-width:2;stroke-linejoin:round"
           sodipodi:nodetypes="ccccc"
           id="path4203" />
        <path
           inkscape:connector-curvature="0"
           d="m 40.179,264.52 -6.666,-34.15 -1.746,-4.86 -0.437,5.01 -2.469,-3.12 0.651,-8.27 -2.508,-7.4 -1.746,6.83 -2.509,-7.91 0.286,-9.44 -7.303,-16.32 5.284,41.04 z"
           style="fill:#808080;fill-rule:evenodd;stroke:#000000;stroke-width:2;stroke-linejoin:round"
           sodipodi:nodetypes="ccccccccccccc"
           id="path8187" />
        <path
           inkscape:connector-curvature="0"
           d="m 69.836,210.3 7.366,12.96 13.209,-1.53 -6.859,-14.74 z"
           style="fill:#cccccc;fill-rule:evenodd;stroke:#000000;stroke-width:2;stroke-linejoin:round"
           sodipodi:nodetypes="ccccc"
           id="path8191" />
        <path
           inkscape:connector-curvature="0"
           d="m 44.102,209.61 -14.59,9.52 0.286,7.84 15.526,-4.6 z"
           style="fill:#b3b3b3;fill-rule:evenodd;stroke:#000000;stroke-width:2;stroke-linejoin:round"
           sodipodi:nodetypes="ccccc"
           id="path8211" />
        <path
           inkscape:connector-curvature="0"
           d="m 31.735,224.78 1.778,5.59 24.385,-3.56 -5.589,-14.23 z"
           style="fill:#cccccc;fill-rule:evenodd;stroke:#000000;stroke-width:2;stroke-linejoin:round"
           sodipodi:nodetypes="ccccc"
           id="path8193" />
        <path
           inkscape:connector-curvature="0"
           d="m 38.498,197.43 -15.463,3.78 0.572,10.87 13.716,-2.8 z"
           style="fill:#b3b3b3;fill-rule:evenodd;stroke:#000000;stroke-width:2;stroke-linejoin:round"
           sodipodi:nodetypes="ccccc"
           id="path8215" />
        <path
           inkscape:connector-curvature="0"
           d="m 102.86,205.47 5.33,13.72 16.26,3.05 -0.51,-19.57 z"
           style="fill:#cccccc;fill-rule:evenodd;stroke:#000000;stroke-width:2;stroke-linejoin:round"
           sodipodi:nodetypes="ccccc"
           id="path8195" />
        <path
           inkscape:connector-curvature="0"
           d="m 109.46,204.2 16.51,-2.8 -3.11,-13.59 -16.16,4.64 z"
           style="fill:#b3b3b3;fill-rule:evenodd;stroke:#000000;stroke-width:2;stroke-linejoin:round"
           sodipodi:nodetypes="ccccc"
           id="path8205" />
        <path
           inkscape:connector-curvature="0"
           d="m 131.81,205.98 -9.14,-38.12 0.19,19.95 2.38,12.77 0.35,4.38 -1.81,-3.11 0.67,20.39 -4.07,35.07 z"
           style="fill:#808080;fill-rule:evenodd;stroke:#000000;stroke-width:2;stroke-linejoin:round"
           sodipodi:nodetypes="ccccccccc"
           id="path8197" />
        <path
           inkscape:connector-curvature="0"
           d="m 115.81,183.36 -15.24,7.12 0.25,-12.96 18.04,-4.83 z"
           style="fill:#b3b3b3;fill-rule:evenodd;stroke:#000000;stroke-width:2;stroke-linejoin:round"
           sodipodi:nodetypes="ccccc"
           id="path8225" />
        <path
           inkscape:connector-curvature="0"
           d="m 114.03,164.05 -19.047,6.35 5.837,7.12 18.04,-4.83 z"
           style="fill:#cccccc;fill-rule:evenodd;stroke:#000000;stroke-width:2;stroke-linejoin:round"
           sodipodi:nodetypes="ccccc"
           id="path8227" />
        <path
           inkscape:connector-curvature="0"
           d="m 103.36,175.48 19.31,-7.62 0.19,19.95 -16.16,4.64 z"
           style="fill:#cccccc;fill-rule:evenodd;stroke:#000000;stroke-width:2;stroke-linejoin:round"
           sodipodi:nodetypes="ccccc"
           id="path8199" />
        <path
           inkscape:connector-curvature="0"
           d="m 102.86,205.47 5.33,13.72 -5.84,18.8 -2.795,-16 z"
           style="fill:#808080;fill-rule:evenodd;stroke:#000000;stroke-width:2;stroke-linejoin:round"
           sodipodi:nodetypes="ccccc"
           id="path8201" />
        <path
           inkscape:connector-curvature="0"
           d="m 39.82,264.88 -6.307,-34.51 24.385,-3.56 0.508,14.23 15.748,0.51 3.048,-18.29 13.209,-1.53 2.032,14.74 h 10.667 l 5.08,-17.28 16.26,3.05 -4.07,35.07 z"
           style="fill:#b3b3b3;fill-rule:evenodd;stroke:#000000;stroke-width:2;stroke-linejoin:round"
           sodipodi:nodetypes="ccccccccccccc"
           id="path8185" />
        <path
           inkscape:connector-curvature="0"
           d="m 44.102,209.61 -14.59,9.52 -2.508,-7.4 13.494,-7.4 z"
           style="fill:#cccccc;fill-rule:evenodd;stroke:#000000;stroke-width:2;stroke-linejoin:round"
           sodipodi:nodetypes="ccccc"
           id="path8209" />
        <path
           inkscape:connector-curvature="0"
           d="m 38.498,197.43 -15.463,3.78 -7.303,-16.32 19.813,-1.53 z"
           style="fill:#cccccc;fill-rule:evenodd;stroke:#000000;stroke-width:2;stroke-linejoin:round"
           sodipodi:nodetypes="ccccc"
           id="path8213" />
        <path
           inkscape:connector-curvature="0"
           d="m 46.721,192.26 -0.762,-13.98 8.383,18.3 -3.049,6.35 z"
           style="fill:#808080;fill-rule:evenodd;stroke:#000000;stroke-width:2;stroke-linejoin:round"
           sodipodi:nodetypes="ccccc"
           id="path8217" />
        <path
           inkscape:connector-curvature="0"
           d="m 70.852,195.56 v -5.59 l -16.51,6.61 -3.049,6.35 z"
           style="fill:#b3b3b3;fill-rule:evenodd;stroke:#000000;stroke-width:2;stroke-linejoin:round"
           sodipodi:nodetypes="ccccc"
           id="path8219" />
        <path
           inkscape:connector-curvature="0"
           d="m 64.756,177.01 6.604,12.96 -17.018,6.61 -8.383,-18.3 z"
           style="fill:#cccccc;fill-rule:evenodd;stroke:#000000;stroke-width:2;stroke-linejoin:round"
           sodipodi:nodetypes="ccccc"
           id="path8221" />
        <path
           inkscape:connector-curvature="0"
           d="m 96.253,183.11 4.317,7.37 0.25,-12.96 -6.091,-6.1 z"
           style="fill:#808080;fill-rule:evenodd;stroke:#000000;stroke-width:2;stroke-linejoin:round"
           id="path8223" />
        <path
           inkscape:connector-curvature="0"
           d="m 75.638,187.27 2.874,6.65 3.592,-7.91 -7.903,-10.78 z"
           style="fill:#808080;fill-rule:evenodd;stroke:#000000;stroke-width:2;stroke-linejoin:round"
           id="path8229" />
        <path
           inkscape:connector-curvature="0"
           d="m 90.725,189.97 -12.213,3.95 3.592,-7.91 8.98,-5.21 z"
           style="fill:#b3b3b3;fill-rule:evenodd;stroke:#000000;stroke-width:2;stroke-linejoin:round"
           sodipodi:nodetypes="ccccc"
           id="path8231" />
        <path
           inkscape:connector-curvature="0"
           d="m 87.492,172 3.233,8.44 -8.621,5.57 -7.903,-10.78 z"
           style="fill:#cccccc;fill-rule:evenodd;stroke:#000000;stroke-width:2;stroke-linejoin:round"
           sodipodi:nodetypes="ccccc"
           id="path8233" />
        <path
           inkscape:connector-curvature="0"
           d="m 261.18,184.57 6.46,31.99 24.79,20.12 30.89,7.91 41.31,-5.75 14.37,-24.8 -50.65,-69.71 z"
           style="fill:#00be14;fill-opacity:1;fill-rule:evenodd;stroke:#000000;stroke-width:2;stroke-linejoin:round"
           id="path8241" />
        <path
           inkscape:connector-curvature="0"
           d="m 268,215.84 60.71,-71.51 -67.89,40.24 z"
           style="fill:#00be14;fill-opacity:1;fill-rule:evenodd;stroke:#000000;stroke-width:1px"
           id="path8245" />
        <path
           inkscape:connector-curvature="0"
           d="m 292.43,236.68 36.28,-91.99 -60.35,71.51 z"
           style="fill:#00be14;fill-opacity:1;fill-rule:evenodd;stroke:#000000;stroke-width:1px"
           id="path8247" />
        <path
           inkscape:connector-curvature="0"
           d="m 322.96,244.23 5.75,-100.62 -35.92,93.43 z"
           style="fill:#00be14;fill-opacity:1;fill-rule:evenodd;stroke:#000000;stroke-width:1px"
           id="path8249" />
        <path
           inkscape:connector-curvature="0"
           d="m 322.96,243.87 39.87,-5.03 -33.76,-95.59 z"
           style="fill:#00be14;fill-opacity:1;fill-rule:evenodd;stroke:#000000;stroke-width:1px"
           id="path8251" />
        <path
           inkscape:connector-curvature="0"
           d="m 69.836,210.3 7.366,12.96 -2.794,18.55 -4.572,-11.44 z"
           style="fill:#808080;fill-rule:evenodd;stroke:#000000;stroke-width:2;stroke-linejoin:round"
           sodipodi:nodetypes="ccccc"
           id="path8203" />
        <path
           inkscape:connector-curvature="0"
           d="M 46.34,31.154 50.658,46.4 76.186,45.765 73.011,28.994 Z"
           style="fill:#845340;fill-opacity:1;fill-rule:evenodd;stroke:#000000;stroke-width:2;stroke-linejoin:round"
           id="path8155" />
      </g>
    </g>
  </g>
</svg>
