<?xml version="1.0" encoding="UTF-8" standalone="no"?>
<!-- Created with Inkscape (http://www.inkscape.org/) -->

<svg
   xmlns:dc="http://purl.org/dc/elements/1.1/"
   xmlns:cc="http://creativecommons.org/ns#"
   xmlns:rdf="http://www.w3.org/1999/02/22-rdf-syntax-ns#"
   xmlns:svg="http://www.w3.org/2000/svg"
   xmlns="http://www.w3.org/2000/svg"
   xmlns:xlink="http://www.w3.org/1999/xlink"
   xmlns:sodipodi="http://sodipodi.sourceforge.net/DTD/sodipodi-0.dtd"
   xmlns:inkscape="http://www.inkscape.org/namespaces/inkscape"
   width="148mm"
   height="105mm"
   viewBox="0 0 148 105"
   version="1.1"
   id="svg1022"
   inkscape:version="0.92.4 (5da689c313, 2019-01-14)"
   sodipodi:docname="Sticker.svg">
  <defs
     id="defs1016">
    <filter
       style="color-interpolation-filters:sRGB;"
       inkscape:label="Greyscale"
       id="filter15478">
      <feColorMatrix
         values="0.21 0.72 0.072 0 0 0.21 0.72 0.072 0 0 0.21 0.72 0.072 0 0 0 0 0 1 0 "
         id="feColorMatrix15476" />
    </filter>
  </defs>
  <sodipodi:namedview
     id="base"
     pagecolor="#ffffff"
     bordercolor="#666666"
     borderopacity="1.0"
     inkscape:pageopacity="0.0"
     inkscape:pageshadow="2"
     inkscape:zoom="1.4"
     inkscape:cx="177.52856"
     inkscape:cy="353.61224"
     inkscape:document-units="mm"
     inkscape:current-layer="layer2"
     showgrid="false"
     inkscape:window-width="1920"
     inkscape:window-height="1017"
     inkscape:window-x="-8"
     inkscape:window-y="-8"
     inkscape:window-maximized="1" />
  <metadata
     id="metadata1019">
    <rdf:RDF>
      <cc:Work
         rdf:about="">
        <dc:format>image/svg+xml</dc:format>
        <dc:type
           rdf:resource="http://purl.org/dc/dcmitype/StillImage" />
        <dc:title></dc:title>
      </cc:Work>
    </rdf:RDF>
  </metadata>
  <g
     inkscape:label="Cut"
     inkscape:groupmode="layer"
     id="layer1"
     transform="translate(0,-192)"
     sodipodi:insensitive="true">
    <rect
       style="opacity:1;vector-effect:none;fill:none;fill-opacity:1;stroke:#000000;stroke-width:0.1;stroke-linecap:butt;stroke-linejoin:miter;stroke-miterlimit:4;stroke-dasharray:none;stroke-dashoffset:0;stroke-opacity:0.97406802"
       id="rect1567"
       width="10"
       height="10"
       x="7.7321439"
       y="199.0119"
       inkscape:tile-cx="15.000001"
       inkscape:tile-cy="11.999999"
       inkscape:tile-w="10.1"
       inkscape:tile-h="10.1"
       inkscape:tile-x0="9.9500007"
       inkscape:tile-y0="6.9499994" />
    <use
       x="0"
       y="0"
       inkscape:tiled-clone-of="#rect1567"
       xlink:href="#rect1567"
       id="use10559"
       width="100%"
       height="100%"
       transform="translate(4.2857145e-8,-4.7619052e-6)" />
    <use
       x="0"
       y="0"
       inkscape:tiled-clone-of="#rect1567"
       xlink:href="#rect1567"
       transform="translate(4.2857145e-8,15.149995)"
       id="use10561"
       width="100%"
       height="100%" />
    <use
       x="0"
       y="0"
       inkscape:tiled-clone-of="#rect1567"
       xlink:href="#rect1567"
       transform="translate(4.2857145e-8,30.299995)"
       id="use10563"
       width="100%"
       height="100%" />
    <use
       x="0"
       y="0"
       inkscape:tiled-clone-of="#rect1567"
       xlink:href="#rect1567"
       transform="translate(4.2857145e-8,45.449995)"
       id="use10565"
       width="100%"
       height="100%" />
    <use
       x="0"
       y="0"
       inkscape:tiled-clone-of="#rect1567"
       xlink:href="#rect1567"
       transform="translate(15.15,-4.7619052e-6)"
       id="use10567"
       width="100%"
       height="100%" />
    <use
       x="0"
       y="0"
       inkscape:tiled-clone-of="#rect1567"
       xlink:href="#rect1567"
       transform="translate(15.15,15.149995)"
       id="use10569"
       width="100%"
       height="100%" />
    <use
       x="0"
       y="0"
       inkscape:tiled-clone-of="#rect1567"
       xlink:href="#rect1567"
       transform="translate(15.15,30.299995)"
       id="use10571"
       width="100%"
       height="100%" />
    <use
       x="0"
       y="0"
       inkscape:tiled-clone-of="#rect1567"
       xlink:href="#rect1567"
       transform="translate(15.15,45.449995)"
       id="use10573"
       width="100%"
       height="100%" />
    <use
       x="0"
       y="0"
       inkscape:tiled-clone-of="#rect1567"
       xlink:href="#rect1567"
       transform="translate(30.3,-4.7619052e-6)"
       id="use10575"
       width="100%"
       height="100%" />
    <use
       x="0"
       y="0"
       inkscape:tiled-clone-of="#rect1567"
       xlink:href="#rect1567"
       transform="translate(30.3,15.149995)"
       id="use10577"
       width="100%"
       height="100%" />
    <use
       x="0"
       y="0"
       inkscape:tiled-clone-of="#rect1567"
       xlink:href="#rect1567"
       transform="translate(30.3,30.299995)"
       id="use10579"
       width="100%"
       height="100%" />
    <use
       x="0"
       y="0"
       inkscape:tiled-clone-of="#rect1567"
       xlink:href="#rect1567"
       transform="translate(30.3,45.449995)"
       id="use10581"
       width="100%"
       height="100%" />
    <use
       x="0"
       y="0"
       inkscape:tiled-clone-of="#rect1567"
       xlink:href="#rect1567"
       transform="translate(45.45,-4.7619052e-6)"
       id="use10583"
       width="100%"
       height="100%" />
    <use
       x="0"
       y="0"
       inkscape:tiled-clone-of="#rect1567"
       xlink:href="#rect1567"
       transform="translate(45.45,15.149995)"
       id="use10585"
       width="100%"
       height="100%" />
    <use
       x="0"
       y="0"
       inkscape:tiled-clone-of="#rect1567"
       xlink:href="#rect1567"
       transform="translate(45.45,30.299995)"
       id="use10587"
       width="100%"
       height="100%" />
    <use
       x="0"
       y="0"
       inkscape:tiled-clone-of="#rect1567"
       xlink:href="#rect1567"
       transform="translate(45.45,45.449995)"
       id="use10589"
       width="100%"
       height="100%" />
    <use
       x="0"
       y="0"
       inkscape:tiled-clone-of="#rect1567"
       xlink:href="#rect1567"
       transform="translate(60.6,-4.7619052e-6)"
       id="use10591"
       width="100%"
       height="100%" />
    <use
       x="0"
       y="0"
       inkscape:tiled-clone-of="#rect1567"
       xlink:href="#rect1567"
       transform="translate(60.6,15.149995)"
       id="use10593"
       width="100%"
       height="100%" />
    <use
       x="0"
       y="0"
       inkscape:tiled-clone-of="#rect1567"
       xlink:href="#rect1567"
       transform="translate(60.6,30.299995)"
       id="use10595"
       width="100%"
       height="100%" />
    <use
       x="0"
       y="0"
       inkscape:tiled-clone-of="#rect1567"
       xlink:href="#rect1567"
       transform="translate(60.6,45.449995)"
       id="use10597"
       width="100%"
       height="100%" />
    <use
       x="0"
       y="0"
       inkscape:tiled-clone-of="#rect1567"
       xlink:href="#rect1567"
       transform="translate(75.75,-4.7619052e-6)"
       id="use10599"
       width="100%"
       height="100%" />
    <use
       x="0"
       y="0"
       inkscape:tiled-clone-of="#rect1567"
       xlink:href="#rect1567"
       transform="translate(75.75,15.149995)"
       id="use10601"
       width="100%"
       height="100%" />
    <use
       x="0"
       y="0"
       inkscape:tiled-clone-of="#rect1567"
       xlink:href="#rect1567"
       transform="translate(75.75,30.299995)"
       id="use10603"
       width="100%"
       height="100%" />
    <use
       x="0"
       y="0"
       inkscape:tiled-clone-of="#rect1567"
       xlink:href="#rect1567"
       transform="translate(75.75,45.449995)"
       id="use10605"
       width="100%"
       height="100%" />
    <use
       x="0"
       y="0"
       inkscape:tiled-clone-of="#rect1567"
       xlink:href="#rect1567"
       transform="translate(90.9,-4.7619052e-6)"
       id="use10607"
       width="100%"
       height="100%" />
    <use
       x="0"
       y="0"
       inkscape:tiled-clone-of="#rect1567"
       xlink:href="#rect1567"
       transform="translate(90.9,15.149995)"
       id="use10609"
       width="100%"
       height="100%" />
    <use
       x="0"
       y="0"
       inkscape:tiled-clone-of="#rect1567"
       xlink:href="#rect1567"
       transform="translate(90.9,30.299995)"
       id="use10611"
       width="100%"
       height="100%" />
    <use
       x="0"
       y="0"
       inkscape:tiled-clone-of="#rect1567"
       xlink:href="#rect1567"
       transform="translate(90.9,45.449995)"
       id="use10613"
       width="100%"
       height="100%" />
    <use
       x="0"
       y="0"
       inkscape:tiled-clone-of="#rect1567"
       xlink:href="#rect1567"
       transform="translate(106.05,-4.7619052e-6)"
       id="use10615"
       width="100%"
       height="100%" />
    <use
       x="0"
       y="0"
       inkscape:tiled-clone-of="#rect1567"
       xlink:href="#rect1567"
       transform="translate(106.05,15.149995)"
       id="use10617"
       width="100%"
       height="100%" />
    <use
       x="0"
       y="0"
       inkscape:tiled-clone-of="#rect1567"
       xlink:href="#rect1567"
       transform="translate(106.05,30.299995)"
       id="use10619"
       width="100%"
       height="100%" />
    <use
       x="0"
       y="0"
       inkscape:tiled-clone-of="#rect1567"
       xlink:href="#rect1567"
       transform="translate(106.05,45.449995)"
       id="use10621"
       width="100%"
       height="100%" />
    <use
       x="0"
       y="0"
       inkscape:tiled-clone-of="#rect1567"
       xlink:href="#rect1567"
       transform="translate(121.2,-4.7619052e-6)"
       id="use10623"
       width="100%"
       height="100%" />
    <use
       x="0"
       y="0"
       inkscape:tiled-clone-of="#rect1567"
       xlink:href="#rect1567"
       transform="translate(121.2,15.149995)"
       id="use10625"
       width="100%"
       height="100%" />
    <use
       x="0"
       y="0"
       inkscape:tiled-clone-of="#rect1567"
       xlink:href="#rect1567"
       transform="translate(121.2,30.299995)"
       id="use10627"
       width="100%"
       height="100%" />
    <use
       x="0"
       y="0"
       inkscape:tiled-clone-of="#rect1567"
       xlink:href="#rect1567"
       transform="translate(121.2,45.449995)"
       id="use10629"
       width="100%"
       height="100%" />
  </g>
  <g
     inkscape:groupmode="layer"
     id="layer2"
     inkscape:label="Symbols">
    <g
       inkscape:tile-y0="8.6489286"
       inkscape:tile-x0="8.6145106"
       transform="matrix(0.69361635,0,0,0.69361635,4.0237475,-61.809772)"
       id="use4715"
       style="display:inline;stroke-width:1.44171917;enable-background:new"
       inkscape:tile-cx="12.736527"
       inkscape:tile-cy="12.362328"
       inkscape:tile-w="8.2440328"
       inkscape:tile-h="7.4267996">
      <g
         aria-label="ðŸ¤"
         style="font-style:normal;font-weight:normal;font-size:10.58333302px;line-height:1.25;font-family:sans-serif;letter-spacing:0px;word-spacing:0px;display:inline;fill:#000000;fill-opacity:1;stroke:none;stroke-width:0.38145486"
         id="g10654"
         transform="translate(-7.1969513,45.85188)">
        <path
           d="m 22.331818,55.729782 c 0.465087,0 0.900892,0.08957 1.307413,0.268718 0.409967,0.1757 0.766534,0.416857 1.069702,0.72347 0.306614,0.303168 0.547771,0.659735 0.72347,1.069702 0.179145,0.406521 0.268718,0.842326 0.268718,1.307414 0,0.451307 -0.08441,0.881944 -0.253215,1.29191 -0.168809,0.406521 -0.413411,0.769979 -0.733805,1.090373 l -4.95577,4.95577 -4.955769,-4.95577 c -0.320394,-0.320394 -0.564996,-0.683852 -0.733806,-1.090373 -0.168809,-0.409966 -0.253214,-0.840603 -0.253214,-1.29191 0,-0.310059 0.03962,-0.60806 0.118856,-0.894003 0.08268,-0.289388 0.19637,-0.558105 0.341064,-0.806152 0.144694,-0.248047 0.320394,-0.475423 0.5271,-0.682129 0.206705,-0.206705 0.434082,-0.382405 0.682129,-0.527099 0.248047,-0.144694 0.515041,-0.25666 0.800984,-0.335897 0.289388,-0.08268 0.589111,-0.124024 0.89917,-0.124024 0.268717,0 0.518487,0.02756 0.749308,0.08268 0.234267,0.05167 0.454753,0.127465 0.661459,0.227376 0.210151,0.09991 0.409966,0.223931 0.599446,0.37207 0.192925,0.144694 0.380683,0.310059 0.563273,0.496094 0.18259,-0.186035 0.368625,-0.3514 0.558106,-0.496094 0.18948,-0.148139 0.389295,-0.272162 0.599446,-0.37207 0.210151,-0.09991 0.430638,-0.1757 0.661459,-0.227376 0.234266,-0.05512 0.485758,-0.08268 0.754476,-0.08268 z"
           style="fill:#01ff1f;fill-opacity:1;stroke:none;stroke-width:0.38145486;stroke-opacity:0.9677419"
           id="path10652"
           inkscape:connector-curvature="0"
           sodipodi:nodetypes="scccscscscscssccscccccccs" />
      </g>
      <g
         aria-label="ðŸ¤"
         style="font-style:normal;font-weight:normal;font-size:10.58333302px;line-height:1.25;font-family:sans-serif;letter-spacing:0px;word-spacing:0px;display:inline;fill:#000000;fill-opacity:1;stroke:none;stroke-width:0.38145486"
         id="g10658"
         transform="translate(-0.30510245,39.62325)">
        <path
           d="m 15.43997,61.95841 q 0.697631,0 1.307413,0.268718 0.61495,0.26355 1.069702,0.72347 0.459921,0.454752 0.72347,1.069702 0.268718,0.609782 0.268718,1.307414 0,0.676961 -0.253215,1.29191 -0.253214,0.609782 -0.733805,1.090373 l -4.95577,4.95577 -4.955769,-4.95577 Q 7.430123,67.229406 7.176908,66.619624 6.923694,66.004675 6.923694,65.327714 q 0,-0.465088 0.118856,-0.894003 0.124023,-0.434082 0.341064,-0.806152 0.217041,-0.37207 0.5271,-0.682129 0.310058,-0.310058 0.682129,-0.527099 0.37207,-0.217041 0.800984,-0.335897 0.434082,-0.124024 0.89917,-0.124024 0.403076,0 0.749308,0.08268 0.3514,0.07751 0.661459,0.227376 0.315226,0.149862 0.599446,0.37207 0.289388,0.217041 0.563273,0.496094 0.273885,-0.279053 0.558106,-0.496094 0.28422,-0.222208 0.599446,-0.37207 0.315227,-0.149862 0.661459,-0.227376 0.351399,-0.08268 0.754476,-0.08268 z m 1.855183,5.224488 q 0.372071,-0.372071 0.568441,-0.847494 0.201538,-0.480591 0.201538,-1.00769 0,-0.542603 -0.206705,-1.018026 -0.206706,-0.480591 -0.563274,-0.837158 -0.356567,-0.356568 -0.837158,-0.563273 -0.475423,-0.206706 -1.018025,-0.206706 -0.423747,0 -0.749309,0.103353 -0.325561,0.09819 -0.604614,0.273885 -0.273885,0.170532 -0.521932,0.408244 -0.242879,0.237711 -0.506429,0.506429 l -0.191203,0.191203 -0.191202,-0.191203 q -0.26355,-0.268718 -0.511597,-0.506429 -0.248047,-0.237712 -0.521932,-0.408244 -0.273885,-0.1757 -0.599447,-0.273885 -0.325561,-0.103353 -0.749308,-0.103353 -0.542602,0 -1.023193,0.206706 -0.475423,0.206705 -0.831991,0.563273 -0.356567,0.356567 -0.563273,0.837158 -0.206706,0.475423 -0.206706,1.018026 0,0.527099 0.196371,1.00769 0.201538,0.475423 0.573608,0.847494 l 4.42867,4.433837 z"
           style="fill:#000000;fill-opacity:1;stroke:none;stroke-width:0.38145486;stroke-opacity:0.9677419"
           id="path10656"
           inkscape:connector-curvature="0" />
      </g>
    </g>
    <use
       x="0"
       y="0"
       inkscape:tiled-clone-of="#use4715"
       xlink:href="#use4715"
       id="use11022" />
    <use
       x="0"
       y="0"
       inkscape:tiled-clone-of="#use4715"
       xlink:href="#use4715"
       transform="translate(15.144288)"
       id="use11024" />
    <use
       x="0"
       y="0"
       inkscape:tiled-clone-of="#use4715"
       xlink:href="#use4715"
       transform="translate(30.288577)"
       id="use11026" />
    <use
       x="0"
       y="0"
       inkscape:tiled-clone-of="#use4715"
       xlink:href="#use4715"
       transform="translate(45.432865)"
       id="use11028" />
    <use
       x="0"
       y="0"
       inkscape:tiled-clone-of="#use4715"
       xlink:href="#use4715"
       transform="translate(60.577153)"
       id="use11030" />
    <use
       x="0"
       y="0"
       inkscape:tiled-clone-of="#use4715"
       xlink:href="#use4715"
       transform="translate(75.721441)"
       id="use11032" />
    <use
       x="0"
       y="0"
       inkscape:tiled-clone-of="#use4715"
       xlink:href="#use4715"
       transform="translate(90.86573)"
       id="use11034" />
    <use
       x="0"
       y="0"
       inkscape:tiled-clone-of="#use4715"
       xlink:href="#use4715"
       transform="translate(106.01002)"
       id="use11036" />
    <g
       inkscape:tile-y0="23.359577"
       inkscape:tile-x0="9.4178887"
       transform="matrix(0.64601363,0,0,0.64601363,-11.988522,-41.755794)"
       id="use4731"
       style="display:inline;stroke-width:1.54795492;enable-background:new"
       inkscape:tile-cx="12.795694"
       inkscape:tile-cy="27.325894"
       inkscape:tile-w="6.7556096"
       inkscape:tile-h="7.9326345">
      <g
         aria-label="âœŠ"
         style="font-style:normal;font-weight:normal;font-size:10.58333302px;line-height:1.25;font-family:sans-serif;letter-spacing:0px;word-spacing:0px;display:inline;fill:#000000;fill-opacity:1;stroke:none;stroke-width:0.33455175"
         id="g11061"
         transform="matrix(1.2242143,0,0,1.2242143,-35.166467,49.36419)">
        <path
           d="m 62.479961,42.011819 c 0.254937,0 0.494371,0.04995 0.718302,0.149862 0.227377,0.09646 0.423747,0.229099 0.589111,0.397909 0.16881,0.168809 0.301446,0.366902 0.397909,0.594279 0.09991,0.223931 0.149862,0.463365 0.149862,0.718302 v 3.90157 c 0,0.392741 -0.05168,0.771702 -0.15503,1.136882 -0.09991,0.361735 -0.242879,0.699354 -0.428914,1.012858 -0.186035,0.316949 -0.409967,0.604614 -0.671794,0.862996 -0.258382,0.261827 -0.546047,0.485759 -0.862996,0.671794 -0.313504,0.186035 -0.652846,0.329007 -1.018026,0.428914 -0.361735,0.103353 -0.738973,0.15503 -1.131714,0.15503 -0.392741,0 -0.771701,-0.05168 -1.136881,-0.15503 -0.361735,-0.09991 -0.701077,-0.242879 -1.018026,-0.428914 -0.316949,-0.186035 -0.606337,-0.409967 -0.868164,-0.671794 -0.258382,-0.258382 -0.480591,-0.546047 -0.666626,-0.862996 -0.186035,-0.316949 -0.330729,-0.656291 -0.434082,-1.018026 -0.09991,-0.36518 -0.149861,-0.74414 -0.149861,-1.136881 v -2.78536 c 0,-0.254937 0.04823,-0.494371 0.144694,-0.718302 0.09991,-0.227377 0.232543,-0.423747 0.397908,-0.589111 0.16881,-0.16881 0.36518,-0.301446 0.589111,-0.397909 0.227377,-0.09991 0.468533,-0.149862 0.72347,-0.149862 h 0.15503 c 0.07579,-0.165365 0.172255,-0.315226 0.289388,-0.449585 0.120578,-0.137803 0.254937,-0.254936 0.403076,-0.351399 0.148139,-0.09991 0.308336,-0.177423 0.480591,-0.232544 0.172255,-0.05512 0.349677,-0.08268 0.532267,-0.08268 z"
           style="fill:#ff0404;fill-opacity:1;stroke-width:0.33455175"
           id="path11059"
           inkscape:connector-curvature="0"
           sodipodi:nodetypes="ccccsscccccscssccsscccscccccc" />
      </g>
      <path
         d="m 41.322397,100.79566 q 0.468145,0 0.879356,0.18346 0.417536,0.17714 0.721196,0.48713 0.309991,0.30999 0.487127,0.72752 0.183462,0.41121 0.183462,0.87936 v 4.77636 q 0,0.7212 -0.189789,1.39179 -0.183462,0.66426 -0.525084,1.23995 -0.341619,0.58202 -0.822417,1.05649 -0.474475,0.4808 -1.056492,0.82242 -0.575696,0.34162 -1.246283,0.52509 -0.66426,0.18979 -1.385461,0.18979 -0.721199,0 -1.391786,-0.18979 -0.664262,-0.18347 -1.246282,-0.52509 -0.58202,-0.34162 -1.062818,-0.82242 -0.474472,-0.47447 -0.816094,-1.05649 -0.34162,-0.58202 -0.531411,-1.24628 -0.183462,-0.67059 -0.183462,-1.39179 v -3.40987 q 0,-0.46815 0.177139,-0.87936 0.183459,-0.41754 0.487124,-0.7212 0.309989,-0.30999 0.721199,-0.48712 0.417536,-0.18347 0.885682,-0.18347 h 0.189788 q 0.139179,-0.30366 0.354275,-0.55039 0.221419,-0.25305 0.49345,-0.43018 0.272032,-0.18347 0.588346,-0.28469 0.316315,-0.10122 0.651611,-0.10122 z m -2.954385,11.36837 q 0.594672,0 1.145061,-0.15816 0.556715,-0.15183 1.031187,-0.43651 0.480801,-0.27836 0.873029,-0.67059 0.398558,-0.39223 0.676916,-0.87303 0.278357,-0.4808 0.430188,-1.03119 0.158158,-0.55672 0.158158,-1.15139 v -0.68324 q 0,-0.37325 -0.145505,-0.70222 -0.145505,-0.32896 -0.392232,-0.57569 -0.246726,-0.24673 -0.575693,-0.39223 -0.328967,-0.14551 -0.70222,-0.14551 h -5.004105 q -0.189791,0 -0.354271,0.0759 -0.164487,0.0696 -0.29101,0.19612 -0.120209,0.1202 -0.196117,0.28468 -0.06958,0.16449 -0.06958,0.35427 0,0.18979 0.06958,0.35428 0.07591,0.16448 0.196117,0.29101 0.126523,0.1202 0.29101,0.19611 0.16448,0.0696 0.354271,0.0696 h 2.049722 q 0.0949,0 0.158157,0.0696 0.06958,0.0633 0.06958,0.15816 v 2.27114 q 0,0.0949 -0.06958,0.16449 -0.06327,0.0633 -0.158157,0.0633 -0.09489,0 -0.164483,-0.0633 -0.06327,-0.0696 -0.06327,-0.16449 v -2.04339 h -1.821977 q -0.284683,0 -0.531407,-0.10755 -0.246727,-0.10755 -0.430192,-0.29101 -0.183462,-0.18979 -0.29101,-0.43651 -0.107547,-0.24673 -0.107547,-0.53141 0,-0.28469 0.107547,-0.53141 0.107548,-0.24673 0.29101,-0.43019 0.183465,-0.18979 0.430192,-0.29734 0.246724,-0.10754 0.531407,-0.10754 v -1.81565 h -0.455493 q -0.284684,0 -0.53141,0.10754 -0.246724,0.10755 -0.430186,0.29101 -0.183465,0.18347 -0.291013,0.43019 -0.107545,0.24673 -0.107545,0.53141 v 3.40988 q 0,0.601 0.151831,1.15139 0.158157,0.55038 0.436512,1.03118 0.278358,0.4808 0.670589,0.87303 0.398558,0.39856 0.879356,0.67692 0.480798,0.27835 1.031187,0.43019 0.556715,0.15815 1.151388,0.15815 z m 2.954385,-10.45738 h -0.455496 v 3.18213 q 0.544062,0 1.018534,0.24673 0.474472,0.24039 0.797116,0.67691 v -2.73929 q 0,-0.28468 -0.107548,-0.53141 -0.107545,-0.24672 -0.29101,-0.43019 -0.183462,-0.18979 -0.430189,-0.29733 -0.246724,-0.10755 -0.531407,-0.10755 z m -0.91099,0 H 38.59576 v 3.18213 h 1.815647 z m -2.726634,0 q -0.284687,0 -0.531411,0.10755 -0.246726,0.10754 -0.436514,0.29733 -0.183463,0.18347 -0.29101,0.43019 -0.107548,0.24673 -0.107548,0.53141 v 1.81565 h 1.821974 v -3.18213 z"
         style="font-style:normal;font-weight:normal;font-size:10.58333302px;line-height:1.25;font-family:sans-serif;letter-spacing:0px;word-spacing:0px;display:inline;fill:#060606;fill-opacity:1;stroke:none;stroke-width:0.40956306"
         id="path11063"
         inkscape:connector-curvature="0" />
    </g>
    <use
       x="0"
       y="0"
       inkscape:tiled-clone-of="#use4731"
       xlink:href="#use4731"
       id="use11211" />
    <use
       x="0"
       y="0"
       inkscape:tiled-clone-of="#use4731"
       xlink:href="#use4731"
       transform="translate(15.166344)"
       id="use11213" />
    <use
       x="0"
       y="0"
       inkscape:tiled-clone-of="#use4731"
       xlink:href="#use4731"
       transform="translate(30.332687)"
       id="use11215" />
    <use
       x="0"
       y="0"
       inkscape:tiled-clone-of="#use4731"
       xlink:href="#use4731"
       transform="translate(45.499031)"
       id="use11217" />
    <use
       x="0"
       y="0"
       inkscape:tiled-clone-of="#use4731"
       xlink:href="#use4731"
       transform="translate(60.665374)"
       id="use11219" />
    <use
       x="0"
       y="0"
       inkscape:tiled-clone-of="#use4731"
       xlink:href="#use4731"
       transform="translate(75.831718)"
       id="use11221" />
    <use
       x="0"
       y="0"
       inkscape:tiled-clone-of="#use4731"
       xlink:href="#use4731"
       transform="translate(90.998061)"
       id="use11223" />
    <use
       x="0"
       y="0"
       inkscape:tiled-clone-of="#use4731"
       xlink:href="#use4731"
       transform="translate(106.1644)"
       id="use11225" />
    <g
       inkscape:tile-y0="38.736384"
       inkscape:tile-x0="8.746529"
       transform="matrix(0.65145466,0,0,0.65145466,-30.132746,-27.055687)"
       id="use4747"
       style="display:inline;stroke-width:1.53502631;enable-background:new"
       inkscape:tile-cx="12.618001"
       inkscape:tile-cy="42.607842"
       inkscape:tile-w="7.7429432"
       inkscape:tile-h="7.7429155">
      <g
         aria-label="âš”ï¸"
         style="font-style:normal;font-weight:normal;font-size:10.58333302px;line-height:1.25;font-family:sans-serif;letter-spacing:0px;word-spacing:0px;display:inline;fill:#000000;fill-opacity:1;stroke:none;stroke-width:0.40614235"
         id="g11251"
         transform="translate(-13.4005,57.31785)">
        <path
           d="m 84.966824,46.212011 -3.033406,3.033406 h 1.545125 v 0.744141 c 0,0.323839 -0.0379,0.640787 -0.113688,0.950846 -0.07235,0.310059 -0.180868,0.609782 -0.325562,0.89917 l 0.749308,0.749308 c 0.16192,0 0.313504,0.03101 0.454753,0.09302 0.144694,0.06201 0.27044,0.146418 0.377238,0.253215 0.106798,0.106797 0.191203,0.230821 0.253215,0.37207 0.06201,0.141249 0.09302,0.294555 0.09302,0.45992 0,0.158475 -0.03101,0.308336 -0.09302,0.449585 -0.05857,0.144694 -0.142972,0.272163 -0.253215,0.382406 l -0.614949,0.614949 c -0.110243,0.110243 -0.237712,0.194648 -0.382406,0.253215 -0.141249,0.06201 -0.29111,0.09302 -0.449585,0.09302 -0.161919,0 -0.315226,-0.03101 -0.45992,-0.09302 -0.141249,-0.06201 -0.265273,-0.146418 -0.372071,-0.253215 -0.106797,-0.106798 -0.191202,-0.232544 -0.253214,-0.377238 -0.06201,-0.141249 -0.09302,-0.292833 -0.09302,-0.454752 l -0.749308,-0.749309 c -0.220486,0.110243 -0.428914,0.194648 -0.625285,0.253215 -0.19637,0.06201 -0.39274,0.1068 -0.589111,0.134359 -0.196371,0.02756 -0.396186,0.04306 -0.599447,0.04651 -0.203261,0.0069 -0.422024,0.01034 -0.65629,0.01034 h -0.124024 c -0.323839,0 -0.640787,-0.0379 -0.950846,-0.113688 -0.310059,-0.07579 -0.609782,-0.186036 -0.89917,-0.33073 l -0.749308,0.749309 c 0,0.165364 -0.03101,0.318671 -0.09302,0.45992 -0.06201,0.141249 -0.146418,0.26355 -0.253214,0.366903 -0.103353,0.106797 -0.227377,0.189479 -0.372071,0.248046 -0.141249,0.06201 -0.294555,0.09302 -0.45992,0.09302 -0.155029,0 -0.304891,-0.02928 -0.449585,-0.08785 -0.144694,-0.05512 -0.272162,-0.137802 -0.382405,-0.248047 -0.103353,-0.09991 -0.206706,-0.201538 -0.310059,-0.304891 -0.09991,-0.103353 -0.201538,-0.206705 -0.304891,-0.310058 -0.110243,-0.110243 -0.19637,-0.237712 -0.258382,-0.382406 -0.05857,-0.141249 -0.08785,-0.29111 -0.08785,-0.449585 0,-0.161919 0.03101,-0.313504 0.09302,-0.454753 0.06201,-0.144694 0.146418,-0.27044 0.253214,-0.377237 0.106798,-0.106798 0.230821,-0.191203 0.37207,-0.253215 0.144694,-0.06201 0.298001,-0.09302 0.459921,-0.09302 l 0.749308,-0.749308 c -0.110243,-0.220486 -0.196371,-0.428914 -0.258382,-0.625285 -0.05857,-0.19637 -0.10163,-0.39274 -0.129191,-0.589111 -0.02756,-0.196371 -0.04479,-0.396186 -0.05168,-0.599446 -0.0035,-0.203261 -0.0052,-0.422024 -0.0052,-0.656291 v -0.124024 h 1.550293 l -3.033407,-3.033406 v -2.537313 h 2.537313 l 3.405477,3.405477 3.405476,-3.405477 h 2.537313 z"
           style="fill:#04a3ff;fill-opacity:1;stroke-width:0.40614235"
           id="path11249"
           inkscape:connector-curvature="0"
           sodipodi:nodetypes="cccsccccccscsscsccccccccssccccccscccccsccccccccsccccccccc" />
      </g>
      <g
         aria-label="âš”ï¸"
         style="font-style:normal;font-weight:normal;font-size:10.58333302px;line-height:1.25;font-family:sans-serif;letter-spacing:0px;word-spacing:0px;display:inline;fill:#000000;fill-opacity:1;stroke:none;stroke-width:0.40614235"
         id="g11255"
         transform="translate(-3.7437045,57.10849)">
        <path
           d="m 75.310029,46.421369 -3.033406,3.033406 h 1.545125 v 0.744141 q 0,0.485758 -0.113688,0.950846 -0.108521,0.465088 -0.325562,0.89917 l 0.749308,0.749308 q 0.24288,0 0.454753,0.09302 0.217041,0.09302 0.377238,0.253215 0.160197,0.160196 0.253215,0.37207 0.09302,0.211873 0.09302,0.45992 0,0.237712 -0.09302,0.449585 -0.08785,0.217041 -0.253215,0.382406 l -0.614949,0.614949 q -0.165365,0.165365 -0.382406,0.253215 -0.211873,0.09302 -0.449585,0.09302 -0.242879,0 -0.45992,-0.09302 -0.211874,-0.09302 -0.372071,-0.253215 -0.160196,-0.160197 -0.253214,-0.377238 -0.09302,-0.211873 -0.09302,-0.454752 l -0.749308,-0.749309 q -0.330729,0.165365 -0.625285,0.253215 -0.294555,0.09302 -0.589111,0.134359 -0.294556,0.04134 -0.599447,0.04651 -0.304891,0.01034 -0.65629,0.01034 h -0.124024 q -0.485758,0 -0.950846,-0.113688 -0.465088,-0.113689 -0.89917,-0.33073 l -0.749308,0.749309 q 0,0.248046 -0.09302,0.45992 -0.09302,0.211873 -0.253214,0.366903 -0.15503,0.160196 -0.372071,0.248046 -0.211873,0.09302 -0.45992,0.09302 -0.232544,0 -0.449585,-0.08785 -0.217041,-0.08268 -0.382405,-0.248047 -0.15503,-0.149861 -0.310059,-0.304891 -0.149862,-0.155029 -0.304891,-0.310058 -0.165364,-0.165365 -0.258382,-0.382406 -0.08785,-0.211873 -0.08785,-0.449585 0,-0.242879 0.09302,-0.454753 0.09302,-0.217041 0.253214,-0.377237 0.160197,-0.160197 0.37207,-0.253215 0.217041,-0.09302 0.459921,-0.09302 l 0.749308,-0.749308 q -0.165365,-0.330729 -0.258382,-0.625285 -0.08785,-0.294555 -0.129191,-0.589111 -0.04134,-0.294556 -0.05168,-0.599446 -0.0052,-0.304891 -0.0052,-0.656291 v -0.124024 h 1.550293 l -3.033407,-3.033406 v -2.537313 h 2.537313 l 3.405477,3.405477 3.405476,-3.405477 h 2.537313 z m -0.74414,-1.793172 h -1.483114 q -1.477946,1.477946 -2.96106,2.950724 -1.483113,1.472778 -2.950724,2.961059 0.05168,0.279053 0.186035,0.5271 0.134359,0.248047 0.325562,0.444417 0.19637,0.191203 0.444417,0.325562 0.248047,0.134359 0.5271,0.186035 1.483113,-1.472778 2.955892,-2.950724 1.477946,-1.483114 2.955892,-2.96106 z m -6.945313,4.935099 1.483114,-1.483114 -3.451986,-3.451985 h -1.483113 v 1.483113 z m 5.462199,0.63562 h -1.116211 q 0,0.45992 -0.1757,0.868164 -0.170532,0.403076 -0.475423,0.707967 -0.299723,0.299723 -0.707967,0.475423 -0.403076,0.1757 -0.868164,0.1757 v 1.116211 q 0.692464,0 1.302246,-0.258382 0.609782,-0.26355 1.059367,-0.718302 0.454752,-0.454753 0.718302,-1.064535 0.26355,-0.609782 0.26355,-1.302246 z m -7.431071,0 q 0,0.45992 0.118856,0.888835 0.118856,0.428914 0.335897,0.800984 0.222208,0.366903 0.527099,0.671794 0.304891,0.304891 0.671794,0.527099 0.37207,0.217041 0.800985,0.335897 0.428914,0.118856 0.888834,0.118856 V 52.42617 q -0.45992,0 -0.868164,-0.1757 -0.403076,-0.1757 -0.707967,-0.475423 -0.299723,-0.304891 -0.475423,-0.707967 -0.1757,-0.408244 -0.1757,-0.868164 z m 5.462199,-0.108521 -1.483114,1.483114 0.449585,0.449585 q 0.279053,-0.05168 0.5271,-0.186035 0.248047,-0.134359 0.43925,-0.325562 0.19637,-0.19637 0.330729,-0.444417 0.134358,-0.248047 0.186035,-0.5271 z m 1.968872,4.501018 q 0,0.180867 0.124023,0.304891 0.124024,0.129191 0.304891,0.129191 0.186035,0 0.310059,-0.124024 0.155029,-0.149861 0.310058,-0.304891 0.160197,-0.155029 0.310059,-0.310058 0.124024,-0.134359 0.124024,-0.310059 0,-0.186035 -0.129192,-0.310058 -0.124023,-0.124024 -0.304891,-0.124024 -0.06201,0 -0.124023,0.0155 -0.06201,0.0155 -0.113688,0.05168 -0.02067,0.0155 -0.08268,0.06718 -0.05684,0.05684 -0.139527,0.134359 -0.07751,0.07751 -0.165364,0.165364 -0.08785,0.08785 -0.165365,0.165365 -0.07235,0.07751 -0.129191,0.134358 -0.05168,0.06201 -0.06201,0.07751 -0.03617,0.05168 -0.05168,0.113688 -0.0155,0.06201 -0.0155,0.124024 z M 64.60784,53.542381 q -0.180867,0 -0.310058,0.124024 -0.129191,0.129191 -0.129191,0.310058 0,0.07235 0.02584,0.149862 0.02584,0.08268 0.08268,0.139526 l 0.630453,0.63562 q 0.124023,0.124024 0.310058,0.124024 0.08785,0 0.165365,-0.03617 0.08268,-0.03101 0.139526,-0.08785 0.06201,-0.05684 0.09302,-0.134359 0.03617,-0.07751 0.03617,-0.170532 0,-0.170532 -0.118856,-0.299723 -0.05168,-0.05684 -0.144694,-0.155029 -0.09302,-0.09819 -0.19637,-0.206706 -0.103353,-0.103353 -0.201538,-0.19637 -0.09302,-0.08785 -0.149862,-0.129192 -0.04651,-0.03617 -0.113688,-0.05168 -0.06201,-0.0155 -0.118856,-0.0155 z m 8.102865,-1.116211 q -0.320394,0.428915 -0.744141,0.744141 l 0.919841,0.91984 q 0.031,-0.04651 0.134358,-0.155029 0.103353,-0.108521 0.222209,-0.227376 0.124023,-0.118856 0.232544,-0.222209 0.10852,-0.108521 0.155029,-0.139526 z m -5.94279,0.744141 q -0.428914,-0.315226 -0.74414,-0.744141 l -0.919841,0.919841 q 0.04651,0.03101 0.155029,0.139526 0.108521,0.103353 0.227377,0.222209 0.118855,0.118855 0.222208,0.227376 0.108521,0.10852 0.139527,0.155029 z"
           style="fill:#000000;fill-opacity:1;stroke-width:0.40614235"
           id="path11253"
           inkscape:connector-curvature="0" />
      </g>
    </g>
    <use
       x="0"
       y="0"
       inkscape:tiled-clone-of="#use4747"
       xlink:href="#use4747"
       id="use11367" />
    <use
       x="0"
       y="0"
       inkscape:tiled-clone-of="#use4747"
       xlink:href="#use4747"
       transform="translate(15.176169)"
       id="use11369" />
    <use
       x="0"
       y="0"
       inkscape:tiled-clone-of="#use4747"
       xlink:href="#use4747"
       transform="translate(30.352337)"
       id="use11371" />
    <use
       x="0"
       y="0"
       inkscape:tiled-clone-of="#use4747"
       xlink:href="#use4747"
       transform="translate(45.528506)"
       id="use11373" />
    <use
       x="0"
       y="0"
       inkscape:tiled-clone-of="#use4747"
       xlink:href="#use4747"
       transform="translate(60.704675)"
       id="use11375" />
    <use
       x="0"
       y="0"
       inkscape:tiled-clone-of="#use4747"
       xlink:href="#use4747"
       transform="translate(75.880843)"
       id="use11377" />
    <use
       x="0"
       y="0"
       inkscape:tiled-clone-of="#use4747"
       xlink:href="#use4747"
       transform="translate(91.057012)"
       id="use11379" />
    <use
       x="0"
       y="0"
       inkscape:tiled-clone-of="#use4747"
       xlink:href="#use4747"
       transform="translate(106.23318)"
       id="use11381" />
    <g
       inkscape:tile-y0="53.274841"
       inkscape:tile-x0="9.2031994"
       transform="matrix(0.72605696,0,0,0.72605696,-54.728317,-20.051501)"
       id="use4763"
       style="display:inline;stroke-width:1.37730241;enable-background:new"
       inkscape:tile-cx="12.70945"
       inkscape:tile-cy="57.589649"
       inkscape:tile-w="7.0125009"
       inkscape:tile-h="8.6296157">
      <g
         aria-label="ðŸ’°"
         style="font-style:normal;font-weight:normal;font-size:10.58333302px;line-height:1.25;font-family:sans-serif;letter-spacing:0px;word-spacing:0px;display:inline;fill:#000000;fill-opacity:1;stroke:none;stroke-width:0.36441123"
         id="g11409"
         transform="translate(-25.717786,60.88972)">
        <path
           d="m 121.3931,43.306764 q 0.0568,0.09302 0.12402,0.165365 0.0724,0.07235 0.15503,0.144694 0.40308,0.37207 0.72864,0.759643 0.32556,0.387574 0.55293,0.821656 0.22738,0.428914 0.3514,0.914672 0.12403,0.480591 0.12403,1.049032 0,0.666626 -0.1757,1.281575 -0.17053,0.61495 -0.48576,1.152385 -0.31523,0.537435 -0.75964,0.976684 -0.43925,0.43925 -0.97669,0.754476 -0.53743,0.315226 -1.15238,0.485759 -0.61495,0.1757 -1.28158,0.1757 -0.66662,0 -1.28157,-0.1757 -0.61495,-0.170533 -1.15239,-0.485759 -0.53743,-0.315226 -0.97668,-0.754476 -0.43925,-0.439249 -0.75448,-0.976684 -0.31522,-0.537435 -0.49092,-1.152385 -0.17054,-0.614949 -0.17054,-1.281575 0,-0.568441 0.12403,-1.049032 0.12402,-0.485758 0.3514,-0.914672 0.22737,-0.434082 0.55293,-0.821656 0.32557,-0.387573 0.72864,-0.759643 0.0827,-0.07235 0.14986,-0.144694 0.0724,-0.07235 0.12919,-0.165365 -0.18086,-0.273885 -0.18086,-0.604614 0,-0.1757 0.0672,-0.366903 -0.20154,-0.232544 -0.3204,-0.516764 -0.11885,-0.289388 -0.11885,-0.599447 0,-0.232544 0.0879,-0.434082 0.0879,-0.201538 0.23771,-0.351399 0.15503,-0.15503 0.35657,-0.24288 0.20153,-0.08785 0.43408,-0.08785 h 4.45967 q 0.22738,0 0.42892,0.09302 0.20154,0.08785 0.3514,0.242879 0.15503,0.149862 0.24288,0.356568 0.0879,0.201538 0.0879,0.423746 0,0.310059 -0.11886,0.599447 -0.11369,0.28422 -0.31523,0.516764 0.062,0.180868 0.062,0.366903 0,0.325561 -0.1757,0.604614 z m -2.7957,7.9375 q 0.56327,0 1.08521,-0.144694 0.52193,-0.144694 0.97668,-0.413412 0.45475,-0.263549 0.82682,-0.640787 0.37207,-0.372071 0.63562,-0.821656 0.26872,-0.454752 0.41342,-0.976684 0.14986,-0.521932 0.14986,-1.085205 0,-0.485759 -0.10852,-0.888835 -0.10336,-0.403076 -0.29973,-0.759643 -0.1912,-0.356568 -0.46508,-0.676961 -0.27389,-0.325562 -0.61495,-0.645956 -0.12919,-0.124023 -0.24288,-0.248047 -0.11369,-0.124023 -0.20154,-0.258382 -0.0878,-0.134359 -0.15503,-0.28422 -0.062,-0.15503 -0.0982,-0.335897 -0.20153,0.0155 -0.40824,0.0155 h -3.12126 q -0.13952,0 -0.26871,-0.0155 -0.0362,0.186035 -0.10336,0.341064 -0.062,0.149862 -0.15503,0.284221 -0.0879,0.129191 -0.20153,0.253214 -0.10852,0.124024 -0.24288,0.248047 -0.3359,0.315226 -0.60978,0.640788 -0.27389,0.325561 -0.47026,0.682129 -0.1912,0.356567 -0.29972,0.764811 -0.10336,0.403076 -0.10336,0.883667 0,0.847493 0.3204,1.591634 0.32039,0.738973 0.87333,1.291911 0.5581,0.558105 1.29708,0.878499 0.74414,0.320394 1.59163,0.320394 z m 0,-5.570719 q -0.14986,0 -0.26355,0.113688 -0.10852,0.10852 -0.10852,0.258382 0,0.160197 0.10852,0.315226 0.11369,0.149862 0.27905,0.310059 0.16537,0.160197 0.35657,0.330729 0.1912,0.170532 0.35657,0.366903 0.16536,0.191202 0.27388,0.418579 0.11369,0.222208 0.11369,0.485758 0,0.180868 -0.0568,0.346232 -0.0517,0.160197 -0.14986,0.294556 -0.0982,0.134359 -0.23771,0.242879 -0.13436,0.103353 -0.29973,0.165365 v 0.81132 h -0.74414 v -0.81132 q -0.16536,-0.06201 -0.30489,-0.165365 -0.13436,-0.10852 -0.23254,-0.242879 -0.0982,-0.134359 -0.14987,-0.294556 -0.0517,-0.165364 -0.0517,-0.346232 h 0.73897 q 0,0.149862 0.10852,0.26355 0.11369,0.10852 0.26355,0.10852 0.15503,0 0.26355,-0.10852 0.10852,-0.108521 0.10852,-0.26355 0,-0.144694 -0.0879,-0.26355 -0.0827,-0.118855 -0.1757,-0.217041 -0.18087,-0.191202 -0.37207,-0.37207 -0.18603,-0.180867 -0.3669,-0.366903 -0.11369,-0.113688 -0.20671,-0.222208 -0.0879,-0.108521 -0.14986,-0.227377 -0.062,-0.118855 -0.093,-0.253214 -0.031,-0.134359 -0.031,-0.304891 0,-0.1757 0.0517,-0.335897 0.0517,-0.165364 0.14987,-0.299723 0.0982,-0.139526 0.23254,-0.242879 0.13953,-0.103353 0.30489,-0.165365 v -0.81132 h 0.74414 v 0.81132 q 0.16537,0.06201 0.29973,0.165365 0.13952,0.103353 0.23771,0.242879 0.0982,0.134359 0.14986,0.299723 0.0568,0.160197 0.0568,0.335897 h -0.74414 q 0,-0.155029 -0.10852,-0.26355 -0.10852,-0.10852 -0.26355,-0.10852 z m -2.22725,-4.826579 q -0.15503,0 -0.26355,0.108521 -0.10852,0.10852 -0.10852,0.263549 0,0.227377 0.0723,0.366903 0.0775,0.139526 0.18087,0.253215 0.10852,0.10852 0.22221,0.222208 0.11369,0.113688 0.1912,0.284221 0.0207,-0.0052 0.0362,-0.01034 0.0207,-0.0052 0.0413,-0.0052 h 3.71553 q 0.0207,0 0.0362,0.0052 0.0207,0.0052 0.0413,0.01034 0.0775,-0.1757 0.1912,-0.284221 0.11369,-0.113688 0.21704,-0.222208 0.10335,-0.108521 0.1757,-0.248047 0.0775,-0.139527 0.0775,-0.372071 0,-0.149861 -0.10852,-0.258382 -0.10852,-0.113688 -0.25839,-0.113688 -0.13436,0 -0.21704,0.06201 -0.0827,0.05684 -0.16019,0.129191 -0.0724,0.06718 -0.15503,0.124023 -0.0827,0.05684 -0.21188,0.05684 -0.13436,0 -0.21704,-0.05684 -0.0827,-0.05684 -0.16019,-0.124023 -0.0724,-0.07235 -0.15503,-0.129191 -0.0827,-0.06201 -0.21188,-0.06201 -0.13436,0 -0.21704,0.06201 -0.0827,0.05684 -0.1602,0.129191 -0.0723,0.06718 -0.15502,0.124023 -0.0827,0.05684 -0.21188,0.05684 -0.13436,0 -0.21704,-0.05684 -0.0827,-0.05684 -0.15503,-0.124023 -0.0672,-0.07235 -0.14986,-0.129191 -0.0827,-0.06201 -0.21704,-0.06201 -0.13436,0 -0.21704,0.06201 -0.0827,0.05684 -0.1602,0.129191 -0.0724,0.06718 -0.15503,0.124023 -0.0827,0.05684 -0.21187,0.05684 -0.13436,0 -0.21704,-0.05684 -0.0827,-0.05684 -0.1602,-0.124023 -0.0724,-0.07235 -0.15503,-0.129191 -0.0827,-0.06201 -0.21187,-0.06201 z"
           style="fill:#ffffff;fill-opacity:1;stroke-width:0.36441123"
           id="path11407"
           inkscape:connector-curvature="0" />
      </g>
      <g
         aria-label="ðŸ’°"
         style="font-style:normal;font-weight:normal;font-size:10.58333302px;line-height:1.25;font-family:sans-serif;letter-spacing:0px;word-spacing:0px;display:inline;fill:#000000;fill-opacity:1;stroke:none;stroke-width:0.36441123"
         id="g11413"
         transform="translate(-25.717789,60.88973)">
        <path
           d="m 121.3931,43.306764 c 0.0379,0.06201 0.0792,0.117135 0.12402,0.165365 0.0483,0.04823 0.0999,0.09646 0.15503,0.144694 0.26872,0.248047 0.5116,0.501261 0.72864,0.759643 0.21704,0.258383 0.40135,0.532268 0.55293,0.821656 0.15159,0.285943 0.26872,0.590833 0.3514,0.914672 0.0827,0.320394 0.12403,0.670071 0.12403,1.049032 0,0.444417 -0.0586,0.871609 -0.1757,1.281575 -0.11369,0.409967 -0.27561,0.794095 -0.48576,1.152385 -0.21015,0.35829 -0.46337,0.683851 -0.75964,0.976684 -0.29283,0.292833 -0.6184,0.544325 -0.97669,0.754476 -0.35829,0.210151 -0.74241,0.37207 -1.15238,0.485759 -0.40997,0.117133 -0.83716,0.1757 -1.28158,0.1757 -0.44441,0 -0.8716,-0.05857 -1.28157,-0.1757 -0.40997,-0.113689 -0.7941,-0.275608 -1.15239,-0.485759 -0.35829,-0.210151 -0.68385,-0.461643 -0.97668,-0.754476 -0.29283,-0.292833 -0.54433,-0.618394 -0.75448,-0.976684 -0.21015,-0.35829 -0.37379,-0.742418 -0.49092,-1.152385 -0.11369,-0.409966 -0.17054,-0.837158 -0.17054,-1.281575 0,-0.378961 0.0413,-0.728638 0.12403,-1.049032 0.0827,-0.323839 0.19981,-0.628729 0.3514,-0.914672 0.15158,-0.289388 0.33589,-0.563273 0.55293,-0.821656 0.21705,-0.258382 0.45993,-0.511596 0.72864,-0.759643 0.0551,-0.04823 0.10509,-0.09646 0.14986,-0.144694 0.0483,-0.04823 0.0913,-0.103355 0.12919,-0.165365 -0.12057,-0.18259 -0.18086,-0.384128 -0.18086,-0.604614 0,-0.117133 0.0224,-0.239434 0.0672,-0.366903 -0.13436,-0.155029 -0.24116,-0.327284 -0.3204,-0.516764 -0.0792,-0.192925 -0.11885,-0.392741 -0.11885,-0.599447 0,-0.155029 0.0293,-0.299723 0.0879,-0.434082 0.0586,-0.134359 0.13784,-0.251492 0.23771,-0.351399 0.10335,-0.103353 0.22221,-0.184313 0.35657,-0.24288 0.13435,-0.05857 0.27905,-0.08785 0.43408,-0.08785 h 4.45967 c 0.15159,0 0.29456,0.03101 0.42892,0.09302 0.13436,0.05857 0.25149,0.139526 0.3514,0.242879 0.10335,0.09991 0.18431,0.218764 0.24288,0.356568 0.0586,0.134359 0.0879,0.275607 0.0879,0.423746 0,0.206706 -0.0396,0.406522 -0.11886,0.599447 -0.0758,0.18948 -0.18087,0.361735 -0.31523,0.516764 0.0413,0.120579 0.062,0.24288 0.062,0.366903 0,0.217041 -0.0586,0.418579 -0.1757,0.604614 z"
           style="fill:#ffd22a;fill-opacity:1;stroke-width:0.36441123"
           id="path11411"
           inkscape:connector-curvature="0"
           sodipodi:nodetypes="ccccccscscccscccccsccccccsccssccsscccsccscc" />
      </g>
      <g
         aria-label="ðŸ’°"
         style="font-style:normal;font-weight:normal;font-size:10.58333302px;line-height:1.25;font-family:sans-serif;letter-spacing:0px;word-spacing:0px;display:inline;fill:#000000;fill-opacity:1;stroke:none;stroke-width:0.36441123"
         id="g11417"
         transform="translate(-13.752485,67.95641)">
        <path
           d="m 109.4278,36.24008 q 0.0568,0.09302 0.12402,0.165365 0.0724,0.07235 0.15503,0.144694 0.40308,0.37207 0.72864,0.759643 0.32556,0.387574 0.55293,0.821656 0.22738,0.428914 0.3514,0.914672 0.12403,0.480591 0.12403,1.049032 0,0.666626 -0.1757,1.281575 -0.17053,0.61495 -0.48576,1.152385 -0.31523,0.537435 -0.75964,0.976684 -0.43925,0.43925 -0.97669,0.754476 -0.53743,0.315226 -1.15238,0.485759 -0.61495,0.1757 -1.28158,0.1757 -0.66662,0 -1.28157,-0.1757 -0.61495,-0.170533 -1.15239,-0.485759 -0.53743,-0.315226 -0.97668,-0.754476 -0.43925,-0.439249 -0.75448,-0.976684 -0.31522,-0.537435 -0.49092,-1.152385 -0.17054,-0.614949 -0.17054,-1.281575 0,-0.568441 0.12403,-1.049032 0.12402,-0.485758 0.3514,-0.914672 0.22737,-0.434082 0.55293,-0.821656 0.32557,-0.387573 0.72864,-0.759643 0.0827,-0.07235 0.14986,-0.144694 0.0724,-0.07235 0.12919,-0.165365 -0.18086,-0.273885 -0.18086,-0.604614 0,-0.1757 0.0672,-0.366903 -0.20154,-0.232544 -0.3204,-0.516764 -0.11885,-0.289388 -0.11885,-0.599447 0,-0.232544 0.0879,-0.434082 0.0879,-0.201538 0.23771,-0.351399 0.15503,-0.15503 0.35657,-0.24288 0.20153,-0.08785 0.43408,-0.08785 h 4.45967 q 0.22738,0 0.42892,0.09302 0.20154,0.08785 0.3514,0.242879 0.15503,0.149862 0.24288,0.356568 0.0879,0.201538 0.0879,0.423746 0,0.310059 -0.11886,0.599447 -0.11369,0.28422 -0.31523,0.516764 0.062,0.180868 0.062,0.366903 0,0.325561 -0.1757,0.604614 z m -2.7957,7.9375 q 0.56327,0 1.08521,-0.144694 0.52193,-0.144694 0.97668,-0.413412 0.45475,-0.263549 0.82682,-0.640787 0.37207,-0.372071 0.63562,-0.821656 0.26872,-0.454752 0.41342,-0.976684 0.14986,-0.521932 0.14986,-1.085205 0,-0.485759 -0.10852,-0.888835 -0.10336,-0.403076 -0.29973,-0.759643 -0.1912,-0.356568 -0.46508,-0.676961 -0.27389,-0.325562 -0.61495,-0.645956 -0.12919,-0.124023 -0.24288,-0.248047 -0.11369,-0.124023 -0.20154,-0.258382 -0.0878,-0.134359 -0.15503,-0.28422 -0.062,-0.15503 -0.0982,-0.335897 -0.20153,0.0155 -0.40824,0.0155 h -3.12126 q -0.13952,0 -0.26871,-0.0155 -0.0362,0.186035 -0.10336,0.341064 -0.062,0.149862 -0.15503,0.284221 -0.0879,0.129191 -0.20153,0.253214 -0.10852,0.124024 -0.24288,0.248047 -0.3359,0.315226 -0.60978,0.640788 -0.27389,0.325561 -0.47026,0.682129 -0.1912,0.356567 -0.29972,0.764811 -0.10336,0.403076 -0.10336,0.883667 0,0.847493 0.3204,1.591634 0.32039,0.738973 0.87333,1.291911 0.5581,0.558105 1.29708,0.878499 0.74414,0.320394 1.59163,0.320394 z m 0,-5.570719 q -0.14986,0 -0.26355,0.113688 -0.10852,0.10852 -0.10852,0.258382 0,0.160197 0.10852,0.315226 0.11369,0.149862 0.27905,0.310059 0.16537,0.160197 0.35657,0.330729 0.1912,0.170532 0.35657,0.366903 0.16536,0.191202 0.27388,0.418579 0.11369,0.222208 0.11369,0.485758 0,0.180868 -0.0568,0.346232 -0.0517,0.160197 -0.14986,0.294556 -0.0982,0.134359 -0.23771,0.242879 -0.13436,0.103353 -0.29973,0.165365 v 0.81132 h -0.74414 v -0.81132 q -0.16536,-0.06201 -0.30489,-0.165365 -0.13436,-0.10852 -0.23254,-0.242879 -0.0982,-0.134359 -0.14987,-0.294556 -0.0517,-0.165364 -0.0517,-0.346232 h 0.73897 q 0,0.149862 0.10852,0.26355 0.11369,0.10852 0.26355,0.10852 0.15503,0 0.26355,-0.10852 0.10852,-0.108521 0.10852,-0.26355 0,-0.144694 -0.0879,-0.26355 -0.0827,-0.118855 -0.1757,-0.217041 -0.18087,-0.191202 -0.37207,-0.37207 -0.18603,-0.180867 -0.3669,-0.366903 -0.11369,-0.113688 -0.20671,-0.222208 -0.0879,-0.108521 -0.14986,-0.227377 -0.062,-0.118855 -0.093,-0.253214 -0.031,-0.134359 -0.031,-0.304891 0,-0.1757 0.0517,-0.335897 0.0517,-0.165364 0.14987,-0.299723 0.0982,-0.139526 0.23254,-0.242879 0.13953,-0.103353 0.30489,-0.165365 v -0.81132 h 0.74414 v 0.81132 q 0.16537,0.06201 0.29973,0.165365 0.13952,0.103353 0.23771,0.242879 0.0982,0.134359 0.14986,0.299723 0.0568,0.160197 0.0568,0.335897 h -0.74414 q 0,-0.155029 -0.10852,-0.26355 -0.10852,-0.10852 -0.26355,-0.10852 z m -2.22725,-4.826579 q -0.15503,0 -0.26355,0.108521 -0.10852,0.10852 -0.10852,0.263549 0,0.227377 0.0723,0.366903 0.0775,0.139526 0.18087,0.253215 0.10852,0.10852 0.22221,0.222208 0.11369,0.113688 0.1912,0.284221 0.0207,-0.0052 0.0362,-0.01034 0.0207,-0.0052 0.0413,-0.0052 h 3.71553 q 0.0207,0 0.0362,0.0052 0.0207,0.0052 0.0413,0.01034 0.0775,-0.1757 0.1912,-0.284221 0.11369,-0.113688 0.21704,-0.222208 0.10335,-0.108521 0.1757,-0.248047 0.0775,-0.139527 0.0775,-0.372071 0,-0.149861 -0.10852,-0.258382 -0.10852,-0.113688 -0.25839,-0.113688 -0.13436,0 -0.21704,0.06201 -0.0827,0.05684 -0.16019,0.129191 -0.0724,0.06718 -0.15503,0.124023 -0.0827,0.05684 -0.21188,0.05684 -0.13436,0 -0.21704,-0.05684 -0.0827,-0.05684 -0.16019,-0.124023 -0.0724,-0.07235 -0.15503,-0.129191 -0.0827,-0.06201 -0.21188,-0.06201 -0.13436,0 -0.21704,0.06201 -0.0827,0.05684 -0.1602,0.129191 -0.0723,0.06718 -0.15502,0.124023 -0.0827,0.05684 -0.21188,0.05684 -0.13436,0 -0.21704,-0.05684 -0.0827,-0.05684 -0.15503,-0.124023 -0.0672,-0.07235 -0.14986,-0.129191 -0.0827,-0.06201 -0.21704,-0.06201 -0.13436,0 -0.21704,0.06201 -0.0827,0.05684 -0.1602,0.129191 -0.0724,0.06718 -0.15503,0.124023 -0.0827,0.05684 -0.21187,0.05684 -0.13436,0 -0.21704,-0.05684 -0.0827,-0.05684 -0.1602,-0.124023 -0.0724,-0.07235 -0.15503,-0.129191 -0.0827,-0.06201 -0.21187,-0.06201 z"
           style="fill:#000000;fill-opacity:1;stroke-width:0.36441123"
           id="path11415"
           inkscape:connector-curvature="0" />
      </g>
    </g>
    <use
       x="0"
       y="0"
       inkscape:tiled-clone-of="#use4763"
       xlink:href="#use4763"
       id="use11511" />
    <use
       x="0"
       y="0"
       inkscape:tiled-clone-of="#use4763"
       xlink:href="#use4763"
       transform="translate(15.147002)"
       id="use11513" />
    <use
       x="0"
       y="0"
       inkscape:tiled-clone-of="#use4763"
       xlink:href="#use4763"
       transform="translate(30.294004)"
       id="use11515" />
    <use
       x="0"
       y="0"
       inkscape:tiled-clone-of="#use4763"
       xlink:href="#use4763"
       transform="translate(45.441006)"
       id="use11517" />
    <use
       x="0"
       y="0"
       inkscape:tiled-clone-of="#use4763"
       xlink:href="#use4763"
       transform="translate(60.588008)"
       id="use11519" />
    <use
       x="0"
       y="0"
       inkscape:tiled-clone-of="#use4763"
       xlink:href="#use4763"
       transform="translate(75.73501)"
       id="use11521" />
    <use
       x="0"
       y="0"
       inkscape:tiled-clone-of="#use4763"
       xlink:href="#use4763"
       transform="translate(90.882012)"
       id="use11523" />
    <use
       x="0"
       y="0"
       inkscape:tiled-clone-of="#use4763"
       xlink:href="#use4763"
       transform="translate(106.02901)"
       id="use11525" />
    <use
       x="0"
       y="0"
       inkscape:tiled-clone-of="#use4715"
       xlink:href="#use4715"
       transform="translate(121.20461)"
       id="use11024-2"
       width="100%"
       height="100%"
       style="stroke:#000000;stroke-opacity:0.97406805;fill-rule:nonzero;filter:url(#filter15478)"
       inkscape:tile-cx="133.94114"
       inkscape:tile-cy="12.362328"
       inkscape:tile-w="9.8928398"
       inkscape:tile-h="8.9121603"
       inkscape:tile-x0="128.99472"
       inkscape:tile-y0="7.9062486" />
    <use
       x="0"
       y="0"
       inkscape:tiled-clone-of="#use11024-2"
       xlink:href="#use11024-2"
       id="use15514" />
    <use
       x="0"
       y="0"
       inkscape:tiled-clone-of="#use11024-2"
       xlink:href="#use11024-2"
       transform="translate(0,15.150673)"
       id="use15516" />
    <use
       x="0"
       y="0"
       inkscape:tiled-clone-of="#use11024-2"
       xlink:href="#use11024-2"
       transform="translate(0,30.301345)"
       id="use15518" />
    <use
       x="0"
       y="0"
       inkscape:tiled-clone-of="#use11024-2"
       xlink:href="#use11024-2"
       transform="translate(0,45.452018)"
       id="use15520" />
  </g>
</svg>
