<?xml version="1.0" encoding="UTF-8" standalone="no"?>
<!-- Created with Inkscape (http://www.inkscape.org/) -->

<svg
   xmlns:dc="http://purl.org/dc/elements/1.1/"
   xmlns:cc="http://creativecommons.org/ns#"
   xmlns:rdf="http://www.w3.org/1999/02/22-rdf-syntax-ns#"
   xmlns:svg="http://www.w3.org/2000/svg"
   xmlns="http://www.w3.org/2000/svg"
   xmlns:sodipodi="http://sodipodi.sourceforge.net/DTD/sodipodi-0.dtd"
   xmlns:inkscape="http://www.inkscape.org/namespaces/inkscape"
   width="412.79999mm"
   height="572.79999mm"
   viewBox="0 0 412.79999 572.79999"
   version="1.1"
   id="svg1514"
   inkscape:version="0.92.4 (5da689c313, 2019-01-14)"
   sodipodi:docname="BoxTop.svg">
  <defs
     id="defs1508" />
  <sodipodi:namedview
     id="base"
     pagecolor="#ffffff"
     bordercolor="#666666"
     borderopacity="1.0"
     inkscape:pageopacity="0.0"
     inkscape:pageshadow="2"
     inkscape:zoom="0.35"
     inkscape:cx="636.12975"
     inkscape:cy="928.4065"
     inkscape:document-units="mm"
     inkscape:current-layer="layer1"
     showgrid="false"
     inkscape:window-width="1920"
     inkscape:window-height="1017"
     inkscape:window-x="-8"
     inkscape:window-y="-8"
     inkscape:window-maximized="1"
     fit-margin-top="20"
     fit-margin-left="20"
     fit-margin-right="20"
     fit-margin-bottom="20" />
  <metadata
     id="metadata1511">
    <rdf:RDF>
      <cc:Work
         rdf:about="">
        <dc:format>image/svg+xml</dc:format>
        <dc:type
           rdf:resource="http://purl.org/dc/dcmitype/StillImage" />
        <dc:title></dc:title>
      </cc:Work>
    </rdf:RDF>
  </metadata>
  <g
     inkscape:label="Ebene 1"
     inkscape:groupmode="layer"
     id="layer1"
     transform="translate(36.372617,55.457143)">
    <path
       style="opacity:1;fill:#ffffff;fill-opacity:1;stroke:#000000;stroke-width:0.37795275;stroke-linejoin:miter;stroke-miterlimit:4;stroke-dasharray:none;stroke-dashoffset:0;stroke-opacity:1"
       d="M 298.45898 66.330078 C 296.329 66.330078 294.61328 66.569541 294.61328 66.865234 L 294.61328 284.63086 C 294.61328 284.92655 296.329 285.16602 298.45898 285.16602 C 296.329 285.16602 294.61328 286.88938 294.61328 289.03125 C 294.61328 286.88938 294.23129 285.16602 293.75586 285.16602 L 76.638672 285.16602 C 76.163243 285.16602 75.779297 286.88938 75.779297 289.03125 L 75.779297 1866.4336 C 75.779297 1868.5755 76.163243 1870.2988 76.638672 1870.2988 L 293.75586 1870.2988 C 294.23129 1870.2988 294.61328 1868.5755 294.61328 1866.4336 C 294.61328 1868.5755 296.329 1870.2988 298.45898 1870.2988 C 296.329 1870.2988 294.61328 1870.5363 294.61328 1870.832 L 294.61328 2088.5996 C 294.61328 2088.8953 296.329 2089.1348 298.45898 2089.1348 L 1271.1797 2089.1348 C 1273.3097 2089.1348 1275.0234 2088.8953 1275.0234 2088.5996 L 1275.0234 1870.832 C 1275.0234 1870.5363 1273.3097 1870.2988 1271.1797 1870.2988 C 1273.3097 1870.2988 1275.0234 1868.5755 1275.0234 1866.4336 C 1275.0234 1868.5755 1275.4054 1870.2988 1275.8809 1870.2988 L 1493 1870.2988 C 1493.4754 1870.2988 1493.8574 1868.5755 1493.8574 1866.4336 L 1493.8574 289.03125 C 1493.8574 286.88938 1493.4754 285.16602 1493 285.16602 L 1275.8809 285.16602 C 1275.4054 285.16602 1275.0234 286.88938 1275.0234 289.03125 C 1275.0234 286.88938 1273.3097 285.16602 1271.1797 285.16602 C 1273.3097 285.16602 1275.0234 284.92655 1275.0234 284.63086 L 1275.0234 66.865234 C 1275.0234 66.569541 1273.3097 66.330078 1271.1797 66.330078 L 298.45898 66.330078 z "
       transform="matrix(0.26458333,0,0,0.26458333,-36.372617,-55.457143)"
       id="rect2059" />
  </g>
</svg>
